<svg xmlns="http://www.w3.org/2000/svg" xmlns:xlink="http://www.w3.org/1999/xlink" width="1383.231" height="620.373" viewBox="0 0 1383.231 620.373">
  <defs>
    <clipPath id="clip-path">
      <rect id="Rectangle_35" data-name="Rectangle 35" width="285.396" height="295.538" fill="none"/>
    </clipPath>
    <clipPath id="clip-path-3">
      <rect id="Rectangle_25" data-name="Rectangle 25" width="282.88" height="182.834" fill="none"/>
    </clipPath>
    <clipPath id="clip-path-4">
      <path id="Path_12" data-name="Path 12" d="M138.5,170.812c-.079.125-.158.256-.236.38-.347.557-.694,1.114-1.047,1.678-18.185,28.735-45.27,55.536-74.13,77.324q-3.173,2.4-6.378,4.712-7.357,5.337-14.793,10.2-1.7,1.11-3.346,2.169-3.959,2.546-7.636,4.85c-.4.249-.8.5-1.192.746C12.7,283.587,1.183,290.841,2.388,300.041c3.818,29.167,48.106,4.181,48.545,3.938-.21.531-11.539,28.944,4.277,40.038h.006a20.781,20.781,0,0,0,4.885,2.516,25.892,25.892,0,0,0,2.659.813c25.932,6.494,52.388-25.111,53.868-26.912.045-.053.066-.079.066-.079s0,.033.006.1c.04.38.183,1.8.6,3.867,1.873,9.475,9.234,32.365,36.312,28.23,33.568-5.125,23.143-36.271,22.881-37.044.5.806,23.116,36.919,48.145,25.93,24.8-10.9,3.359-42.43,2.495-43.688,1.27,1.337,47.392,49.7,56.763,11.815,5.449-21.985-6.941-29.789-26.364-39.736-1.113-.571-2.253-1.153-3.411-1.737-1.363-.695-2.751-1.4-4.165-2.123q-1.06-.54-2.142-1.1c-.72-.366-1.447-.747-2.174-1.127a199.005,199.005,0,0,1-24.7-14.941q-2.4-1.73-4.82-3.584c-.438-.328-.871-.668-1.31-1.009q-1.492-1.16-2.993-2.359c-.511-.406-1.028-.825-1.545-1.245-3.477-2.825-6.974-5.8-10.445-8.866-.543-.472-1.081-.957-1.624-1.442-4.328-3.866-8.618-7.857-12.782-11.867q-1.512-1.454-3.006-2.923-3.123-3.047-6.136-6.075c-.491-.5-.982-.989-1.467-1.481-6.588-6.657-12.645-13.073-17.819-18.7-.366-.393-.727-.786-1.08-1.173-.407-.446-.819-.891-1.219-1.33q-.521-.57-1.022-1.12c-.242-.275-.491-.544-.733-.806l-.563-.623c-.419-.472-.838-.936-1.25-1.389-.655-.721-1.277-1.422-1.88-2.1-.852-.95-1.65-1.855-2.4-2.7-.15-.164-.295-.328-.439-.492-.164-.2-.334-.387-.5-.57-.256-.288-.5-.564-.74-.839-2.155-2.457-3.772-4.338-4.748-5.471-.033-.033-.058-.066-.091-.1-.628-.747-.963-1.141-.963-1.141-.281.473-.569.937-.857,1.409" transform="translate(-2.301 -169.403)" fill="none"/>
    </clipPath>
    <linearGradient id="linear-gradient" x1="-0.001" y1="1.023" x2="0.001" y2="1.023" gradientUnits="objectBoundingBox">
      <stop offset="0" stop-color="#fff"/>
      <stop offset="1" stop-color="#7da1e2"/>
    </linearGradient>
    <clipPath id="clip-path-6">
      <rect id="Rectangle_28" data-name="Rectangle 28" width="224.061" height="129.86" fill="none"/>
    </clipPath>
    <clipPath id="clip-path-7">
      <path id="Path_16" data-name="Path 16" d="M80.506,157.073q-4.416,3.765-8.837,7.385a317.222,317.222,0,0,1-31.98,23.413c-39.946,24.9,27.654,35.385,46.091,24.9,0,0-4.3,28.832,30.113,27.522s45.476-24.9,45.476-24.9,29.5,34.731,54.7,21.625c24.4-12.693,13.071-27.843,12.328-28.787.541.557,7.362,6.966,34.992,2.575,28.883-4.588,23.457-23.564,5.531-32.109a244.6,244.6,0,0,1-25.5-14.05q-5.014-3.165-9.654-6.434c-53.122-37.352-69.931-82.4-69.931-82.4s-41.1,45.2-83.321,81.256" transform="translate(-27.27 -75.817)" fill="none"/>
    </clipPath>
    <linearGradient id="linear-gradient-2" x1="0.037" y1="1.428" x2="0.039" y2="1.428" xlink:href="#linear-gradient"/>
    <clipPath id="clip-path-9">
      <rect id="Rectangle_31" data-name="Rectangle 31" width="153.251" height="96.992" fill="none"/>
    </clipPath>
    <clipPath id="clip-path-10">
      <path id="Path_19" data-name="Path 19" d="M160.6,8.476c-13,19.478-37.229,51.03-74.875,82.426-31.286,26.092,40.521,41.688,57.114,11.545,0,0,7.375,35.386,35.644,30.143S206.747,103.1,206.747,103.1s33.8,29.488,57.768,12.45-15.908-37.182-42.4-57.665c-14.377-11.114-28.963-32.762-38.6-48.821A13.363,13.363,0,0,0,160.6,8.476" transform="translate(-77.918 -2.274)" fill="none"/>
    </clipPath>
    <linearGradient id="linear-gradient-3" x1="-0.104" y1="2.17" x2="-0.101" y2="2.17" xlink:href="#linear-gradient"/>
    <clipPath id="clip-path-12">
      <rect id="Rectangle_35-2" data-name="Rectangle 35" width="221.107" height="228.965" fill="none"/>
    </clipPath>
    <clipPath id="clip-path-14">
      <rect id="Rectangle_25-2" data-name="Rectangle 25" width="219.158" height="141.648" fill="none"/>
    </clipPath>
    <clipPath id="clip-path-15">
      <path id="Path_12-2" data-name="Path 12" d="M115.94,170.495c.061.1.122.2.183.294.269.432.538.863.812,1.3,14.089,22.262,35.073,43.026,57.431,59.906q2.458,1.858,4.942,3.65,5.7,4.135,11.461,7.9,1.316.86,2.592,1.68,3.067,1.973,5.916,3.757c.31.193.619.386.923.578,13.2,8.306,22.125,13.926,21.192,21.054-2.958,22.6-37.269,3.239-37.61,3.051.163.411,8.94,22.424-3.313,31.019h0a16.1,16.1,0,0,1-3.785,1.949,20.056,20.056,0,0,1-2.06.629c-20.09,5.031-40.587-19.454-41.734-20.85-.035-.041-.051-.061-.051-.061s0,.026,0,.076c-.031.295-.142,1.4-.462,3-1.451,7.341-7.154,25.074-28.132,21.871-26.006-3.97-17.93-28.1-17.726-28.7-.386.625-17.909,28.6-37.3,20.089-19.213-8.443-2.6-32.872-1.933-33.847-.984,1.036-36.717,38.5-43.976,9.154C-.921,260.958,8.678,254.911,23.726,247.2c.862-.442,1.745-.893,2.643-1.345,1.056-.538,2.131-1.082,3.227-1.645q.822-.419,1.659-.853c.558-.284,1.121-.579,1.684-.873a154.173,154.173,0,0,0,19.137-11.575q1.857-1.34,3.734-2.776c.339-.254.675-.518,1.015-.782q1.156-.9,2.319-1.828c.4-.314.8-.639,1.2-.964,2.694-2.188,5.4-4.493,8.092-6.869.421-.366.837-.742,1.258-1.117,3.353-3,6.676-6.087,9.9-9.194q1.172-1.127,2.329-2.264,2.42-2.361,4.754-4.706c.38-.386.761-.766,1.136-1.147,5.1-5.158,9.8-10.128,13.8-14.484.284-.3.563-.609.837-.908.315-.345.635-.69.944-1.031l.792-.868c.187-.213.38-.421.568-.624l.436-.483c.324-.366.649-.726.968-1.076.508-.559.989-1.1,1.456-1.625.66-.736,1.278-1.437,1.862-2.091.116-.127.228-.254.34-.381.127-.152.259-.3.385-.442.2-.223.391-.437.573-.65,1.669-1.9,2.922-3.361,3.679-4.239.025-.026.045-.051.071-.076.487-.579.746-.884.746-.884.218.366.441.726.664,1.092" transform="translate(-2.301 -169.403)" fill="none"/>
    </clipPath>
    <linearGradient id="linear-gradient-4" x1="1.001" y1="1.023" x2="0.999" y2="1.023" xlink:href="#linear-gradient"/>
    <clipPath id="clip-path-17">
      <rect id="Rectangle_28-2" data-name="Rectangle 28" width="173.588" height="100.608" fill="none"/>
    </clipPath>
    <clipPath id="clip-path-18">
      <path id="Path_16-2" data-name="Path 16" d="M184.695,138.769q3.421,2.917,6.847,5.722a245.762,245.762,0,0,0,24.776,18.139c30.948,19.292-21.425,27.414-35.708,19.292,0,0,3.333,22.338-23.33,21.323s-35.232-19.292-35.232-19.292-22.854,26.907-42.375,16.754c-18.9-9.834-10.127-21.571-9.551-22.3-.419.431-5.7,5.4-27.11,2-22.377-3.554-18.173-18.256-4.285-24.876a189.5,189.5,0,0,0,19.759-10.885q3.884-2.452,7.479-4.985c41.156-28.938,54.178-63.836,54.178-63.836s31.842,35.019,64.552,62.952" transform="translate(-27.27 -75.817)" fill="none"/>
    </clipPath>
    <linearGradient id="linear-gradient-5" x1="0.963" y1="1.428" x2="0.961" y2="1.428" xlink:href="#linear-gradient"/>
    <clipPath id="clip-path-20">
      <rect id="Rectangle_31-2" data-name="Rectangle 31" width="118.729" height="75.143" fill="none"/>
    </clipPath>
    <clipPath id="clip-path-21">
      <path id="Path_19-2" data-name="Path 19" d="M164.141,7.079A305.4,305.4,0,0,0,222.15,70.938c24.238,20.214-31.393,32.3-44.248,8.945,0,0-5.714,27.415-27.615,23.353s-21.9-22.845-21.9-22.845S102.2,103.236,83.63,90.036s12.325-28.807,32.852-44.675c11.138-8.61,22.439-25.382,29.9-37.823a10.353,10.353,0,0,1,17.756-.458" transform="translate(-77.918 -2.274)" fill="none"/>
    </clipPath>
    <linearGradient id="linear-gradient-6" x1="1.104" y1="2.17" x2="1.101" y2="2.17" xlink:href="#linear-gradient"/>
    <clipPath id="clip-path-23">
      <path id="Path_79" data-name="Path 79" d="M7.731,100.885h.881V213.7H143.465V100.885L75.6,29.492Z" transform="translate(-7.731 -29.492)" fill="none"/>
    </clipPath>
    <linearGradient id="linear-gradient-7" x1="-0.075" y1="1" x2="-0.065" y2="1" gradientUnits="objectBoundingBox">
      <stop offset="0" stop-color="#fad5e5"/>
      <stop offset="0.01" stop-color="#f9d3e2"/>
      <stop offset="0.233" stop-color="#f7b2b7"/>
      <stop offset="0.45" stop-color="#f59895"/>
      <stop offset="0.654" stop-color="#f4867d"/>
      <stop offset="0.843" stop-color="#f37a6f"/>
      <stop offset="1" stop-color="#f3776a"/>
    </linearGradient>
    <clipPath id="clip-path-24">
      <rect id="Rectangle_84" data-name="Rectangle 84" width="118.706" height="112.819" fill="none"/>
    </clipPath>
    <linearGradient id="linear-gradient-8" x1="-1.24" y1="1" x2="-1.229" y2="1" gradientUnits="objectBoundingBox">
      <stop offset="0" stop-color="#fad5e5"/>
      <stop offset="0.099" stop-color="#f9ccd5"/>
      <stop offset="0.352" stop-color="#f8b8b4"/>
      <stop offset="0.594" stop-color="#f7a99b"/>
      <stop offset="0.816" stop-color="#f7a18d"/>
      <stop offset="1" stop-color="#f79e88"/>
    </linearGradient>
    <clipPath id="clip-path-25">
      <rect id="Rectangle_86" data-name="Rectangle 86" width="27.116" height="68.433" fill="none"/>
    </clipPath>
    <linearGradient id="linear-gradient-9" x1="-6.448" y1="3.059" x2="-6.397" y2="3.059" xlink:href="#linear-gradient-7"/>
    <clipPath id="clip-path-26">
      <rect id="Rectangle_88" data-name="Rectangle 88" width="7.866" height="68.174" fill="none"/>
    </clipPath>
    <linearGradient id="linear-gradient-10" x1="-24.5" y1="3.059" x2="-24.333" y2="3.059" xlink:href="#linear-gradient-8"/>
    <clipPath id="clip-path-27">
      <rect id="Rectangle_90" data-name="Rectangle 90" width="28.843" height="18.355" fill="none"/>
    </clipPath>
    <linearGradient id="linear-gradient-11" x1="-5.769" y1="12.143" x2="-5.723" y2="12.143" xlink:href="#linear-gradient-7"/>
    <clipPath id="clip-path-28">
      <rect id="Rectangle_92" data-name="Rectangle 92" width="13.544" height="18.355" fill="none"/>
    </clipPath>
    <linearGradient id="linear-gradient-12" x1="-14.197" y1="12.143" x2="-14.1" y2="12.143" xlink:href="#linear-gradient-8"/>
    <clipPath id="clip-path-29">
      <rect id="Rectangle_94" data-name="Rectangle 94" width="48.769" height="86.59" fill="none"/>
    </clipPath>
    <linearGradient id="linear-gradient-13" x1="-1.02" y1="1" x2="-0.994" y2="1" gradientUnits="objectBoundingBox">
      <stop offset="0" stop-color="#fff"/>
      <stop offset="1" stop-color="#ffdba3"/>
    </linearGradient>
    <clipPath id="clip-path-30">
      <rect id="Rectangle_96" data-name="Rectangle 96" width="36.826" height="36.826" fill="none"/>
    </clipPath>
    <linearGradient id="linear-gradient-14" x1="-4.378" y1="2.027" x2="-4.343" y2="2.027" xlink:href="#linear-gradient-13"/>
    <linearGradient id="linear-gradient-15" x1="-5.838" y1="2.027" x2="-5.802" y2="2.027" xlink:href="#linear-gradient-13"/>
    <clipPath id="clip-path-32">
      <path id="Path_82" data-name="Path 82" d="M47.351,70.532A15.925,15.925,0,1,0,63.275,54.607,15.924,15.924,0,0,0,47.351,70.532" transform="translate(-47.351 -54.607)" fill="none"/>
    </clipPath>
    <linearGradient id="linear-gradient-16" x1="-1.949" y1="4.75" x2="-1.908" y2="4.75" xlink:href="#linear-gradient-13"/>
    <clipPath id="clip-path-33">
      <rect id="Rectangle_199" data-name="Rectangle 199" width="240" height="477" transform="translate(1682 2825)" fill="#fff" stroke="#707070" stroke-width="1"/>
    </clipPath>
    <clipPath id="clip-path-34">
      <rect id="Rectangle_35-3" data-name="Rectangle 35" width="340.134" height="352.221" fill="none"/>
    </clipPath>
    <clipPath id="clip-path-36">
      <rect id="Rectangle_25-3" data-name="Rectangle 25" width="337.135" height="217.9" fill="none"/>
    </clipPath>
    <clipPath id="clip-path-37">
      <path id="Path_12-3" data-name="Path 12" d="M177.114,171.082c.094.148.188.305.282.453.413.664.827,1.328,1.248,2,21.673,34.246,53.953,66.187,88.348,92.154q3.781,2.858,7.6,5.615,8.768,6.36,17.631,12.152,2.025,1.323,3.988,2.585,4.718,3.034,9.1,5.78c.476.3.952.593,1.42.889,20.308,12.777,34.035,21.423,32.6,32.387-4.55,34.761-57.332,4.983-57.855,4.694.25.633,13.752,34.495-5.1,47.718h-.007a24.768,24.768,0,0,1-5.822,3,30.87,30.87,0,0,1-3.169.968c-30.905,7.739-62.436-29.927-64.2-32.074-.054-.063-.078-.094-.078-.094s0,.04-.007.117c-.048.453-.219,2.148-.71,4.608-2.233,11.293-11,38.572-43.277,33.644-40.006-6.107-27.581-43.227-27.269-44.149-.593.961-27.55,44-57.379,30.9-29.555-12.987-4-50.568-2.973-52.068-1.514,1.594-56.482,59.229-67.65,14.081-6.494-26.2,8.272-35.5,31.421-47.358,1.327-.68,2.685-1.374,4.066-2.07,1.624-.828,3.279-1.664,4.964-2.53q1.264-.644,2.552-1.312c.858-.437,1.725-.89,2.591-1.344a237.169,237.169,0,0,0,29.438-17.806q2.857-2.061,5.745-4.271c.522-.391,1.038-.8,1.561-1.2q1.778-1.382,3.567-2.812c.608-.483,1.225-.984,1.842-1.483,4.144-3.366,8.312-6.911,12.448-10.567.647-.562,1.288-1.141,1.936-1.719,5.158-4.608,10.27-9.363,15.234-14.143q1.8-1.733,3.583-3.483,3.722-3.631,7.313-7.24c.585-.593,1.17-1.179,1.748-1.765,7.851-7.934,15.07-15.581,21.236-22.281.437-.469.866-.937,1.287-1.4.485-.531.976-1.062,1.452-1.586q.621-.679,1.218-1.335c.288-.328.585-.648.874-.96l.671-.742c.5-.562,1-1.116,1.49-1.655.781-.859,1.522-1.7,2.24-2.5,1.015-1.132,1.967-2.21,2.865-3.217.179-.2.351-.391.523-.586.2-.234.4-.461.592-.679.3-.344.6-.672.882-1,2.568-2.928,4.5-5.17,5.659-6.521.039-.04.069-.078.109-.117.749-.891,1.147-1.36,1.147-1.36.335.563.679,1.117,1.022,1.679" transform="translate(-2.301 -169.403)" fill="none"/>
    </clipPath>
    <clipPath id="clip-path-39">
      <rect id="Rectangle_28-3" data-name="Rectangle 28" width="267.034" height="154.767" fill="none"/>
    </clipPath>
    <clipPath id="clip-path-40">
      <path id="Path_16-3" data-name="Path 16" d="M269.44,172.657q5.262,4.487,10.532,8.8a378.061,378.061,0,0,0,38.114,27.9c47.608,29.677-32.958,42.172-54.931,29.677,0,0,5.127,34.362-35.889,32.8s-54.2-29.677-54.2-29.677-35.157,41.392-65.186,25.773C78.805,252.808,92.3,234.752,93.19,233.627c-.644.663-8.774,8.3-41.7,3.069-34.423-5.468-27.957-28.084-6.592-38.267a291.5,291.5,0,0,0,30.4-16.745q5.975-3.772,11.506-7.668c63.311-44.516,83.343-98.2,83.343-98.2s48.984,53.871,99.3,96.84" transform="translate(-27.27 -75.817)" fill="none"/>
    </clipPath>
    <clipPath id="clip-path-42">
      <rect id="Rectangle_31-3" data-name="Rectangle 31" width="182.643" height="115.595" fill="none"/>
    </clipPath>
    <clipPath id="clip-path-43">
      <path id="Path_19-3" data-name="Path 19" d="M210.556,9.666c15.489,23.214,44.369,60.817,89.236,98.235,37.286,31.1-48.293,49.684-68.068,13.76,0,0-8.789,42.172-42.48,35.925s-33.691-35.143-33.691-35.143S115.27,157.585,86.705,137.28s18.96-44.314,50.537-68.725c17.134-13.245,34.518-39.045,46-58.185a15.925,15.925,0,0,1,27.314-.705" transform="translate(-77.918 -2.274)" fill="none"/>
    </clipPath>
  </defs>
  <g id="Group_158" data-name="Group 158" transform="translate(-539 -2825)">
    <path id="Path_77" data-name="Path 77" d="M3415.446,2022.13c-83.159-128.925-275.432-57.718-431.956,76.3s-335.846,116.393-476.955,60.233-304.926-112.937-415.674,0-76.457,303.01,218.015,275.016,399.283,45.808,636.357,53.442c153.387,4.939,350.65,30.12,470.212,15.565Z" transform="translate(-1493.718 938.21)" fill="#ebebff"/>
    <path id="Path_84" data-name="Path 84" d="M3927.694,2503.594c-131.715-35.353-178.9,17.677-256.929,32.407s-197.8,73.653,52.625,135.521,225.022,29.46,337.533,0c39.829-10.429,73.063-14.556,102.2-12.177V2480.2C4072.39,2486.088,3927.694,2503.594,3927.694,2503.594Z" transform="translate(-2240.894 678.544)" fill="#dbdbee"/>
    <g id="Group_69" data-name="Group 69" transform="translate(1553.416 2865.552)">
      <g id="Group_36" data-name="Group 36" transform="translate(0)" clip-path="url(#clip-path)">
        <g id="Group_17" data-name="Group 17">
          <g id="Group_16" data-name="Group 16" clip-path="url(#clip-path)">
            <g id="Group_15" data-name="Group 15" transform="translate(1.412 112.705)" opacity="0.3">
              <g id="Group_14" data-name="Group 14">
                <g id="Group_13" data-name="Group 13" clip-path="url(#clip-path-3)">
                  <path id="Path_11" data-name="Path 11" d="M283.891,323.078c-6.231,25.189-28.71,12.248-43.449.354a3.522,3.522,0,0,0-5.588,3.751c3.077,9.918,3.206,21.867-10.222,27.768-16,7.026-31.022-5.2-39.9-15.149a3.762,3.762,0,0,0-6.558,2.309c-.5,9.437-5.247,21.005-24.566,23.955-18.623,2.844-28.115-8.937-32.836-19.653a8.129,8.129,0,0,0-12.936-2.7c-10.3,9.394-27.9,21.455-45.077,17.154a25.85,25.85,0,0,1-2.659-.813,20.751,20.751,0,0,1-4.885-2.517h-.006c-10.611-7.444-9-22.685-6.732-32.068a3.683,3.683,0,0,0-5.068-4.251C30.5,326.973,5.229,335.268,2.388,313.557c-1.205-9.2,10.314-16.454,27.353-27.174.393-.249.793-.5,1.192-.747q3.674-2.31,7.635-4.849,1.65-1.061,3.347-2.169,7.416-4.856,14.793-10.2,3.2-2.31,6.379-4.712c28.859-21.788,55.944-48.59,74.13-77.324.353-.563.7-1.121,1.047-1.677.079-.125.157-.256.236-.381l.1-.163a1.052,1.052,0,0,1,1.7-.128l.019.022c.033.033.059.066.091.1.976,1.133,2.593,3.014,4.748,5.471.236.276.485.55.74.839.164.184.334.374.5.57.144.164.288.328.439.491.753.845,1.552,1.75,2.4,2.7.6.675,1.225,1.376,1.88,2.1.412.452.831.917,1.251,1.389l.563.623c.242.262.491.531.733.806q.5.55,1.022,1.121c.4.439.812.885,1.218,1.33.353.387.714.78,1.081,1.173,5.173,5.623,11.23,12.038,17.819,18.7.484.492.976.983,1.467,1.481q3.006,3.018,6.136,6.075,1.493,1.464,3.006,2.923c4.165,4.01,8.454,8,12.783,11.867.544.485,1.081.969,1.624,1.441,3.471,3.066,6.967,6.041,10.445,8.866.517.419,1.035.839,1.545,1.245q1.5,1.2,2.993,2.359c.439.341.871.682,1.31,1.009q2.426,1.858,4.82,3.585a199.075,199.075,0,0,0,24.7,14.941c.727.38,1.454.76,2.174,1.127s1.434.741,2.142,1.1c1.414.728,2.8,1.429,4.165,2.123,1.159.583,2.3,1.167,3.412,1.737,19.423,9.947,31.813,17.752,26.364,39.737" transform="translate(-2.301 -183.662)" fill="#00005e"/>
                </g>
              </g>
            </g>
          </g>
        </g>
        <g id="Group_19" data-name="Group 19" transform="translate(1.412 103.955)">
          <g id="Group_18" data-name="Group 18" clip-path="url(#clip-path-4)">
            <rect id="Rectangle_27" data-name="Rectangle 27" width="288.157" height="187.281" transform="translate(-1.118 0)" fill="url(#linear-gradient)"/>
          </g>
        </g>
        <g id="Group_24" data-name="Group 24">
          <g id="Group_23" data-name="Group 23" clip-path="url(#clip-path)">
            <path id="Path_13" data-name="Path 13" d="M404.307,329.954c-2.1,1.536,12.443,13.106,12.443,20.314s-1.965,16.382-12.443,17.693-12.437,2.244-9.165,6.692,23.442,16.173,32.675,10.638,13.162-27.814,5.959-37.644-28.86-18.138-29.469-17.693" transform="translate(-152.103 -127.47)" fill="#eaf2fe"/>
            <path id="Path_14" data-name="Path 14" d="M116.406,378.079c-2.934,3.486-10.969,8.879-20.058,15.039-17.085,11.579-28.139,11.094-37.136,7.175a44.58,44.58,0,0,1-4.885-2.517h-.007c-9.947-5.832-9.05-15.8-9.05-21.919s-1.31-12.883-5.239-10.917S23.659,368.872,16.737,369s-12.723-4.056-16-13.886S5.977,340.694,8.6,338.729c1.2-.9,10.962-7.569,21.3-14.41,12.2-8.073,25.192-16.382,25.847-15.734a.782.782,0,0,1,.072.079c2.371,2.582-1.428,10.517-5.966,21.546-.052.125-.1.242-.144.367-4.185,10.9,7.3,16.906,8,23.878,1.31,13.106,3.274,28.178,38.636,21.566,10.563-1.972,16.627-2.471,19.39-1.828.026.006.053.013.072.02,2.285.551,2.246,1.907.6,3.866" transform="translate(0 -119.207)" fill="#eaf2fe"/>
            <g id="Group_22" data-name="Group 22" transform="translate(29.863 104.776)" opacity="0.3">
              <g id="Group_21" data-name="Group 21">
                <g id="Group_20" data-name="Group 20" clip-path="url(#clip-path-6)">
                  <path id="Path_15" data-name="Path 15" d="M271.686,271.063c-.013,0-.026.007-.039.007a108.346,108.346,0,0,1-17.891,1.527c-6.542-.066-12.35,4.259-14.787,10.74-1.67,4.443-5.815,9.358-14.642,13.945-15.6,8.112-32.848-2.11-43.725-11.075a15.048,15.048,0,0,0-19.894.616c-6.988,6.3-18.592,13.053-36.548,13.735-17.93.681-25.349-6.808-28.349-14.148A15.468,15.468,0,0,0,80,276.719c-3.6.353-7.531.622-11.493.616-6.43-.013-12.927-.76-18.126-3.093a2.721,2.721,0,0,1-1.539-1.605,3.17,3.17,0,0,1-.144-1.56C60.9,263,73.893,254.694,74.548,255.343a.7.7,0,0,1,.072.079q3.2-2.31,6.379-4.712c26.05-16.061,54.719-46.5,74.13-77.324.353-.557.7-1.121,1.048-1.678.079-.125.157-.255.236-.38a1.173,1.173,0,0,1,1.821-.269c.033.032.059.066.091.1.976,1.134,2.593,3.014,4.748,5.472.236.275.485.55.74.838.164.184.334.374.5.57.144.164.288.328.439.492.753.846,1.552,1.75,2.4,2.7.6.675,1.232,1.376,1.88,2.1.412.452.832.917,1.251,1.389l.563.622c.242.262.491.531.733.806q.511.55,1.022,1.12c.4.439.812.884,1.218,1.33.353.387.714.779,1.081,1.173,5.173,5.622,11.23,12.037,17.819,18.7.484.491.976.989,1.467,1.481,2,2.012,4.054,4.043,6.136,6.075,1,.976,2,1.946,3.006,2.923,4.165,4.01,8.454,8,12.783,11.867.544.485,1.081.963,1.624,1.441,3.471,3.067,6.967,6.042,10.445,8.866.517.42,1.028.839,1.545,1.245q1.5,1.2,2.993,2.36c.432.341.871.674,1.31,1.009q2.426,1.858,4.82,3.584a199.068,199.068,0,0,0,24.7,14.941c.727.38,1.454.76,2.174,1.127s1.434.74,2.142,1.1c1.415.727,2.8,1.429,4.165,2.123a1.321,1.321,0,0,1-.341,2.457" transform="translate(-48.664 -170.741)" fill="#00005e"/>
                </g>
              </g>
            </g>
          </g>
        </g>
        <g id="Group_26" data-name="Group 26" transform="translate(16.734 46.525)">
          <g id="Group_25" data-name="Group 25" clip-path="url(#clip-path-7)">
            <rect id="Rectangle_30" data-name="Rectangle 30" width="292.526" height="174.307" transform="translate(-27.528 0)" fill="url(#linear-gradient-2)"/>
          </g>
        </g>
        <g id="Group_31" data-name="Group 31">
          <g id="Group_30" data-name="Group 30" clip-path="url(#clip-path)">
            <path id="Path_17" data-name="Path 17" d="M87.064,206.023c3.738,3.986-34.071,31.454-34.071,40.628,0,8.106,10.717,18.381,6.28,19.676s-25.795-2.477-30.862-7.88c-4.917-5.242-5.25-14.455,5.531-20.314,44.609-24.245,46.362-39.317,53.122-32.109" transform="translate(-9.707 -78.898)" fill="#fafcff"/>
            <g id="Group_29" data-name="Group 29" transform="translate(69.97 46.525)" opacity="0.3">
              <g id="Group_28" data-name="Group 28">
                <g id="Group_27" data-name="Group 27" clip-path="url(#clip-path-9)">
                  <path id="Path_18" data-name="Path 18" d="M267.273,158.213a6.047,6.047,0,0,1-4.5,2.628c-12.943,1.173-25.424-5.039-32.479-9.462a6.087,6.087,0,0,0-8.567,2.353c-3.558,6.219-11.627,15.137-29.3,18.413-18.259,3.388-28.57-6.893-33.579-14.6a6.035,6.035,0,0,0-8.941-1.605c-8.131,6.585-20.7,6.061-32.233,3.519a6.072,6.072,0,0,1-3.651-2.385c42.22-36.054,83.321-81.256,83.321-81.256s16.808,45.045,69.929,82.4" transform="translate(-114.022 -75.817)" fill="#00005e"/>
                </g>
              </g>
            </g>
          </g>
        </g>
        <g id="Group_33" data-name="Group 33" transform="translate(47.815 1.395)">
          <g id="Group_32" data-name="Group 32" clip-path="url(#clip-path-10)">
            <rect id="Rectangle_33" data-name="Rectangle 33" width="234.048" height="135.56" transform="translate(-23.484 -0.001)" fill="url(#linear-gradient-3)"/>
          </g>
        </g>
        <g id="Group_35" data-name="Group 35">
          <g id="Group_34" data-name="Group 34" clip-path="url(#clip-path)">
            <path id="Path_21" data-name="Path 21" d="M369.409,237.924c-19.3-11.32-36.873-17.693-31.957-5.9s.614,19.659-10.447,19.659-22.738,4.587-22.738,11.8-7.989,13.106-15.978,13.761-27.509,3.038-13.447,12.987,39.873,13.225,48.476-3.813-4.919-17.058,22.737-16.392,35.031-8.509,33.8-15.062,1.843-9.829-10.447-17.037" transform="translate(-104.27 -87.208)" fill="#eaf2fe"/>
          </g>
        </g>
      </g>
    </g>
    <g id="Group_70" data-name="Group 70" transform="translate(1398.329 3024.5)">
      <g id="Group_36-2" data-name="Group 36" clip-path="url(#clip-path-12)">
        <g id="Group_17-2" data-name="Group 17">
          <g id="Group_16-2" data-name="Group 16" clip-path="url(#clip-path-12)">
            <g id="Group_15-2" data-name="Group 15" transform="translate(0.856 87.317)" opacity="0.3">
              <g id="Group_14-2" data-name="Group 14">
                <g id="Group_13-2" data-name="Group 13" clip-path="url(#clip-path-14)">
                  <path id="Path_11-2" data-name="Path 11" d="M3.3,291.673c4.827,19.515,22.243,9.489,33.661.274a2.729,2.729,0,0,1,4.329,2.906c-2.384,7.684-2.484,16.942,7.919,21.513,12.4,5.444,24.034-4.032,30.914-11.737a2.914,2.914,0,0,1,5.08,1.788c.387,7.311,4.065,16.274,19.032,18.558,14.428,2.2,21.782-6.924,25.439-15.226a6.3,6.3,0,0,1,10.022-2.095c7.981,7.278,21.613,16.622,34.922,13.289a20.024,20.024,0,0,0,2.06-.63,16.075,16.075,0,0,0,3.785-1.95h0c8.221-5.767,6.974-17.575,5.215-24.845a2.853,2.853,0,0,1,3.927-3.293c10,4.462,29.579,10.888,31.78-5.932.934-7.128-7.99-12.747-21.191-21.053-.3-.193-.614-.386-.924-.579q-2.846-1.789-5.915-3.757-1.279-.822-2.593-1.68-5.746-3.762-11.46-7.9-2.482-1.79-4.942-3.65c-22.359-16.88-43.342-37.644-57.431-59.906-.274-.436-.542-.868-.812-1.3-.061-.1-.122-.2-.183-.295l-.077-.126a.815.815,0,0,0-1.318-.1l-.015.017c-.025.026-.046.051-.071.077-.756.878-2.009,2.335-3.678,4.239-.183.213-.376.426-.573.65-.127.142-.259.29-.386.442-.112.127-.223.254-.34.381-.583.655-1.2,1.355-1.862,2.091-.467.523-.949,1.066-1.456,1.624-.319.35-.644.711-.969,1.076l-.436.483c-.188.2-.38.411-.568.624l-.792.868c-.309.34-.629.686-.944,1.031-.274.3-.553.6-.837.909-4.008,4.356-8.7,9.326-13.8,14.484-.375.381-.756.762-1.136,1.147q-2.329,2.338-4.754,4.706-1.157,1.135-2.329,2.264c-3.227,3.107-6.55,6.2-9.9,9.194-.421.376-.837.751-1.258,1.117-2.689,2.376-5.4,4.681-8.092,6.869-.4.325-.8.65-1.2.965q-1.165.929-2.319,1.828c-.34.264-.675.528-1.015.782q-1.88,1.44-3.734,2.777a154.236,154.236,0,0,1-19.137,11.575c-.563.294-1.126.589-1.684.873s-1.111.574-1.659.853c-1.1.564-2.171,1.107-3.227,1.645-.9.452-1.781.9-2.643,1.345C8.678,268.595-.921,274.641,3.3,291.673" transform="translate(-2.301 -183.662)" fill="#00005e"/>
                </g>
              </g>
            </g>
          </g>
        </g>
        <g id="Group_19-2" data-name="Group 19" transform="translate(0.856 80.538)">
          <g id="Group_18-2" data-name="Group 18" clip-path="url(#clip-path-15)">
            <rect id="Rectangle_27-2" data-name="Rectangle 27" width="223.246" height="145.094" transform="translate(-3.222 0)" fill="url(#linear-gradient-4)"/>
          </g>
        </g>
        <g id="Group_24-2" data-name="Group 24">
          <g id="Group_23-2" data-name="Group 23" clip-path="url(#clip-path-12)">
            <path id="Path_13-2" data-name="Path 13" d="M419.411,329.95c1.626,1.19-9.64,10.154-9.64,15.738s1.522,12.692,9.64,13.707,9.635,1.738,7.1,5.185-18.162,12.53-25.314,8.242-10.2-21.549-4.617-29.164,22.359-14.052,22.831-13.707" transform="translate(-393.695 -173.078)" fill="#eaf2fe"/>
            <path id="Path_14-2" data-name="Path 14" d="M.918,362.416c2.273,2.7,8.5,6.879,15.54,11.651,13.237,8.971,21.8,8.6,28.771,5.559a34.544,34.544,0,0,0,3.785-1.95h.005c7.707-4.518,7.011-12.24,7.011-16.982s1.015-9.981,4.059-8.458,12.684,3.046,18.046,3.143,9.857-3.143,12.394-10.758-4.059-11.169-6.088-12.692c-.928-.7-8.493-5.864-16.5-11.164-9.452-6.255-19.517-12.692-20.025-12.189a.6.6,0,0,0-.056.061c-1.837,2,1.106,8.148,4.622,16.693.04.1.076.188.112.284,3.242,8.448-5.657,13.1-6.2,18.5-1.015,10.153-2.537,21.83-29.933,16.708-8.183-1.528-12.882-1.914-15.022-1.416-.02,0-.041.01-.056.015-1.77.427-1.74,1.477-.462,3" transform="translate(130.005 -161.859)" fill="#eaf2fe"/>
            <g id="Group_22-2" data-name="Group 22" transform="translate(24.383 81.174)" opacity="0.3">
              <g id="Group_21-2" data-name="Group 21">
                <g id="Group_20-2" data-name="Group 20" clip-path="url(#clip-path-17)">
                  <path id="Path_15-2" data-name="Path 15" d="M49.468,248.464c.01,0,.02.005.03.005a83.945,83.945,0,0,0,13.861,1.183,12.3,12.3,0,0,1,11.456,8.321c1.294,3.442,4.505,7.25,11.344,10.8,12.085,6.285,25.448-1.635,33.876-8.58a11.658,11.658,0,0,1,15.413.477c5.414,4.879,14.4,10.113,28.315,10.641,13.891.528,19.639-5.275,21.963-10.961a11.984,11.984,0,0,1,12.247-7.508c2.786.274,5.835.482,8.9.477,4.982-.01,10.015-.589,14.043-2.4a2.108,2.108,0,0,0,1.192-1.244,2.456,2.456,0,0,0,.112-1.209c-9.452-6.254-19.517-12.692-20.025-12.189a.543.543,0,0,0-.056.061q-2.482-1.79-4.942-3.65c-20.182-12.443-42.393-36.025-57.431-59.906-.274-.432-.543-.868-.812-1.3-.061-.1-.122-.2-.183-.294a.909.909,0,0,0-1.411-.208c-.025.025-.046.051-.071.076-.756.879-2.009,2.335-3.678,4.239-.183.213-.376.426-.573.649-.127.143-.259.289-.386.442-.112.127-.223.254-.34.381-.583.655-1.2,1.356-1.862,2.092-.467.523-.954,1.066-1.456,1.625-.32.35-.644.711-.969,1.076l-.436.482c-.188.2-.38.411-.568.625q-.4.426-.792.868c-.309.34-.629.685-.944,1.031-.274.3-.553.6-.837.908-4.008,4.356-8.7,9.326-13.8,14.484-.375.38-.756.766-1.136,1.147-1.553,1.558-3.141,3.133-4.754,4.706-.771.756-1.548,1.508-2.329,2.264-3.227,3.107-6.55,6.2-9.9,9.194-.421.376-.837.746-1.258,1.117-2.689,2.376-5.4,4.681-8.092,6.869-.4.325-.8.65-1.2.965q-1.165.929-2.319,1.828c-.335.264-.675.522-1.015.782q-1.88,1.439-3.734,2.777A154.22,154.22,0,0,1,55.774,243.19c-.563.294-1.126.589-1.684.873s-1.111.573-1.659.853c-1.1.563-2.171,1.107-3.227,1.645a1.024,1.024,0,0,0,.264,1.9" transform="translate(-48.664 -170.741)" fill="#00005e"/>
                </g>
              </g>
            </g>
          </g>
        </g>
        <g id="Group_26-2" data-name="Group 26" transform="translate(9.474 36.045)">
          <g id="Group_25-2" data-name="Group 25" clip-path="url(#clip-path-18)">
            <rect id="Rectangle_30-2" data-name="Rectangle 30" width="226.631" height="135.042" transform="translate(-6.635 0)" fill="url(#linear-gradient-5)"/>
          </g>
        </g>
        <g id="Group_31-2" data-name="Group 31">
          <g id="Group_30-2" data-name="Group 30" clip-path="url(#clip-path-12)">
            <path id="Path_17-2" data-name="Path 17" d="M25.326,205.616c-2.9,3.088,26.4,24.369,26.4,31.476,0,6.28-8.3,14.241-4.865,15.243s19.984-1.919,23.91-6.1c3.809-4.062,4.068-11.2-4.285-15.738-34.56-18.784-35.918-30.46-41.156-24.876" transform="translate(135.85 -107.127)" fill="#fafcff"/>
            <g id="Group_29-2" data-name="Group 29" transform="translate(48.17 36.045)" opacity="0.3">
              <g id="Group_28-2" data-name="Group 28">
                <g id="Group_27-2" data-name="Group 27" clip-path="url(#clip-path-20)">
                  <path id="Path_18-2" data-name="Path 18" d="M114.022,139.652a4.685,4.685,0,0,0,3.485,2.036c10.027.909,19.7-3.9,25.163-7.331a4.716,4.716,0,0,1,6.637,1.823c2.756,4.818,9.008,11.727,22.7,14.265,14.146,2.625,22.135-5.34,26.015-11.311a4.676,4.676,0,0,1,6.927-1.244c6.3,5.1,16.036,4.7,24.972,2.726a4.7,4.7,0,0,0,2.828-1.848C200.042,110.836,168.2,75.817,168.2,75.817s-13.022,34.9-54.177,63.835" transform="translate(-114.022 -75.817)" fill="#00005e"/>
                </g>
              </g>
            </g>
          </g>
        </g>
        <g id="Group_33-2" data-name="Group 33" transform="translate(33.788 1.081)">
          <g id="Group_32-2" data-name="Group 32" clip-path="url(#clip-path-21)">
            <rect id="Rectangle_33-2" data-name="Rectangle 33" width="181.326" height="105.024" transform="translate(-12.856 0)" fill="url(#linear-gradient-6)"/>
          </g>
        </g>
        <g id="Group_35-2" data-name="Group 35">
          <g id="Group_34-2" data-name="Group 34" clip-path="url(#clip-path-12)">
            <path id="Path_21-2" data-name="Path 21" d="M278.079,235.176c14.955-8.77,28.567-13.707,24.758-4.569s-.476,15.231,8.094,15.231,17.616,3.554,17.616,9.138,6.189,10.154,12.379,10.661,21.312,2.354,10.418,10.061-30.891,10.246-37.556-2.954,3.811-13.216-17.615-12.7-27.14-6.592-26.188-11.669-1.428-7.615,8.094-13.2" transform="translate(-262.385 -118.41)" fill="#eaf2fe"/>
          </g>
        </g>
      </g>
    </g>
    <g id="Group_95" data-name="Group 95" transform="translate(1532.76 3101.542)">
      <g id="Group_76" data-name="Group 76" transform="translate(10.136 38.665)">
        <g id="Group_75" data-name="Group 75" clip-path="url(#clip-path-23)">
          <rect id="Rectangle_82" data-name="Rectangle 82" width="135.734" height="184.211" transform="translate(0 0)" fill="url(#linear-gradient-7)"/>
        </g>
      </g>
      <g id="Group_78" data-name="Group 78" transform="translate(144.83 110.058)">
        <g id="Group_77" data-name="Group 77" clip-path="url(#clip-path-24)">
          <rect id="Rectangle_83" data-name="Rectangle 83" width="118.706" height="112.819" transform="translate(0 0)" fill="url(#linear-gradient-8)"/>
        </g>
      </g>
      <path id="Path_80" data-name="Path 80" d="M54.791,25.213l73.2,77H254.427l-73.2-77Z" transform="translate(17.042 7.842)" fill="#f2f3f4"/>
      <path id="Path_81" data-name="Path 81" d="M0,102.282H11.017L78,30.89,72.114,25Z" transform="translate(0 7.776)" fill="#dae8f2"/>
      <g id="Group_80" data-name="Group 80" transform="translate(166.847 16.784)">
        <g id="Group_79" data-name="Group 79" clip-path="url(#clip-path-25)">
          <rect id="Rectangle_85" data-name="Rectangle 85" width="27.116" height="68.433" fill="url(#linear-gradient-9)"/>
        </g>
      </g>
      <g id="Group_82" data-name="Group 82" transform="translate(192.723 17.043)">
        <g id="Group_81" data-name="Group 81" transform="translate(0 0)" clip-path="url(#clip-path-26)">
          <rect id="Rectangle_87" data-name="Rectangle 87" width="7.866" height="68.174" transform="translate(0)" fill="url(#linear-gradient-10)"/>
        </g>
      </g>
      <g id="Group_84" data-name="Group 84" transform="translate(163.88)">
        <g id="Group_83" data-name="Group 83" clip-path="url(#clip-path-27)">
          <rect id="Rectangle_89" data-name="Rectangle 89" width="28.843" height="18.355" transform="translate(0)" fill="url(#linear-gradient-11)"/>
        </g>
      </g>
      <g id="Group_86" data-name="Group 86" transform="translate(192.289)">
        <g id="Group_85" data-name="Group 85" clip-path="url(#clip-path-28)">
          <rect id="Rectangle_91" data-name="Rectangle 91" width="13.544" height="18.355" fill="url(#linear-gradient-12)"/>
        </g>
      </g>
      <g id="Group_88" data-name="Group 88" transform="translate(49.764 136.286)">
        <g id="Group_87" data-name="Group 87" clip-path="url(#clip-path-29)">
          <rect id="Rectangle_93" data-name="Rectangle 93" width="48.769" height="86.59" transform="translate(0 0)" fill="url(#linear-gradient-13)"/>
        </g>
      </g>
      <g id="Group_90" data-name="Group 90" transform="translate(161.237 148.23)">
        <g id="Group_89" data-name="Group 89" clip-path="url(#clip-path-30)">
          <rect id="Rectangle_95" data-name="Rectangle 95" width="36.826" height="36.826" fill="url(#linear-gradient-14)"/>
        </g>
      </g>
      <g id="Group_92" data-name="Group 92" transform="translate(214.983 148.23)">
        <g id="Group_91" data-name="Group 91" clip-path="url(#clip-path-30)">
          <rect id="Rectangle_97" data-name="Rectangle 97" width="36.826" height="36.826" transform="translate(0)" fill="url(#linear-gradient-15)"/>
        </g>
      </g>
      <g id="Group_94" data-name="Group 94" transform="translate(62.079 71.592)">
        <g id="Group_93" data-name="Group 93" clip-path="url(#clip-path-32)">
          <rect id="Rectangle_99" data-name="Rectangle 99" width="31.849" height="31.849" transform="translate(0 0)" fill="url(#linear-gradient-16)"/>
        </g>
      </g>
    </g>
    <path id="Path_83" data-name="Path 83" d="M3624.467,2528.6c57.88-8.749,89.682-11.666,134.158-5.833s68.537,0,113.014-16.041,80.2,13.124,44.476,26.249c-19.9,7.31-66.853-1.835-108.454,4.924-32.844,5.336-62.623,12.625-87.494,8.749C3664.025,2537.894,3624.467,2528.6,3624.467,2528.6Z" transform="translate(-2115.584 799.536)" fill="#b0b0d4"/>
    <g id="Mask_Group_11" data-name="Mask Group 11" clip-path="url(#clip-path-33)">
      <g id="Group_68" data-name="Group 68" transform="translate(1681.625 2895.513)">
        <g id="Group_36-3" data-name="Group 36" clip-path="url(#clip-path-34)">
          <g id="Group_17-3" data-name="Group 17">
            <g id="Group_16-3" data-name="Group 16" clip-path="url(#clip-path-34)">
              <g id="Group_15-3" data-name="Group 15" transform="translate(1.316 134.321)" opacity="0.3">
                <g id="Group_14-3" data-name="Group 14">
                  <g id="Group_13-3" data-name="Group 13" clip-path="url(#clip-path-36)">
                    <path id="Path_11-3" data-name="Path 11" d="M3.838,349.818c7.426,30.02,34.217,14.6,51.782.422a4.2,4.2,0,0,1,6.66,4.471c-3.668,11.821-3.821,26.062,12.182,33.093,19.073,8.374,36.972-6.2,47.555-18.055a4.483,4.483,0,0,1,7.815,2.751c.6,11.247,6.253,25.034,29.278,28.549,22.195,3.389,33.507-10.651,39.134-23.422A9.688,9.688,0,0,1,213.66,374.4c12.278,11.2,33.248,25.57,53.722,20.443a30.807,30.807,0,0,0,3.169-.968,24.728,24.728,0,0,0,5.822-3h.007c12.646-8.871,10.729-27.036,8.023-38.219a4.389,4.389,0,0,1,6.04-5.066c15.39,6.864,45.5,16.749,48.888-9.126,1.436-10.964-12.292-19.61-32.6-32.386-.469-.3-.945-.594-1.421-.891q-4.378-2.752-9.1-5.779-1.967-1.265-3.989-2.585-8.839-5.788-17.63-12.152-3.818-2.754-7.6-5.615c-34.395-25.967-66.674-57.909-88.348-92.154-.421-.671-.834-1.335-1.248-2-.094-.149-.187-.305-.281-.454l-.119-.194a1.253,1.253,0,0,0-2.028-.152l-.023.026c-.039.04-.07.078-.109.118-1.163,1.351-3.091,3.592-5.658,6.521-.281.328-.578.656-.882,1-.2.219-.4.445-.593.679-.172.2-.343.391-.523.586-.9,1.007-1.85,2.085-2.864,3.217-.718.8-1.46,1.64-2.24,2.5-.491.539-.991,1.093-1.49,1.656l-.671.742c-.289.312-.585.633-.874.96q-.6.656-1.218,1.335c-.476.524-.968,1.055-1.452,1.586-.421.461-.851.93-1.288,1.4-6.165,6.7-13.384,14.347-21.236,22.281-.577.586-1.163,1.172-1.748,1.765q-3.583,3.6-7.313,7.24-1.779,1.745-3.582,3.483c-4.964,4.779-10.076,9.535-15.235,14.144-.648.578-1.288,1.155-1.936,1.718-4.137,3.655-8.3,7.2-12.448,10.567-.617.5-1.233,1-1.842,1.484q-1.791,1.43-3.567,2.811c-.523.406-1.038.812-1.561,1.2q-2.892,2.215-5.745,4.273a237.259,237.259,0,0,1-29.438,17.806c-.867.453-1.733.905-2.591,1.343s-1.709.883-2.552,1.312c-1.686.867-3.34,1.7-4.964,2.53-1.381.695-2.74,1.39-4.066,2.07C12.111,314.315-2.655,323.617,3.838,349.818" transform="translate(-2.301 -183.662)" fill="#00005e"/>
                  </g>
                </g>
              </g>
            </g>
          </g>
          <g id="Group_19-3" data-name="Group 19" transform="translate(1.317 123.893)">
            <g id="Group_18-3" data-name="Group 18" clip-path="url(#clip-path-37)">
              <rect id="Rectangle_27-3" data-name="Rectangle 27" width="343.424" height="223.201" transform="translate(-4.957 0)" fill="url(#linear-gradient-4)"/>
            </g>
          </g>
          <g id="Group_24-3" data-name="Group 24">
            <g id="Group_23-3" data-name="Group 23" clip-path="url(#clip-path-34)">
              <path id="Path_13-3" data-name="Path 13" d="M433.254,329.957c2.5,1.831-14.829,15.619-14.829,24.21s2.342,19.524,14.829,21.086,14.822,2.674,10.923,7.975-27.938,19.275-38.941,12.679-15.687-33.149-7.1-44.864,34.4-21.617,35.121-21.086" transform="translate(-393.695 -88.638)" fill="#eaf2fe"/>
              <path id="Path_14-3" data-name="Path 14" d="M1.412,391.414c3.5,4.155,13.073,10.582,23.906,17.923,20.362,13.8,33.536,13.222,44.259,8.552a53.129,53.129,0,0,0,5.822-3h.008c11.855-6.95,10.786-18.829,10.786-26.123s1.561-15.354,6.244-13.011,19.512,4.686,27.761,4.834,15.164-4.834,19.066-16.549-6.244-17.181-9.366-19.524c-1.428-1.078-13.065-9.02-25.388-17.173-14.54-9.622-30.024-19.524-30.8-18.751a.937.937,0,0,0-.086.094c-2.825,3.077,1.7,12.535,7.11,25.678.062.149.117.289.172.437,4.987,13-8.7,20.149-9.538,28.458-1.561,15.619-3.9,33.582-46.046,25.7-12.589-2.351-19.816-2.944-23.109-2.179-.031.007-.063.015-.086.023-2.724.656-2.677,2.272-.71,4.607" transform="translate(199.989 -82.892)" fill="#eaf2fe"/>
              <g id="Group_22-3" data-name="Group 22" transform="translate(37.509 124.871)" opacity="0.3">
                <g id="Group_21-3" data-name="Group 21">
                  <g id="Group_20-3" data-name="Group 20" clip-path="url(#clip-path-39)">
                    <path id="Path_15-3" data-name="Path 15" d="M49.9,290.3c.015,0,.031.008.047.008a129.129,129.129,0,0,0,21.322,1.82c7.8-.078,14.719,5.076,17.623,12.8,1.99,5.295,6.93,11.152,17.451,16.619,18.591,9.668,39.148-2.515,52.111-13.2a17.934,17.934,0,0,1,23.71.734c8.328,7.505,22.158,15.556,43.558,16.369,21.369.812,30.211-8.114,33.786-16.861a18.435,18.435,0,0,1,18.84-11.55c4.285.421,8.976.742,13.7.734,7.664-.015,15.406-.905,21.6-3.686a3.242,3.242,0,0,0,1.834-1.913,3.777,3.777,0,0,0,.172-1.859c-14.54-9.621-30.024-19.524-30.8-18.751a.831.831,0,0,0-.086.094q-3.818-2.753-7.6-5.615c-31.047-19.142-65.214-55.418-88.348-92.154-.421-.664-.835-1.335-1.248-2-.094-.148-.187-.3-.281-.453a1.4,1.4,0,0,0-2.17-.32c-.039.039-.07.078-.109.117-1.163,1.352-3.091,3.592-5.658,6.521-.281.328-.578.656-.882,1-.2.219-.4.445-.593.679-.172.2-.344.391-.523.586-.9,1.008-1.85,2.086-2.864,3.218-.718.8-1.468,1.64-2.24,2.5-.491.539-.991,1.093-1.49,1.656l-.671.742c-.289.312-.585.633-.874.961q-.609.656-1.218,1.335c-.476.523-.968,1.054-1.452,1.586-.421.461-.851.929-1.288,1.4-6.165,6.7-13.384,14.346-21.236,22.281-.577.585-1.163,1.179-1.748,1.765-2.389,2.4-4.831,4.819-7.313,7.24-1.186,1.164-2.381,2.319-3.582,3.483-4.964,4.779-10.076,9.535-15.235,14.143-.648.578-1.288,1.148-1.936,1.718-4.137,3.655-8.3,7.2-12.448,10.567-.617.5-1.225,1-1.842,1.484q-1.791,1.43-3.567,2.812c-.515.406-1.038.8-1.561,1.2q-2.892,2.214-5.745,4.272A237.253,237.253,0,0,1,59.6,282.19c-.867.453-1.733.906-2.591,1.344s-1.709.882-2.552,1.312c-1.686.867-3.34,1.7-4.964,2.53A1.575,1.575,0,0,0,49.9,290.3" transform="translate(-48.664 -170.741)" fill="#00005e"/>
                  </g>
                </g>
              </g>
            </g>
          </g>
          <g id="Group_26-3" data-name="Group 26" transform="translate(14.574 55.449)">
            <g id="Group_25-3" data-name="Group 25" clip-path="url(#clip-path-40)">
              <rect id="Rectangle_30-3" data-name="Rectangle 30" width="348.631" height="207.738" transform="translate(-10.207 0)" fill="url(#linear-gradient-5)"/>
            </g>
          </g>
          <g id="Group_31-3" data-name="Group 31">
            <g id="Group_30-3" data-name="Group 30" clip-path="url(#clip-path-34)">
              <path id="Path_17-3" data-name="Path 17" d="M25.434,206.37c-4.455,4.75,40.605,37.487,40.605,48.42,0,9.66-12.773,21.907-7.485,23.449s30.742-2.952,36.782-9.391c5.86-6.248,6.257-17.227-6.592-24.211-53.165-28.9-55.254-46.857-63.311-38.267" transform="translate(222.506 -54.862)" fill="#fafcff"/>
              <g id="Group_29-3" data-name="Group 29" transform="translate(74.101 55.449)" opacity="0.3">
                <g id="Group_28-3" data-name="Group 28">
                  <g id="Group_27-3" data-name="Group 27" clip-path="url(#clip-path-42)">
                    <path id="Path_18-3" data-name="Path 18" d="M114.022,174.016a7.207,7.207,0,0,0,5.362,3.132c15.425,1.4,30.3-6.006,38.708-11.277a7.255,7.255,0,0,1,10.21,2.8c4.24,7.411,13.857,18.04,34.921,21.945,21.76,4.038,34.05-8.215,40.019-17.4a7.193,7.193,0,0,1,10.656-1.913c9.69,7.848,24.668,7.223,38.416,4.194a7.237,7.237,0,0,0,4.351-2.843c-50.318-42.969-99.3-96.84-99.3-96.84s-20.032,53.684-83.341,98.2" transform="translate(-114.022 -75.817)" fill="#00005e"/>
                  </g>
                </g>
              </g>
            </g>
          </g>
          <g id="Group_33-3" data-name="Group 33" transform="translate(51.976 1.663)">
            <g id="Group_32-3" data-name="Group 32" clip-path="url(#clip-path-43)">
              <rect id="Rectangle_33-3" data-name="Rectangle 33" width="278.938" height="161.56" transform="translate(-19.777 -0.001)" fill="url(#linear-gradient-6)"/>
            </g>
          </g>
          <g id="Group_35-3" data-name="Group 35">
            <g id="Group_34-3" data-name="Group 34" clip-path="url(#clip-path-34)">
              <path id="Path_21-3" data-name="Path 21" d="M282.49,240.264c23.005-13.491,43.945-21.086,38.086-7.029s-.732,23.429,12.451,23.429,27.1,5.467,27.1,14.057,9.521,15.619,19.043,16.4,32.785,3.621,16.026,15.478-47.52,15.761-57.774-4.544,5.863-20.33-27.1-19.536-41.75-10.141-40.285-17.95-2.2-11.715,12.451-20.305" transform="translate(-258.347 -60.641)" fill="#eaf2fe"/>
            </g>
          </g>
        </g>
      </g>
    </g>
  </g>
</svg>
