<?xml version="1.0" encoding="utf-8"?>
<!-- Generator: Adobe Illustrator 25.4.6, SVG Export Plug-In . SVG Version: 6.00 Build 0)  -->
<svg version="1.1" id="Layer_1" xmlns="http://www.w3.org/2000/svg" xmlns:xlink="http://www.w3.org/1999/xlink" x="0px" y="0px"
	 viewBox="0 0 279.9 191.6" style="enable-background:new 0 0 279.9 191.6;" xml:space="preserve">
<style type="text/css">
	.st0{fill:#3B3B3B;}
	.st1{fill:#59D1B4;}
</style>
<path class="st0" d="M273.4,73h-35.7c-7.2-0.1-13.3-5.5-14.1-12.7C220.1,31,193.5,10,164.2,13.5c-26.9,3.2-47.2,26-47.2,53.1
	c0,3.6-2.9,6.5-6.5,6.5s-6.5-2.9-6.5-6.5c0-36.7,29.8-66.5,66.6-66.4c33.7,0,62,25.2,66,58.7c0,0.7,0.5,1.2,1.2,1.3h35.7
	c3.6,0,6.5,2.9,6.5,6.5C279.9,70.1,276.9,73,273.4,73L273.4,73z"/>
<path class="st0" d="M109.4,191.6c-30.8,0.1-57.5-21-64.6-50.9c-1.4-5.4-6.4-9.1-11.9-9.1H6.5c-3.6,0-6.5-2.9-6.5-6.5
	c0-3.6,2.9-6.5,6.5-6.5h26.4c11.6-0.1,21.8,7.7,24.6,19c6.8,28.8,35.7,46.5,64.4,39.7c24.2-5.7,41.2-27.4,41.1-52.2
	c0-3.6,2.9-6.5,6.5-6.5s6.5,2.9,6.5,6.5C176,161.9,146.2,191.6,109.4,191.6z"/>
<circle class="st1" cx="169.4" cy="67.4" r="20.7"/>
</svg>
