<svg xmlns="http://www.w3.org/2000/svg" xmlns:xlink="http://www.w3.org/1999/xlink" width="1927.203" height="788.839" viewBox="0 0 1927.203 788.839">
  <defs>
    <clipPath id="clip-path">
      <rect id="Rectangle_36" data-name="Rectangle 36" width="85.088" height="98.306" fill="none"/>
    </clipPath>
    <clipPath id="clip-path-2">
      <rect id="Rectangle_35" data-name="Rectangle 35" width="313.229" height="324.359" fill="none"/>
    </clipPath>
    <clipPath id="clip-path-4">
      <rect id="Rectangle_25" data-name="Rectangle 25" width="310.466" height="200.664" fill="none"/>
    </clipPath>
    <clipPath id="clip-path-5">
      <path id="Path_12" data-name="Path 12" d="M151.782,170.949c-.086.137-.173.281-.259.417-.381.612-.762,1.223-1.15,1.841-19.958,31.537-49.685,60.951-81.359,84.865q-3.482,2.632-7,5.171-8.075,5.857-16.236,11.191-1.865,1.218-3.673,2.38-4.345,2.794-8.38,5.323c-.438.273-.877.546-1.308.819C13.716,294.722,1.074,302.684,2.4,312.781c4.19,32.011,52.8,4.588,53.279,4.322-.23.583-12.664,31.766,4.694,43.943h.007a22.809,22.809,0,0,0,5.362,2.761,28.43,28.43,0,0,0,2.918.892c28.461,7.127,57.5-27.559,59.122-29.537.05-.058.072-.087.072-.087s0,.036.007.108c.044.418.2,1.978.654,4.244,2.056,10.4,10.134,35.521,39.853,30.983,36.842-5.624,25.4-39.808,25.112-40.656.546.885,25.371,40.52,52.841,28.459,27.217-11.96,3.687-46.568,2.738-47.949,1.394,1.468,52.014,54.544,62.3,12.967,5.98-24.129-7.618-32.694-28.935-43.612-1.222-.626-2.472-1.265-3.744-1.906-1.5-.762-3.019-1.532-4.572-2.33q-1.164-.593-2.35-1.208c-.79-.4-1.588-.82-2.386-1.237a218.41,218.41,0,0,1-27.11-16.4q-2.631-1.9-5.29-3.933c-.481-.36-.956-.733-1.437-1.108q-1.638-1.273-3.285-2.59c-.56-.445-1.128-.906-1.7-1.366-3.816-3.1-7.654-6.365-11.464-9.731-.6-.518-1.186-1.051-1.783-1.583-4.75-4.243-9.458-8.623-14.029-13.024q-1.66-1.6-3.3-3.208-3.428-3.344-6.734-6.667c-.539-.546-1.078-1.086-1.61-1.625-7.23-7.307-13.878-14.348-19.556-20.519-.4-.432-.8-.863-1.185-1.287-.447-.489-.9-.978-1.338-1.46q-.572-.625-1.121-1.23c-.265-.3-.539-.6-.8-.884l-.618-.684c-.459-.518-.919-1.028-1.372-1.524-.719-.791-1.4-1.561-2.063-2.3-.935-1.043-1.811-2.035-2.638-2.963-.165-.18-.323-.36-.482-.539-.18-.215-.366-.424-.546-.626-.281-.317-.554-.619-.812-.921-2.365-2.7-4.14-4.761-5.212-6-.036-.036-.064-.072-.1-.108-.69-.82-1.057-1.252-1.057-1.252-.308.519-.625,1.028-.941,1.546" transform="translate(-2.301 -169.403)" fill="none"/>
    </clipPath>
    <linearGradient id="linear-gradient" x1="-0.001" y1="1.023" x2="0.001" y2="1.023" gradientUnits="objectBoundingBox">
      <stop offset="0" stop-color="#fff"/>
      <stop offset="1" stop-color="#7da1e2"/>
    </linearGradient>
    <clipPath id="clip-path-7">
      <rect id="Rectangle_28" data-name="Rectangle 28" width="245.911" height="142.524" fill="none"/>
    </clipPath>
    <clipPath id="clip-path-8">
      <path id="Path_16" data-name="Path 16" d="M85.7,165q-4.846,4.132-9.7,8.106a348.16,348.16,0,0,1-35.1,25.7c-43.842,27.329,30.351,38.836,50.586,27.329,0,0-4.721,31.644,33.05,30.206S174.445,229,174.445,229s32.376,38.118,60.029,23.734c26.778-13.931,14.346-30.559,13.531-31.594.593.611,8.08,7.645,38.4,2.827,31.7-5.035,25.745-25.862,6.07-35.24a268.441,268.441,0,0,1-27.991-15.42q-5.5-3.473-10.6-7.062c-58.3-40.994-76.75-90.432-76.75-90.432S132.034,125.427,85.7,165" transform="translate(-27.27 -75.817)" fill="none"/>
    </clipPath>
    <linearGradient id="linear-gradient-2" x1="0.037" y1="1.428" x2="0.039" y2="1.428" xlink:href="#linear-gradient"/>
    <clipPath id="clip-path-10">
      <rect id="Rectangle_31" data-name="Rectangle 31" width="168.196" height="106.451" fill="none"/>
    </clipPath>
    <clipPath id="clip-path-11">
      <path id="Path_19" data-name="Path 19" d="M168.658,9.081C154.394,30.458,127.8,65.088,86.481,99.546c-34.337,28.636,44.473,45.754,62.684,12.671,0,0,8.094,38.837,39.12,33.083s31.026-32.363,31.026-32.363,37.1,32.363,63.4,13.665-17.46-40.809-46.539-63.288c-15.779-12.2-31.788-35.957-42.361-53.582a14.666,14.666,0,0,0-25.154-.649" transform="translate(-77.918 -2.274)" fill="none"/>
    </clipPath>
    <linearGradient id="linear-gradient-3" x1="-0.104" y1="2.17" x2="-0.101" y2="2.17" xlink:href="#linear-gradient"/>
    <clipPath id="clip-path-13">
      <rect id="Rectangle_36-2" data-name="Rectangle 36" width="66.597" height="76.942" fill="none"/>
    </clipPath>
  </defs>
  <g id="Group_159" data-name="Group 159" transform="translate(7.203 -3430.162)">
    <path id="Path_75" data-name="Path 75" d="M1126.721,1678.751c136.143-1.716,244.352,75.582,374.258,118.1s36.583,92.573,366.925,99.47,1154.133,204.028,1154.133,204.028-1702.677,212.7-1895.316,141.339Z" transform="translate(-1126.721 1864.433)" fill="#ebebff"/>
    <path id="Path_40" data-name="Path 40" d="M2743.465,1678.759c-254.495-2.333-378.121,134.891-620.958,192.7s-286.989-64.234-596.055-32.117-658.078,111.7-631.587,185.57,1848.6,0,1848.6,0Z" transform="translate(-823.465 2155.688)" fill="#cbdff8"/>
    <path id="Path_41" data-name="Path 41" d="M-2.967,4860.756c152.2-35.2,186.944,39.221,303.524,115.727s208.709-40.856,375.539,85.447,515.651,51.727,649.84,53.852,598.3-90.5,598.3-90.5v174.673H-2.967Z" transform="translate(-4.236 -980.955)" fill="#474670"/>
    <g id="Group_96" data-name="Group 96" transform="translate(452.912 3656.216)">
      <g id="Group_39" data-name="Group 39" transform="translate(0)" clip-path="url(#clip-path)">
        <path id="Path_22" data-name="Path 22" d="M191.984,276.527c2.139.8-1.153,10.206-3.462,9.831-1.585-.257-1.5-1.918-1.291-2.934.03-.143-.327-.228-.456-.108-1.032.96-3.08,2.5-4.936,1.74-1.636-.673-.606-2.035.394-2.96.135-.125-.173-.276-.38-.187-1.182.512-2.725,1.028-3.477.637-2.181-1.133,9.94-7.4,13.607-6.02" transform="translate(-159.475 -191.947)" fill="#ffe5a7"/>
        <path id="Path_23" data-name="Path 23" d="M61.7,276.527c-2.139.8,1.153,10.206,3.462,9.831,1.585-.257,1.5-1.918,1.291-2.934-.03-.143.327-.228.456-.108,1.032.96,3.08,2.5,4.936,1.74,1.636-.673.606-2.035-.394-2.96-.135-.125.173-.276.38-.187,1.182.512,2.725,1.028,3.477.637,2.181-1.133-9.94-7.4-13.607-6.02" transform="translate(-8.25 -191.947)" fill="#ffe5a7"/>
        <path id="Path_24" data-name="Path 24" d="M20.656,44.7c-3.789,24.4,2.629,44.7,34.972,44.7,30.765,0,40.6-20.663,34.972-44.7C84.816,19.984,74.943,0,55.629,0S24.864,17.617,20.656,44.7" transform="translate(-12.751)" fill="#595983"/>
        <path id="Path_25" data-name="Path 25" d="M73.161,118.663c23.025,0,31.424-14.443,28.764-32.045,0,0,0,0,0,0q-.284-1.87-.731-3.784C96.556,63.019,88.644,47,73.161,47S48.5,61.123,45.127,82.832q-.214,1.39-.373,2.753c-2.132,18.306,3.708,33.079,28.406,33.079" transform="translate(-30.23 -33.308)" fill="#f4f4e9"/>
        <path id="Path_26" data-name="Path 26" d="M45.969,85.584c6.47,7.5,17.074,12.4,29.053,12.4,11.419,0,21.586-4.445,28.118-11.361,0,0,0,0,0,0q-.284-1.87-.731-3.784C97.77,63.019,89.858,47,74.375,47S49.715,61.123,46.341,82.832q-.214,1.39-.373,2.753" transform="translate(-31.444 -33.308)" fill="#f4f4e9"/>
        <path id="Path_27" data-name="Path 27" d="M120.112,43.274c-8.448-9.322-12.954,1.107-15.657,5.858a1.678,1.678,0,0,1-2.969-.112C99.241,44.4,92.48,35.13,86,42.1,88.327,36.273,103.8,29,103.8,29s12.818,6.7,16.314,14.274" transform="translate(-60.075 -20.552)" fill="#595983"/>
        <path id="Path_28" data-name="Path 28" d="M98.147,99.558c0,1.828,1.046,3.31,2.337,3.31s2.337-1.482,2.337-3.31-1.046-3.31-2.337-3.31-2.337,1.482-2.337,3.31" transform="translate(-46.323 -68.21)" fill="#3c3c49"/>
        <path id="Path_29" data-name="Path 29" d="M175.8,99.558c0,1.828,1.046,3.31,2.337,3.31s2.337-1.482,2.337-3.31-1.046-3.31-2.337-3.31-2.337,1.482-2.337,3.31" transform="translate(-146.602 -68.21)" fill="#3c3c49"/>
        <path id="Path_30" data-name="Path 30" d="M133.471,117.411l-3.233-4.157a1.085,1.085,0,0,1,.856-1.751h6.467a1.085,1.085,0,0,1,.856,1.751l-3.233,4.157a1.085,1.085,0,0,1-1.713,0" transform="translate(-91.433 -79.02)" fill="#ddb97a"/>
        <path id="Path_31" data-name="Path 31" d="M4.191,111.681c9.576-6.659,17.641,39.6,13.709,42.813-3.625,2.958-21.4-36.23-17.285-40.487a8.623,8.623,0,0,1,3.577-2.326" transform="translate(66.17 -78.683)" fill="#595983"/>
        <path id="Path_32" data-name="Path 32" d="M241.871,111.681c-9.576-6.659-17.641,39.6-13.709,42.813,3.625,2.958,21.4-36.23,17.285-40.487a8.623,8.623,0,0,0-3.577-2.326" transform="translate(-227.144 -78.683)" fill="#595983"/>
      </g>
    </g>
    <g id="Group_72" data-name="Group 72" transform="translate(115.771 3430.162)">
      <g id="Group_36" data-name="Group 36" transform="translate(0)" clip-path="url(#clip-path-2)">
        <g id="Group_17" data-name="Group 17">
          <g id="Group_16" data-name="Group 16" clip-path="url(#clip-path-2)">
            <g id="Group_15" data-name="Group 15" transform="translate(1.55 123.696)" opacity="0.3">
              <g id="Group_14" data-name="Group 14">
                <g id="Group_13" data-name="Group 13" clip-path="url(#clip-path-4)">
                  <path id="Path_11" data-name="Path 11" d="M311.352,336.674c-6.839,27.645-31.51,13.442-47.686.389a3.865,3.865,0,0,0-6.133,4.117c3.378,10.886,3.518,24-11.218,30.476-17.564,7.712-34.047-5.712-43.793-16.627a4.128,4.128,0,0,0-7.2,2.534c-.548,10.357-5.758,23.054-26.962,26.291-20.439,3.121-30.857-9.808-36.038-21.569a8.922,8.922,0,0,0-14.2-2.967c-11.307,10.311-30.618,23.547-49.472,18.826a28.364,28.364,0,0,1-2.918-.892,22.772,22.772,0,0,1-5.362-2.762h-.007c-11.646-8.17-9.88-24.9-7.388-35.2a4.042,4.042,0,0,0-5.562-4.665c-14.172,6.321-41.9,15.424-45.021-8.4-1.323-10.1,11.319-18.058,30.02-29.824.432-.273.87-.547,1.309-.82q4.032-2.535,8.38-5.322,1.811-1.165,3.673-2.38,8.14-5.33,16.235-11.191,3.516-2.536,7-5.171c31.674-23.913,61.4-53.328,81.359-84.865.388-.618.768-1.23,1.15-1.841.086-.137.172-.281.259-.418l.11-.179a1.154,1.154,0,0,1,1.868-.14l.021.024c.036.036.065.072.1.108,1.071,1.244,2.846,3.308,5.211,6,.259.3.532.6.812.921.18.2.366.41.546.626.158.18.316.36.482.539.826.927,1.7,1.92,2.637,2.963.661.741,1.344,1.511,2.063,2.3.453.5.913,1.007,1.373,1.525l.618.684c.266.288.539.583.8.884q.55.6,1.121,1.23c.438.482.891.971,1.337,1.46.388.424.783.856,1.186,1.287,5.678,6.171,12.326,13.212,19.556,20.519.531.54,1.071,1.079,1.61,1.625q3.3,3.313,6.734,6.667,1.639,1.607,3.3,3.208c4.572,4.4,9.279,8.781,14.03,13.025.6.532,1.186,1.064,1.783,1.582,3.809,3.365,7.647,6.631,11.464,9.731.568.46,1.135.921,1.7,1.366q1.65,1.316,3.285,2.589c.482.374.956.748,1.437,1.107q2.663,2.04,5.29,3.935a218.492,218.492,0,0,0,27.11,16.4c.8.417,1.6.834,2.386,1.237s1.574.813,2.35,1.208c1.552.8,3.076,1.568,4.571,2.33,1.272.64,2.523,1.28,3.745,1.906,21.317,10.917,34.915,19.483,28.935,43.612" transform="translate(-2.301 -183.662)" fill="#00005e"/>
                </g>
              </g>
            </g>
          </g>
        </g>
        <g id="Group_19" data-name="Group 19" transform="translate(1.55 114.092)">
          <g id="Group_18" data-name="Group 18" clip-path="url(#clip-path-5)">
            <rect id="Rectangle_27" data-name="Rectangle 27" width="316.258" height="205.545" transform="translate(-1.227 0)" fill="url(#linear-gradient)"/>
          </g>
        </g>
        <g id="Group_24" data-name="Group 24">
          <g id="Group_23" data-name="Group 23" clip-path="url(#clip-path-2)">
            <path id="Path_13" data-name="Path 13" d="M405.342,329.956C403.039,331.642,419,344.34,419,352.251s-2.157,17.98-13.656,19.418-13.65,2.462-10.059,7.345,25.728,17.751,35.861,11.676,14.446-30.527,6.54-41.315-31.675-19.907-32.343-19.418" transform="translate(-128.543 -107.726)" fill="#eaf2fe"/>
            <path id="Path_14" data-name="Path 14" d="M127.758,384.859c-3.22,3.826-12.039,9.745-22.015,16.505-18.751,12.708-30.883,12.176-40.758,7.875a48.935,48.935,0,0,1-5.362-2.762h-.007c-10.917-6.4-9.933-17.339-9.933-24.057s-1.437-14.139-5.75-11.981-17.968,4.315-25.565,4.452S4.4,370.44.811,359.651s5.75-15.822,8.625-17.98c1.315-.993,12.031-8.307,23.38-15.815,13.39-8.86,27.649-17.98,28.368-17.268a.858.858,0,0,1,.079.086c2.6,2.833-1.567,11.543-6.548,23.647-.057.137-.108.266-.158.4-4.593,11.967,8.014,18.555,8.783,26.207,1.437,14.384,3.594,30.926,42.4,23.669,11.593-2.165,18.248-2.712,21.281-2.006.029.007.058.014.079.022,2.508.6,2.465,2.092.654,4.243" transform="translate(0 -100.743)" fill="#eaf2fe"/>
            <g id="Group_22" data-name="Group 22" transform="translate(32.775 114.993)" opacity="0.3">
              <g id="Group_21" data-name="Group 21">
                <g id="Group_20" data-name="Group 20" clip-path="url(#clip-path-7)">
                  <path id="Path_15" data-name="Path 15" d="M293.435,280.847c-.014,0-.029.007-.043.007a118.92,118.92,0,0,1-19.636,1.676c-7.18-.072-13.555,4.675-16.229,11.788-1.833,4.876-6.382,10.27-16.07,15.3-17.12,8.9-36.051-2.316-47.989-12.155a16.516,16.516,0,0,0-21.834.676c-7.669,6.911-20.4,14.326-40.112,15.074-19.678.748-27.821-7.472-31.114-15.527a16.977,16.977,0,0,0-17.349-10.637c-3.946.388-8.266.683-12.614.676-7.058-.014-14.187-.834-19.894-3.394a2.986,2.986,0,0,1-1.689-1.762,3.479,3.479,0,0,1-.158-1.712c13.39-8.86,27.649-17.98,28.368-17.268a.763.763,0,0,1,.079.087q3.516-2.536,7-5.171c28.591-17.627,60.056-51.034,81.359-84.865.388-.612.769-1.23,1.15-1.841.086-.137.172-.28.259-.417a1.288,1.288,0,0,1,2-.3c.036.036.065.072.1.108,1.071,1.245,2.846,3.308,5.211,6.006.259.3.532.6.812.92.18.2.366.41.546.626.158.18.317.36.482.539.826.928,1.7,1.921,2.637,2.963.661.741,1.352,1.51,2.063,2.3.453.5.913,1.007,1.373,1.525l.618.683c.266.288.539.583.8.885q.561.6,1.121,1.23c.438.482.891.971,1.337,1.46.388.424.783.855,1.186,1.287,5.678,6.171,12.326,13.211,19.556,20.519.531.539,1.071,1.086,1.61,1.625,2.2,2.208,4.449,4.438,6.734,6.667,1.092,1.072,2.192,2.136,3.3,3.208,4.572,4.4,9.279,8.781,14.03,13.024.6.532,1.186,1.057,1.783,1.582,3.809,3.366,7.647,6.631,11.464,9.731.568.461,1.128.921,1.7,1.366q1.65,1.316,3.285,2.59c.474.374.956.74,1.437,1.107q2.663,2.039,5.29,3.934a218.475,218.475,0,0,0,27.11,16.4c.8.417,1.6.834,2.386,1.237s1.574.812,2.35,1.208c1.552.8,3.076,1.568,4.571,2.33a1.45,1.45,0,0,1-.374,2.7" transform="translate(-48.664 -170.741)" fill="#00005e"/>
                </g>
              </g>
            </g>
          </g>
        </g>
        <g id="Group_26" data-name="Group 26" transform="translate(18.366 51.062)">
          <g id="Group_25" data-name="Group 25" clip-path="url(#clip-path-8)">
            <rect id="Rectangle_30" data-name="Rectangle 30" width="321.053" height="191.305" transform="translate(-30.213 0)" fill="url(#linear-gradient-2)"/>
          </g>
        </g>
        <g id="Group_31" data-name="Group 31">
          <g id="Group_30" data-name="Group 30" clip-path="url(#clip-path-2)">
            <path id="Path_17" data-name="Path 17" d="M93.1,206.2c4.1,4.374-37.393,34.521-37.393,44.59,0,8.9,11.763,20.174,6.893,21.594s-28.31-2.718-33.872-8.648c-5.4-5.754-5.762-15.864,6.07-22.3,48.959-26.61,50.883-43.151,58.3-35.24" transform="translate(-8.203 -66.677)" fill="#fafcff"/>
            <g id="Group_29" data-name="Group 29" transform="translate(76.793 51.063)" opacity="0.3">
              <g id="Group_28" data-name="Group 28">
                <g id="Group_27" data-name="Group 27" clip-path="url(#clip-path-10)">
                  <path id="Path_18" data-name="Path 18" d="M282.218,166.248a6.637,6.637,0,0,1-4.937,2.884c-14.2,1.287-27.9-5.531-35.646-10.385a6.681,6.681,0,0,0-9.4,2.582c-3.9,6.825-12.761,16.613-32.159,20.209-20.039,3.718-31.357-7.565-36.854-16.023a6.624,6.624,0,0,0-9.814-1.762c-8.924,7.227-22.717,6.652-35.377,3.862A6.664,6.664,0,0,1,114.022,165c46.337-39.57,91.447-89.18,91.447-89.18s18.447,49.437,76.749,90.431" transform="translate(-114.022 -75.817)" fill="#00005e"/>
                </g>
              </g>
            </g>
          </g>
        </g>
        <g id="Group_33" data-name="Group 33" transform="translate(52.478 1.532)">
          <g id="Group_32" data-name="Group 32" clip-path="url(#clip-path-11)">
            <rect id="Rectangle_33" data-name="Rectangle 33" width="256.873" height="148.78" transform="translate(-25.774 -0.001)" fill="url(#linear-gradient-3)"/>
          </g>
        </g>
        <g id="Group_35" data-name="Group 35">
          <g id="Group_34" data-name="Group 34" clip-path="url(#clip-path-2)">
            <path id="Path_21" data-name="Path 21" d="M379.115,239.114c-21.186-12.424-40.469-19.418-35.073-6.473s.674,21.576-11.466,21.576-24.956,5.034-24.956,12.945-8.768,14.384-17.536,15.1-30.192,3.335-14.758,14.253,43.761,14.514,53.2-4.184-5.4-18.722,24.954-17.991,38.447-9.339,37.1-16.53,2.023-10.788-11.466-18.7" transform="translate(-88.119 -73.7)" fill="#eaf2fe"/>
          </g>
        </g>
      </g>
    </g>
    <g id="Group_97" data-name="Group 97" transform="translate(545 3687.708)">
      <g id="Group_39-2" data-name="Group 39" transform="translate(0)" clip-path="url(#clip-path-13)">
        <path id="Path_22-2" data-name="Path 22" d="M188.97,276.485c1.674.628-.9,7.988-2.71,7.694-1.24-.2-1.174-1.5-1.01-2.3.023-.112-.256-.178-.357-.084-.808.751-2.411,1.96-3.864,1.362-1.28-.527-.474-1.593.309-2.316.105-.1-.136-.216-.3-.146-.925.4-2.133.8-2.721.5-1.707-.887,7.78-5.789,10.65-4.712" transform="translate(-163.526 -210.285)" fill="#ffe5a7"/>
        <path id="Path_23-2" data-name="Path 23" d="M61.548,276.485c-1.674.628.9,7.988,2.71,7.694,1.24-.2,1.174-1.5,1.01-2.3-.023-.112.256-.178.357-.084.808.751,2.411,1.96,3.864,1.362,1.28-.527.474-1.593-.309-2.316-.105-.1.136-.216.3-.146.925.4,2.133.8,2.721.5,1.707-.887-7.78-5.789-10.65-4.712" transform="translate(-19.715 -210.285)" fill="#ffe5a7"/>
        <path id="Path_24-2" data-name="Path 24" d="M20.445,34.987C17.479,54.081,22.5,69.974,47.817,69.974c24.079,0,31.775-16.173,27.372-34.987C70.662,15.641,62.934,0,47.817,0S23.738,13.789,20.445,34.987" transform="translate(-14.258)" fill="#595983"/>
        <path id="Path_25-2" data-name="Path 25" d="M66.9,103.09c18.022,0,24.6-11.3,22.513-25.081,0,0,0,0,0,0q-.222-1.464-.572-2.962C85.211,59.538,79.018,47,66.9,47S47.6,58.054,44.958,75.045q-.168,1.088-.292,2.155C43,91.527,47.569,103.09,66.9,103.09" transform="translate(-33.298 -36.284)" fill="#f4f4e9"/>
        <path id="Path_26-2" data-name="Path 26" d="M45.969,77.2c5.064,5.873,13.363,9.7,22.739,9.7,8.938,0,16.9-3.479,22.007-8.892,0,0,0,0,0,0q-.222-1.464-.572-2.962C86.513,59.538,80.32,47,68.2,47S48.9,58.054,46.26,75.045q-.168,1.088-.292,2.155" transform="translate(-34.6 -36.284)" fill="#f4f4e9"/>
        <path id="Path_27-2" data-name="Path 27" d="M112.7,40.172c-6.612-7.3-10.139.866-12.255,4.585a1.313,1.313,0,0,1-2.324-.088C96.362,41.054,91.071,33.8,86,39.252,87.82,34.692,99.929,29,99.929,29s10.032,5.244,12.768,11.172" transform="translate(-65.708 -22.388)" fill="#595983"/>
        <path id="Path_28-2" data-name="Path 28" d="M98.147,98.839c0,1.431.819,2.591,1.829,2.591s1.829-1.16,1.829-2.591-.819-2.591-1.829-2.591-1.829,1.16-1.829,2.591" transform="translate(-57.586 -74.303)" fill="#3c3c49"/>
        <path id="Path_29-2" data-name="Path 29" d="M175.8,98.839c0,1.431.819,2.591,1.829,2.591s1.829-1.16,1.829-2.591-.819-2.591-1.829-2.591-1.829,1.16-1.829,2.591" transform="translate(-152.948 -74.303)" fill="#3c3c49"/>
        <path id="Path_30-2" data-name="Path 30" d="M132.719,116.127l-2.531-3.254a.849.849,0,0,1,.67-1.371h5.062a.849.849,0,0,1,.67,1.371l-2.531,3.254a.85.85,0,0,1-1.341,0" transform="translate(-99.816 -86.079)" fill="#ddb97a"/>
        <path id="Path_31-2" data-name="Path 31" d="M3.28,111.539c7.495-5.212,13.807,31,10.73,33.509C11.172,147.364-2.741,116.691.481,113.36a6.749,6.749,0,0,1,2.8-1.821" transform="translate(51.791 -85.712)" fill="#595983"/>
        <path id="Path_32-2" data-name="Path 32" d="M238.67,111.539c-7.495-5.212-13.807,31-10.729,33.509,2.838,2.315,16.751-28.357,13.529-31.688a6.749,6.749,0,0,0-2.8-1.821" transform="translate(-227.144 -85.712)" fill="#595983"/>
      </g>
    </g>
  </g>
</svg>
