<svg id="Group_43" data-name="Group 43" xmlns="http://www.w3.org/2000/svg" xmlns:xlink="http://www.w3.org/1999/xlink" width="258.221" height="132.928" viewBox="0 0 258.221 132.928">
  <defs>
    <clipPath id="clip-path">
      <rect id="Rectangle_37" data-name="Rectangle 37" width="258.221" height="132.928" fill="none"/>
    </clipPath>
  </defs>
  <g id="Group_42" data-name="Group 42" clip-path="url(#clip-path)">
    <path id="Path_33" data-name="Path 33" d="M364.3,111.153c.408,4.2,36.251,8.136,37.5,4.084.854-2.781-4.932-4.269-8.645-4.929-.523-.093-.422-.745.13-.833,4.421-.709,11.959-2.469,11.375-6.178-.515-3.269-6.312-2.956-10.58-2.264-.575.094-.756-.546-.224-.788,3.051-1.386,6.509-3.345,5.993-4.927-1.5-4.59-36.244,8.636-35.545,15.836" transform="translate(-146.467 -31.746)" fill="#ddb97a"/>
    <path id="Path_34" data-name="Path 34" d="M354.261,58.055c.994,4.075,36.952,1.75,37.61-2.468.452-2.9-5.473-3.361-9.233-3.369-.53,0-.521-.662.011-.845,4.267-1.467,11.465-4.513,10.366-8.075-.969-3.14-6.651-1.826-10.768-.4-.554.192-.824-.409-.332-.74,2.819-1.9,5.958-4.432,5.226-5.905-2.124-4.274-34.583,14.815-32.879,21.8" transform="translate(-142.408 -11.987)" fill="#ddb97a"/>
    <path id="Path_35" data-name="Path 35" d="M240.227,91.63c-5.331,11.93-13.511,21.734-24.335,27.115-25.914,12.891-106.714,23.413-156.248,1.547C33.95,108.944,24.448,87.385,26.04,66.5c1.469-19.381,12.5-38.172,29-47.673,0,0,16.594-8.612,34.125.991s43.44,6.432,65.311-6.385c20.152-11.808,52.5-27.017,76.39,9.488,18.984,29.007,21.675,41.2,9.361,68.707" transform="translate(-10.401 0)" fill="#595983"/>
    <path id="Path_36" data-name="Path 36" d="M240.227,115.382c-5.331,11.93-13.511,21.734-24.335,27.115-25.914,12.891-106.714,23.413-156.248,1.547-25.694-11.348-35.2-32.907-33.6-53.791-1.025-14.435,36.226-36.8,59.227,1.986,15.911,26.83,75.136,33.349,99.524,23.08,23.08-9.711,45.007-16.443,55.436.063" transform="translate(-10.401 -23.752)" fill="#f4f4e9"/>
    <path id="Path_37" data-name="Path 37" d="M2.2,114.147l14.406,2.23a2.716,2.716,0,0,0,2.85-3.366l-1.933-10.533a2.5,2.5,0,0,0-3.808-1.861L1.24,108.92c-2.061,1.372-1.422,4.859.959,5.227" transform="translate(0 -33.71)" fill="#ddb97a"/>
    <path id="Path_38" data-name="Path 38" d="M60.6,94.13c0,4.187-1.846,7.582-4.124,7.582s-4.125-3.4-4.125-7.582,1.846-7.582,4.125-7.582,4.124,3.4,4.124,7.582" transform="translate(-21.047 -29.114)" fill="#3c3c49"/>
    <path id="Path_39" data-name="Path 39" d="M155.573,122.69c12.884,24.167,79.048-15.578,85.191-34.083,8.928-26.9-83.779-16.72-95.482,4.355-5.1,9.182,8.388,26.159,10.291,29.728" transform="translate(-57.952 -24.352)" fill="#48486f"/>
  </g>
</svg>
