<svg id="Group_40" data-name="Group 40" xmlns="http://www.w3.org/2000/svg" xmlns:xlink="http://www.w3.org/1999/xlink" width="137.52" height="158.882" viewBox="0 0 137.52 158.882">
  <defs>
    <clipPath id="clip-path">
      <rect id="Rectangle_36" data-name="Rectangle 36" width="137.52" height="158.882" fill="none"/>
    </clipPath>
  </defs>
  <g id="Group_39" data-name="Group 39" clip-path="url(#clip-path)">
    <path id="Path_22" data-name="Path 22" d="M179.234,276.648c-3.456,1.3,1.864,16.494,5.6,15.888,2.561-.416,2.424-3.1,2.086-4.742-.048-.232.529-.368.737-.174,1.668,1.551,4.978,4.047,7.978,2.813,2.644-1.087.979-3.288-.637-4.783-.218-.2.28-.446.613-.3,1.911.828,4.4,1.661,5.619,1.03,3.525-1.832-16.064-11.953-21.992-9.73" transform="translate(-94.255 -139.95)" fill="#ffe5a7"/>
    <path id="Path_23" data-name="Path 23" d="M83.42,276.648c3.456,1.3-1.864,16.494-5.6,15.888-2.561-.416-2.424-3.1-2.086-4.742.048-.232-.529-.368-.737-.174-1.668,1.551-4.978,4.047-7.978,2.813-2.644-1.087-.979-3.288.637-4.783.218-.2-.28-.446-.613-.3-1.911.828-4.4,1.661-5.619,1.03-3.525-1.832,16.064-11.953,21.992-9.73" transform="translate(-32.283 -139.95)" fill="#ffe5a7"/>
    <path id="Path_24" data-name="Path 24" d="M135.16,72.246c6.124,39.428-4.25,72.246-56.522,72.246-49.722,0-65.614-33.4-56.522-72.246C31.465,32.3,47.422,0,78.637,0S128.36,28.473,135.16,72.246" transform="translate(-10.417)" fill="#595983"/>
    <path id="Path_25" data-name="Path 25" d="M91.6,162.822c-37.214,0-50.787-23.343-46.489-51.79,0,0,0,0,0,0q.459-3.023,1.182-6.116C53.793,72.89,66.58,47,91.6,47s39.855,22.825,45.307,57.911q.346,2.246.6,4.449c3.446,29.586-5.994,53.462-45.91,53.462" transform="translate(-23.469 -24.871)" fill="#f4f4e9"/>
    <path id="Path_26" data-name="Path 26" d="M138.371,109.36c-10.457,12.128-27.595,20.033-46.955,20.033-18.456,0-34.888-7.185-45.444-18.362,0,0,0,0,0,0q.459-3.023,1.182-6.116C54.649,72.89,67.437,47,92.461,47s39.855,22.825,45.307,57.911q.346,2.246.6,4.449" transform="translate(-24.326 -24.871)" fill="#f4f4e9"/>
    <path id="Path_27" data-name="Path 27" d="M86,52.07C99.65,37,106.932,53.859,111.3,61.538a2.712,2.712,0,0,0,4.8-.181c3.629-7.466,14.554-22.449,25.035-11.186C137.367,40.754,112.362,29,112.362,29S91.646,39.829,86,52.07" transform="translate(-45.507 -15.346)" fill="#595983"/>
    <path id="Path_28" data-name="Path 28" d="M105.7,101.6c0,2.955-1.691,5.35-3.776,5.35s-3.776-2.4-3.776-5.35,1.691-5.35,3.776-5.35,3.776,2.4,3.776,5.35" transform="translate(-51.937 -50.932)" fill="#3c3c49"/>
    <path id="Path_29" data-name="Path 29" d="M183.356,101.6c0,2.955-1.691,5.35-3.776,5.35s-3.776-2.4-3.776-5.35,1.691-5.35,3.776-5.35,3.776,2.4,3.776,5.35" transform="translate(-93.031 -50.932)" fill="#3c3c49"/>
    <path id="Path_30" data-name="Path 30" d="M138.375,121.052l5.226-6.719a1.754,1.754,0,0,0-1.384-2.831H131.764a1.754,1.754,0,0,0-1.384,2.831l5.226,6.719a1.754,1.754,0,0,0,2.769,0" transform="translate(-68.797 -59.004)" fill="#ddb97a"/>
    <path id="Path_31" data-name="Path 31" d="M23.8,112.085C8.325,101.322-4.709,176.093,1.646,181.279c5.859,4.781,34.589-58.555,27.937-65.435a13.936,13.936,0,0,0-5.781-3.76" transform="translate(0 -58.753)" fill="#595983"/>
    <path id="Path_32" data-name="Path 32" d="M233.917,112.085c15.476-10.762,28.511,64.008,22.156,69.194-5.859,4.781-34.589-58.555-27.937-65.435a13.936,13.936,0,0,1,5.781-3.76" transform="translate(-120.2 -58.753)" fill="#595983"/>
  </g>
</svg>
