<svg id="Group_71" data-name="Group 71" xmlns="http://www.w3.org/2000/svg" xmlns:xlink="http://www.w3.org/1999/xlink" width="342.818" height="355" viewBox="0 0 342.818 355">
  <defs>
    <clipPath id="clip-path">
      <rect id="Rectangle_35" data-name="Rectangle 35" width="342.818" height="355" fill="none"/>
    </clipPath>
    <clipPath id="clip-path-3">
      <rect id="Rectangle_25" data-name="Rectangle 25" width="339.794" height="219.619" fill="none"/>
    </clipPath>
    <clipPath id="clip-path-4">
      <path id="Path_12" data-name="Path 12" d="M178.494,171.1c.094.15.189.307.284.456.416.669.834,1.339,1.258,2.015,21.844,34.516,54.379,66.709,89.045,92.881q3.811,2.88,7.662,5.66,8.838,6.411,17.77,12.248,2.041,1.334,4.02,2.6,4.756,3.058,9.172,5.825c.48.3.96.6,1.431.9,20.468,12.877,34.3,21.592,32.857,32.643-4.586,35.035-57.784,5.022-58.312,4.731.252.638,13.861,34.767-5.137,48.094h-.007a24.962,24.962,0,0,1-5.868,3.022,31.108,31.108,0,0,1-3.194.976c-31.149,7.8-62.929-30.163-64.706-32.327-.055-.063-.079-.1-.079-.1s0,.04-.007.118c-.048.457-.22,2.165-.716,4.645-2.25,11.382-11.091,38.876-43.618,33.91-40.322-6.156-27.8-43.568-27.484-44.5-.6.969-27.767,44.347-57.832,31.147-29.788-13.09-4.035-50.967-3-52.479-1.526,1.606-56.928,59.7-68.183,14.193-6.545-26.408,8.338-35.783,31.669-47.731,1.337-.685,2.706-1.385,4.1-2.086,1.637-.834,3.3-1.677,5-2.55q1.274-.649,2.573-1.322c.865-.44,1.738-.9,2.612-1.354a239.042,239.042,0,0,0,29.671-17.947q2.879-2.078,5.79-4.3c.526-.394,1.046-.8,1.573-1.213q1.792-1.393,3.595-2.834c.613-.487,1.235-.991,1.856-1.495,4.176-3.393,8.377-6.966,12.546-10.65.652-.567,1.3-1.15,1.951-1.732,5.2-4.644,10.351-9.437,15.354-14.254q1.817-1.747,3.611-3.511,3.752-3.66,7.37-7.3c.59-.6,1.179-1.188,1.762-1.779,7.913-8,15.189-15.7,21.4-22.457.44-.472.873-.944,1.3-1.409.489-.535.984-1.07,1.464-1.6q.626-.684,1.227-1.346c.29-.33.59-.653.881-.968l.677-.748c.5-.567,1.006-1.125,1.5-1.668.787-.866,1.534-1.709,2.258-2.519,1.023-1.141,1.982-2.228,2.887-3.243.181-.2.354-.394.527-.59.2-.236.4-.464.6-.685.307-.346.606-.677.889-1.008,2.588-2.951,4.531-5.211,5.7-6.572.039-.04.07-.079.11-.118.755-.9,1.157-1.37,1.157-1.37.338.568.684,1.126,1.03,1.692" transform="translate(-2.301 -169.403)" fill="none"/>
    </clipPath>
    <linearGradient id="linear-gradient" x1="1.001" y1="1.023" x2="0.999" y2="1.023" gradientUnits="objectBoundingBox">
      <stop offset="0" stop-color="#fff"/>
      <stop offset="1" stop-color="#7da1e2"/>
    </linearGradient>
    <clipPath id="clip-path-6">
      <rect id="Rectangle_28" data-name="Rectangle 28" width="269.141" height="155.988" fill="none"/>
    </clipPath>
    <clipPath id="clip-path-7">
      <path id="Path_16" data-name="Path 16" d="M271.351,173.421q5.3,4.522,10.615,8.871a381.045,381.045,0,0,0,38.415,28.124c47.984,29.911-33.218,42.5-55.364,29.911,0,0,5.167,34.633-36.172,33.06s-54.626-29.912-54.626-29.912-35.434,41.719-65.7,25.976c-29.307-15.247-15.7-33.445-14.809-34.579-.649.669-8.843,8.367-42.033,3.094C16.983,232.455,23.5,209.661,45.034,199.4A293.807,293.807,0,0,0,75.669,182.52q6.023-3.8,11.6-7.729c63.81-44.867,84-98.974,84-98.974s49.37,54.3,100.085,97.6" transform="translate(-27.27 -75.817)" fill="none"/>
    </clipPath>
    <linearGradient id="linear-gradient-2" x1="0.963" y1="1.428" x2="0.961" y2="1.428" xlink:href="#linear-gradient"/>
    <clipPath id="clip-path-9">
      <rect id="Rectangle_31" data-name="Rectangle 31" width="184.084" height="116.507" fill="none"/>
    </clipPath>
    <clipPath id="clip-path-10">
      <path id="Path_19" data-name="Path 19" d="M211.6,9.724c15.611,23.4,44.72,61.3,89.94,99.01,37.581,31.342-48.674,50.076-68.605,13.868,0,0-8.859,42.505-42.816,36.208s-33.957-35.421-33.957-35.421-40.6,35.421-69.391,14.955,19.109-44.664,50.936-69.267c17.269-13.35,34.791-39.353,46.363-58.644a16.051,16.051,0,0,1,27.53-.711" transform="translate(-77.918 -2.274)" fill="none"/>
    </clipPath>
    <linearGradient id="linear-gradient-3" x1="1.104" y1="2.17" x2="1.101" y2="2.17" xlink:href="#linear-gradient"/>
  </defs>
  <g id="Group_36" data-name="Group 36" clip-path="url(#clip-path)">
    <g id="Group_17" data-name="Group 17">
      <g id="Group_16" data-name="Group 16" clip-path="url(#clip-path)">
        <g id="Group_15" data-name="Group 15" transform="translate(1.327 135.381)" opacity="0.3">
          <g id="Group_14" data-name="Group 14">
            <g id="Group_13" data-name="Group 13" clip-path="url(#clip-path-3)">
              <path id="Path_11" data-name="Path 11" d="M3.85,351.129c7.485,30.256,34.487,14.712,52.19.425a4.231,4.231,0,0,1,6.712,4.506c-3.7,11.914-3.851,26.267,12.278,33.355,19.223,8.44,37.264-6.251,47.93-18.2a4.518,4.518,0,0,1,7.877,2.773c.6,11.335,6.3,25.232,29.509,28.774,22.37,3.416,33.772-10.735,39.442-23.607a9.765,9.765,0,0,1,15.538-3.248c12.375,11.285,33.51,25.772,54.146,20.6a31.051,31.051,0,0,0,3.194-.976,24.924,24.924,0,0,0,5.868-3.023h.007c12.746-8.941,10.814-27.249,8.086-38.52a4.424,4.424,0,0,1,6.088-5.106c15.511,6.918,45.861,16.881,49.274-9.2,1.448-11.051-12.389-19.764-32.856-32.642-.472-.3-.952-.6-1.432-.9q-4.413-2.774-9.171-5.825-1.982-1.275-4.02-2.605-8.908-5.833-17.769-12.248-3.848-2.775-7.662-5.66c-34.666-26.172-67.2-58.366-89.045-92.881-.425-.677-.841-1.346-1.258-2.014-.094-.15-.189-.307-.283-.457l-.12-.2a1.263,1.263,0,0,0-2.044-.153l-.023.027c-.039.04-.071.079-.11.119-1.172,1.362-3.115,3.621-5.7,6.572-.283.331-.582.661-.889,1.008-.2.22-.4.449-.6.685-.173.2-.346.394-.527.59-.9,1.015-1.864,2.1-2.887,3.243-.724.811-1.471,1.653-2.258,2.519-.5.543-1,1.1-1.5,1.669l-.677.748c-.291.315-.59.638-.881.968q-.6.661-1.227,1.346c-.48.528-.975,1.063-1.463,1.6-.425.464-.857.937-1.3,1.409-6.214,6.754-13.49,14.46-21.4,22.457-.582.591-1.172,1.181-1.762,1.779q-3.611,3.625-7.37,7.3-1.793,1.759-3.61,3.511c-5,4.817-10.155,9.611-15.355,14.255-.653.582-1.3,1.165-1.951,1.731-4.169,3.683-8.369,7.257-12.546,10.65-.621.5-1.243,1.008-1.856,1.5q-1.806,1.441-3.595,2.834c-.527.409-1.046.819-1.573,1.212q-2.915,2.232-5.79,4.306A239.132,239.132,0,0,1,49.8,296.085c-.873.456-1.746.913-2.612,1.353s-1.723.89-2.573,1.322c-1.7.874-3.366,1.716-5,2.55-1.392.7-2.761,1.4-4.1,2.086C12.189,315.346-2.695,324.721,3.85,351.129" transform="translate(-2.301 -183.662)" fill="#00005e"/>
            </g>
          </g>
        </g>
      </g>
    </g>
    <g id="Group_19" data-name="Group 19" transform="translate(1.327 124.87)">
      <g id="Group_18" data-name="Group 18" clip-path="url(#clip-path-4)">
        <rect id="Rectangle_27" data-name="Rectangle 27" width="346.133" height="224.962" transform="translate(-4.996 0)" fill="url(#linear-gradient)"/>
      </g>
    </g>
    <g id="Group_24" data-name="Group 24">
      <g id="Group_23" data-name="Group 23" clip-path="url(#clip-path)">
        <path id="Path_13" data-name="Path 13" d="M433.566,329.958c2.521,1.845-14.946,15.743-14.946,24.4s2.36,19.678,14.946,21.253,14.939,2.695,11.009,8.038-28.159,19.427-39.249,12.779-15.81-33.411-7.158-45.218,34.667-21.788,35.4-21.252" transform="translate(-393.695 -86.734)" fill="#eaf2fe"/>
        <path id="Path_14" data-name="Path 14" d="M1.423,392.068c3.524,4.188,13.176,10.665,24.094,18.065,20.523,13.909,33.8,13.326,44.608,8.619a53.567,53.567,0,0,0,5.868-3.023H76c11.949-7,10.871-18.977,10.871-26.329s1.573-15.475,6.293-13.113,19.666,4.723,27.98,4.872,15.283-4.872,19.217-16.68-6.293-17.317-9.44-19.678c-1.44-1.086-13.168-9.092-25.588-17.309-14.655-9.7-30.261-19.678-31.047-18.9a.94.94,0,0,0-.087.094c-2.848,3.1,1.715,12.634,7.166,25.881.063.15.118.291.173.441,5.026,13.1-8.771,20.308-9.613,28.683-1.573,15.743-3.933,33.847-46.41,25.9-12.688-2.369-19.972-2.968-23.291-2.2-.032.007-.063.016-.087.024-2.745.661-2.7,2.29-.716,4.644" transform="translate(201.567 -81.112)" fill="#eaf2fe"/>
        <g id="Group_22" data-name="Group 22" transform="translate(37.805 125.856)" opacity="0.3">
          <g id="Group_21" data-name="Group 21">
            <g id="Group_20" data-name="Group 20" clip-path="url(#clip-path-6)">
              <path id="Path_15" data-name="Path 15" d="M49.911,291.248c.015,0,.032.008.047.008a130.152,130.152,0,0,0,21.491,1.834c7.858-.079,14.835,5.116,17.762,12.9,2.006,5.337,6.985,11.24,17.588,16.75,18.738,9.744,39.456-2.535,52.523-13.3a18.076,18.076,0,0,1,23.9.74c8.394,7.564,22.332,15.679,43.9,16.5,21.537.818,30.45-8.178,34.053-16.994a18.581,18.581,0,0,1,18.988-11.641c4.319.425,9.047.747,13.806.739,7.724-.015,15.527-.913,21.773-3.715a3.268,3.268,0,0,0,1.849-1.928,3.807,3.807,0,0,0,.173-1.874c-14.655-9.7-30.261-19.678-31.047-18.9a.838.838,0,0,0-.086.1q-3.848-2.775-7.662-5.66c-31.291-19.293-65.729-55.855-89.045-92.881-.425-.669-.842-1.346-1.258-2.015-.094-.15-.189-.307-.283-.456a1.409,1.409,0,0,0-2.187-.323c-.039.039-.071.079-.11.118-1.172,1.362-3.115,3.621-5.7,6.573-.283.33-.582.661-.889,1.007-.2.221-.4.449-.6.685-.173.2-.346.394-.527.59-.9,1.016-1.864,2.1-2.887,3.243-.724.811-1.479,1.653-2.258,2.519-.5.543-1,1.1-1.5,1.669l-.677.747c-.291.315-.59.638-.881.969q-.614.661-1.227,1.346c-.48.527-.975,1.062-1.463,1.6-.425.464-.857.936-1.3,1.409-6.214,6.753-13.49,14.459-21.4,22.457-.582.59-1.172,1.188-1.762,1.779-2.407,2.416-4.869,4.857-7.37,7.3-1.2,1.173-2.4,2.337-3.61,3.511-5,4.817-10.155,9.611-15.355,14.254-.653.582-1.3,1.157-1.951,1.731-4.169,3.684-8.369,7.258-12.547,10.65-.621.5-1.235,1.008-1.856,1.5q-1.806,1.441-3.595,2.834c-.519.409-1.046.81-1.573,1.212q-2.914,2.231-5.79,4.305A239.118,239.118,0,0,1,59.689,283.07c-.873.456-1.746.913-2.612,1.354s-1.723.889-2.572,1.322c-1.7.873-3.366,1.716-5,2.55a1.587,1.587,0,0,0,.409,2.951" transform="translate(-48.664 -170.741)" fill="#00005e"/>
            </g>
          </g>
        </g>
      </g>
    </g>
    <g id="Group_26" data-name="Group 26" transform="translate(14.689 55.886)">
      <g id="Group_25" data-name="Group 25" clip-path="url(#clip-path-7)">
        <rect id="Rectangle_30" data-name="Rectangle 30" width="351.381" height="209.377" transform="translate(-10.287 0)" fill="url(#linear-gradient-2)"/>
      </g>
    </g>
    <g id="Group_31" data-name="Group 31">
      <g id="Group_30" data-name="Group 30" clip-path="url(#clip-path)">
        <path id="Path_17" data-name="Path 17" d="M25.437,206.387c-4.491,4.788,40.926,37.783,40.926,48.8,0,9.737-12.874,22.08-7.544,23.634s30.985-2.975,37.072-9.465c5.906-6.3,6.307-17.363-6.644-24.4-53.584-29.124-55.69-47.227-63.81-38.569" transform="translate(224.46 -53.684)" fill="#fafcff"/>
        <g id="Group_29" data-name="Group 29" transform="translate(74.686 55.886)" opacity="0.3">
          <g id="Group_28" data-name="Group 28">
            <g id="Group_27" data-name="Group 27" clip-path="url(#clip-path-9)">
              <path id="Path_18" data-name="Path 18" d="M114.022,174.791a7.264,7.264,0,0,0,5.4,3.156c15.547,1.409,30.539-6.053,39.013-11.366a7.312,7.312,0,0,1,10.291,2.826c4.274,7.47,13.966,18.183,35.2,22.118,21.932,4.07,34.319-8.28,40.335-17.537A7.249,7.249,0,0,1,255,172.06c9.767,7.91,24.863,7.28,38.719,4.227a7.294,7.294,0,0,0,4.385-2.865c-50.715-43.308-100.085-97.6-100.085-97.6s-20.19,54.107-84,98.974" transform="translate(-114.022 -75.817)" fill="#00005e"/>
            </g>
          </g>
        </g>
      </g>
    </g>
    <g id="Group_33" data-name="Group 33" transform="translate(52.386 1.676)">
      <g id="Group_32" data-name="Group 32" clip-path="url(#clip-path-10)">
        <rect id="Rectangle_33" data-name="Rectangle 33" width="281.139" height="162.835" transform="translate(-19.933 -0.001)" fill="url(#linear-gradient-3)"/>
      </g>
    </g>
    <g id="Group_35" data-name="Group 35">
      <g id="Group_34" data-name="Group 34" clip-path="url(#clip-path)">
        <path id="Path_21" data-name="Path 21" d="M282.589,240.379c23.187-13.6,44.292-21.253,38.386-7.084s-.738,23.614,12.549,23.614,27.313,5.51,27.313,14.168,9.6,15.743,19.193,16.53,33.044,3.649,16.153,15.6-47.9,15.886-58.229-4.58,5.909-20.49-27.312-19.691-42.079-10.221-40.6-18.092-2.214-11.807,12.549-20.465" transform="translate(-258.256 -59.339)" fill="#eaf2fe"/>
      </g>
    </g>
  </g>
</svg>
