<svg xmlns="http://www.w3.org/2000/svg" xmlns:xlink="http://www.w3.org/1999/xlink" width="914.637" height="417.913" viewBox="0 0 914.637 417.913">
  <defs>
    <clipPath id="clip-path">
      <rect id="Rectangle_35" data-name="Rectangle 35" width="242.457" height="251.073" fill="none"/>
    </clipPath>
    <clipPath id="clip-path-3">
      <rect id="Rectangle_25" data-name="Rectangle 25" width="240.319" height="155.325" fill="none"/>
    </clipPath>
    <clipPath id="clip-path-4">
      <path id="Path_12" data-name="Path 12" d="M126.913,170.6c.067.106.134.217.2.323.295.473.59.947.89,1.425,15.449,24.412,38.459,47.18,62.977,65.69q2.7,2.037,5.419,4,6.25,4.534,12.568,8.662,1.444.943,2.843,1.842,3.363,2.163,6.487,4.12c.339.211.679.423,1.012.634,14.476,9.108,24.261,15.271,23.238,23.086-3.243,24.779-40.868,3.552-41.241,3.346.178.451,9.8,24.589-3.633,34.014h-.005a17.655,17.655,0,0,1-4.15,2.137,22,22,0,0,1-2.259.69c-22.03,5.517-44.506-21.333-45.763-22.863-.039-.045-.056-.067-.056-.067s0,.028-.005.083c-.034.323-.156,1.531-.506,3.285-1.592,8.05-7.844,27.5-30.849,23.982-28.518-4.354-19.661-30.813-19.438-31.47-.423.685-19.638,31.365-40.9,22.029-21.068-9.258-2.854-36.046-2.119-37.115-1.079,1.136-40.262,42.22-48.223,10.038-4.629-18.677,5.9-25.307,22.4-33.758.946-.485,1.914-.98,2.9-1.475,1.158-.59,2.337-1.186,3.539-1.8q.9-.459,1.819-.935c.612-.311,1.229-.634,1.847-.958a169.062,169.062,0,0,0,20.984-12.693q2.036-1.469,4.095-3.045c.372-.278.74-.568,1.113-.858q1.268-.985,2.543-2c.434-.345.873-.7,1.313-1.057,2.954-2.4,5.925-4.926,8.873-7.532.461-.4.918-.813,1.38-1.225,3.677-3.284,7.321-6.675,10.859-10.081q1.285-1.236,2.554-2.483,2.653-2.588,5.213-5.161c.417-.423.834-.84,1.246-1.258,5.6-5.656,10.742-11.106,15.138-15.883.311-.334.617-.668.918-1,.346-.378.7-.757,1.035-1.13l.868-.952c.205-.234.417-.462.623-.685l.479-.529c.356-.4.712-.8,1.062-1.18.557-.613,1.085-1.208,1.6-1.782.724-.807,1.4-1.575,2.042-2.293.128-.139.25-.278.373-.418.139-.167.284-.328.422-.484.217-.245.429-.479.629-.713,1.83-2.087,3.2-3.685,4.034-4.648.028-.028.05-.056.078-.083.534-.635.818-.969.818-.969.239.4.484.8.728,1.2" transform="translate(-2.301 -169.403)" fill="none"/>
    </clipPath>
    <linearGradient id="linear-gradient" x1="1.001" y1="1.023" x2="0.999" y2="1.023" gradientUnits="objectBoundingBox">
      <stop offset="0" stop-color="#fff"/>
      <stop offset="1" stop-color="#7da1e2"/>
    </linearGradient>
    <clipPath id="clip-path-6">
      <rect id="Rectangle_28" data-name="Rectangle 28" width="190.349" height="110.322" fill="none"/>
    </clipPath>
    <clipPath id="clip-path-7">
      <path id="Path_16" data-name="Path 16" d="M199.9,144.847q3.751,3.2,7.508,6.274a269.494,269.494,0,0,0,27.169,19.891c33.936,21.154-23.493,30.061-39.156,21.154,0,0,3.654,24.494-25.582,23.381S131.2,194.393,131.2,194.393,106.139,223.9,84.733,212.764c-20.727-10.784-11.1-23.654-10.473-24.456-.459.473-6.254,5.918-29.728,2.188-24.538-3.9-19.928-20.019-4.7-27.278A207.792,207.792,0,0,0,61.5,151.282q4.259-2.688,8.2-5.466c45.13-31.732,59.409-70,59.409-70s34.917,38.4,70.784,69.03" transform="translate(-27.27 -75.817)" fill="none"/>
    </clipPath>
    <linearGradient id="linear-gradient-2" x1="0.963" y1="1.428" x2="0.961" y2="1.428" xlink:href="#linear-gradient"/>
    <clipPath id="clip-path-9">
      <rect id="Rectangle_31" data-name="Rectangle 31" width="130.193" height="82.399" fill="none"/>
    </clipPath>
    <clipPath id="clip-path-10">
      <path id="Path_19" data-name="Path 19" d="M172.466,7.543a334.884,334.884,0,0,0,63.61,70.025c26.579,22.166-34.425,35.416-48.521,9.808,0,0-6.265,30.062-30.281,25.608s-24.016-25.051-24.016-25.051S104.543,112.984,84.182,98.51,97.7,66.922,120.206,49.521C132.42,40.079,144.812,21.689,153,8.046a11.352,11.352,0,0,1,19.47-.5" transform="translate(-77.918 -2.274)" fill="none"/>
    </clipPath>
    <linearGradient id="linear-gradient-3" x1="1.104" y1="2.17" x2="1.101" y2="2.17" xlink:href="#linear-gradient"/>
    <clipPath id="clip-path-12">
      <rect id="Rectangle_35-2" data-name="Rectangle 35" width="201.413" height="208.571" fill="none"/>
    </clipPath>
    <clipPath id="clip-path-14">
      <rect id="Rectangle_25-2" data-name="Rectangle 25" width="199.637" height="129.031" fill="none"/>
    </clipPath>
    <clipPath id="clip-path-15">
      <path id="Path_12-2" data-name="Path 12" d="M105.818,170.4c.055.088.111.181.167.268.245.393.49.786.739,1.184,12.834,20.279,31.949,39.193,52.316,54.57q2.239,1.692,4.5,3.325,5.192,3.766,10.44,7.2,1.2.783,2.362,1.53,2.794,1.8,5.389,3.423c.282.175.564.351.841.527,12.026,7.566,20.154,12.686,19.3,19.178-2.694,20.584-33.95,2.951-34.26,2.779.148.375,8.144,20.426-3.018,28.256h0a14.667,14.667,0,0,1-3.448,1.776,18.283,18.283,0,0,1-1.876.573c-18.3,4.583-36.972-17.721-38.017-18.993-.032-.037-.046-.056-.046-.056s0,.023,0,.069c-.028.268-.129,1.272-.421,2.729-1.322,6.687-6.516,22.841-25.627,19.923-23.69-3.617-16.333-25.6-16.148-26.143-.351.569-16.314,26.055-33.978,18.3-17.5-7.691-2.371-29.944-1.76-30.832-.9.944-33.446,35.073-40.059,8.338-3.845-15.515,4.9-21.023,18.606-28.043.786-.4,1.59-.814,2.407-1.226.962-.49,1.941-.985,2.94-1.5q.748-.381,1.511-.777c.508-.259,1.021-.527,1.534-.8a140.444,140.444,0,0,0,17.432-10.544q1.692-1.221,3.4-2.529c.309-.231.615-.472.924-.712q1.053-.819,2.112-1.665c.36-.286.725-.582,1.09-.878,2.454-1.993,4.922-4.093,7.371-6.257.383-.333.763-.676,1.146-1.018,3.054-2.728,6.082-5.545,9.021-8.375q1.067-1.026,2.122-2.063,2.2-2.15,4.33-4.287c.346-.351.693-.7,1.035-1.045,4.649-4.7,8.924-9.226,12.575-13.194.259-.278.513-.555.762-.828.287-.314.578-.629.86-.939l.721-.791c.171-.194.346-.384.518-.569l.4-.44c.3-.333.591-.661.882-.98.463-.509.9-1,1.327-1.48.6-.67,1.165-1.309,1.7-1.905.106-.116.208-.231.31-.347.116-.139.236-.273.351-.4.181-.2.356-.4.522-.592,1.521-1.734,2.662-3.061,3.351-3.861.023-.023.041-.046.065-.069.443-.527.679-.805.679-.805.2.333.4.661.605.994" transform="translate(-2.301 -169.403)" fill="none"/>
    </clipPath>
    <clipPath id="clip-path-17">
      <rect id="Rectangle_28-2" data-name="Rectangle 28" width="158.127" height="91.647" fill="none"/>
    </clipPath>
    <clipPath id="clip-path-18">
      <path id="Path_16-2" data-name="Path 16" d="M170.673,133.162q3.116,2.657,6.237,5.212a223.871,223.871,0,0,0,22.57,16.524c28.191,17.573-19.516,24.972-32.528,17.573,0,0,3.036,20.348-21.252,19.423s-32.094-17.574-32.094-17.574-20.818,24.511-38.6,15.262c-17.219-8.958-9.225-19.65-8.7-20.316-.382.393-5.2,4.916-24.7,1.818-20.384-3.238-16.555-16.63-3.9-22.66a172.617,172.617,0,0,0,18-9.916q3.538-2.233,6.813-4.541c37.49-26.36,49.352-58.15,49.352-58.15s29.006,31.9,58.8,57.345" transform="translate(-27.27 -75.817)" fill="none"/>
    </clipPath>
    <clipPath id="clip-path-20">
      <rect id="Rectangle_31-2" data-name="Rectangle 31" width="108.154" height="68.45" fill="none"/>
    </clipPath>
    <clipPath id="clip-path-21">
      <path id="Path_19-2" data-name="Path 19" d="M156.461,6.651A278.2,278.2,0,0,0,209.3,64.822c22.079,18.414-28.6,29.421-40.307,8.148,0,0-5.2,24.973-25.155,21.273s-19.95-20.81-19.95-20.81-23.854,20.81-40.769,8.787,11.227-26.241,29.926-40.7c10.146-7.843,20.44-23.121,27.239-34.455a9.43,9.43,0,0,1,16.174-.417" transform="translate(-77.918 -2.274)" fill="none"/>
    </clipPath>
    <clipPath id="clip-path-23">
      <rect id="Rectangle_100" data-name="Rectangle 100" width="231.253" height="134.193" fill="none"/>
    </clipPath>
    <clipPath id="clip-path-24">
      <path id="Path_87" data-name="Path 87" d="M7.879,45.208V133.36h95.43V45.208L55.594,3.574Z" transform="translate(-7.879 -3.574)" fill="none"/>
    </clipPath>
    <linearGradient id="linear-gradient-7" x1="-0.102" y1="1" x2="-0.089" y2="1" gradientUnits="objectBoundingBox">
      <stop offset="0" stop-color="#fad5e5"/>
      <stop offset="0.01" stop-color="#f9d3e2"/>
      <stop offset="0.233" stop-color="#f7b2b7"/>
      <stop offset="0.45" stop-color="#f59895"/>
      <stop offset="0.654" stop-color="#f4867d"/>
      <stop offset="0.843" stop-color="#f37a6f"/>
      <stop offset="1" stop-color="#f3776a"/>
    </linearGradient>
    <clipPath id="clip-path-25">
      <rect id="Rectangle_103" data-name="Rectangle 103" width="119.635" height="88.152" fill="none"/>
    </clipPath>
    <linearGradient id="linear-gradient-8" x1="-0.878" y1="1" x2="-0.867" y2="1" gradientUnits="objectBoundingBox">
      <stop offset="0" stop-color="#fad5e5"/>
      <stop offset="0.099" stop-color="#f9ccd5"/>
      <stop offset="0.352" stop-color="#f8b8b4"/>
      <stop offset="0.594" stop-color="#f7a99b"/>
      <stop offset="0.816" stop-color="#f7a18d"/>
      <stop offset="1" stop-color="#f79e88"/>
    </linearGradient>
    <clipPath id="clip-path-26">
      <rect id="Rectangle_105" data-name="Rectangle 105" width="30.578" height="17.833" fill="none"/>
    </clipPath>
    <linearGradient id="linear-gradient-9" x1="-4.522" y1="6.509" x2="-4.482" y2="6.509" xlink:href="#linear-gradient-8"/>
    <clipPath id="clip-path-28">
      <rect id="Rectangle_108" data-name="Rectangle 108" width="28.065" height="66.114" fill="none"/>
    </clipPath>
    <linearGradient id="linear-gradient-10" x1="-4.624" y1="1" x2="-4.58" y2="1" gradientUnits="objectBoundingBox">
      <stop offset="0" stop-color="#fff"/>
      <stop offset="1" stop-color="#ffdba3"/>
    </linearGradient>
    <clipPath id="clip-path-29">
      <rect id="Rectangle_110" data-name="Rectangle 110" width="28.065" height="33.056" fill="none"/>
    </clipPath>
    <linearGradient id="linear-gradient-11" x1="-6.435" y1="1.833" x2="-6.391" y2="1.833" xlink:href="#linear-gradient-10"/>
    <clipPath id="clip-path-30">
      <rect id="Rectangle_112" data-name="Rectangle 112" width="13.289" height="14.115" fill="none"/>
    </clipPath>
    <linearGradient id="linear-gradient-12" x1="-11.163" y1="7.96" x2="-11.07" y2="7.96" xlink:href="#linear-gradient-10"/>
    <clipPath id="clip-path-31">
      <rect id="Rectangle_114" data-name="Rectangle 114" width="39.603" height="33.056" fill="none"/>
    </clipPath>
    <linearGradient id="linear-gradient-13" x1="-0.95" y1="1.833" x2="-0.919" y2="1.833" xlink:href="#linear-gradient-10"/>
  </defs>
  <g id="Group_157" data-name="Group 157" transform="translate(2.717 -1259.927)">
    <path id="Path_74" data-name="Path 74" d="M1005.363,1679.374c136.143-1.716,169.66,98.578,299.567,141.093s153.526-47.239,318.862-23.62,309.414,113.374,295.243,167.7-913.672,68.911-913.672,68.911Z" transform="translate(-1008.08 -355.617)" fill="#ebebff"/>
    <path id="Path_85" data-name="Path 85" d="M2452.8,1488.209c-84.409-21.8-202.285,8.9-267.246,23.063-15.751,3.435-28.422,5.9-36.692,6.384-42.192,2.464-114.295,16.978-23.248,46.552s426.7-6.376,489.994-23.627,25.537-55.45-44.413-43.128S2452.8,1488.209,2452.8,1488.209Z" transform="translate(-2057.901 6.401)" fill="#dbdbee"/>
    <g id="Group_64" data-name="Group 64" transform="translate(194.5 1259.927)">
      <g id="Group_36" data-name="Group 36" clip-path="url(#clip-path)">
        <g id="Group_17" data-name="Group 17">
          <g id="Group_16" data-name="Group 16" clip-path="url(#clip-path)">
            <g id="Group_15" data-name="Group 15" transform="translate(0.938 95.748)" opacity="0.3">
              <g id="Group_14" data-name="Group 14">
                <g id="Group_13" data-name="Group 13" clip-path="url(#clip-path-3)">
                  <path id="Path_11" data-name="Path 11" d="M3.4,302.1c5.294,21.4,24.391,10.405,36.911.3a2.992,2.992,0,0,1,4.747,3.187c-2.614,8.426-2.723,18.577,8.684,23.59,13.6,5.969,26.355-4.421,33.9-12.87a3.2,3.2,0,0,1,5.571,1.961c.424,8.017,4.457,17.845,20.87,20.35,15.821,2.416,23.885-7.592,27.9-16.7a6.906,6.906,0,0,1,10.99-2.3c8.752,7.981,23.7,18.227,38.294,14.573a21.961,21.961,0,0,0,2.259-.69,17.627,17.627,0,0,0,4.15-2.138h.005c9.015-6.324,7.648-19.272,5.719-27.243a3.129,3.129,0,0,1,4.306-3.611c10.97,4.893,32.435,11.939,34.849-6.505,1.024-7.816-8.762-13.978-23.238-23.086-.334-.212-.674-.423-1.013-.635q-3.121-1.962-6.486-4.12-1.4-.9-2.843-1.842-6.3-4.126-12.567-8.662-2.721-1.963-5.419-4c-24.517-18.51-47.527-41.279-62.977-65.69-.3-.479-.595-.952-.89-1.425-.067-.106-.133-.217-.2-.323l-.085-.139a.893.893,0,0,0-1.446-.108l-.016.019c-.028.028-.05.056-.078.084-.829.963-2.2,2.561-4.033,4.648-.2.234-.412.468-.629.713-.139.156-.284.318-.423.484-.123.139-.244.278-.373.418-.64.718-1.318,1.486-2.042,2.293-.512.573-1.041,1.169-1.6,1.781-.35.384-.706.779-1.062,1.18l-.479.529c-.206.223-.417.451-.623.684l-.868.952c-.339.373-.69.752-1.035,1.13-.3.328-.606.663-.918,1-4.395,4.777-9.541,10.227-15.138,15.883-.411.418-.829.835-1.246,1.258q-2.554,2.564-5.213,5.161-1.268,1.244-2.553,2.483c-3.539,3.407-7.182,6.8-10.86,10.082-.462.412-.918.824-1.38,1.225-2.949,2.605-5.919,5.132-8.873,7.532-.439.356-.879.713-1.313,1.058q-1.277,1.019-2.543,2c-.373.289-.74.579-1.113.857q-2.061,1.579-4.095,3.046A169.125,169.125,0,0,1,35.9,263.173c-.618.323-1.235.645-1.847.957s-1.218.629-1.819.935c-1.2.618-2.381,1.214-3.538,1.8-.985.5-1.953.991-2.9,1.475C9.294,276.8-1.232,283.426,3.4,302.1" transform="translate(-2.301 -183.662)" fill="#00005e"/>
                </g>
              </g>
            </g>
          </g>
        </g>
        <g id="Group_19" data-name="Group 19" transform="translate(0.939 88.314)">
          <g id="Group_18" data-name="Group 18" clip-path="url(#clip-path-4)">
            <rect id="Rectangle_27" data-name="Rectangle 27" width="244.802" height="159.104" transform="translate(-3.533 0)" fill="url(#linear-gradient)"/>
          </g>
        </g>
        <g id="Group_24" data-name="Group 24">
          <g id="Group_23" data-name="Group 23" clip-path="url(#clip-path)">
            <path id="Path_13" data-name="Path 13" d="M421.894,329.952c1.783,1.3-10.57,11.134-10.57,17.257s1.669,13.917,10.57,15.031,10.566,1.906,7.786,5.685-19.915,13.74-27.759,9.038-11.182-23.63-5.062-31.98,24.518-15.409,25.035-15.031" transform="translate(-393.695 -157.933)" fill="#eaf2fe"/>
            <path id="Path_14" data-name="Path 14" d="M1.007,367.618c2.492,2.962,9.319,7.543,17.041,12.776,14.515,9.837,23.905,9.425,31.549,6.1a37.878,37.878,0,0,0,4.15-2.138h.006c8.451-4.954,7.688-13.422,7.688-18.621s1.113-10.945,4.451-9.274S79.8,359.8,85.68,359.9s10.809-3.446,13.591-11.8-4.451-12.247-6.676-13.917c-1.018-.768-9.313-6.43-18.1-12.242-10.364-6.859-21.4-13.917-21.958-13.366a.664.664,0,0,0-.062.067c-2.014,2.193,1.213,8.935,5.068,18.3.044.106.083.206.123.312,3.555,9.263-6.2,14.362-6.8,20.286-1.113,11.134-2.782,23.938-32.823,18.321-8.974-1.676-14.125-2.1-16.473-1.553-.022.005-.045.011-.062.017-1.941.468-1.908,1.62-.506,3.284" transform="translate(142.558 -147.695)" fill="#eaf2fe"/>
            <g id="Group_22" data-name="Group 22" transform="translate(26.738 89.012)" opacity="0.3">
              <g id="Group_21" data-name="Group 21">
                <g id="Group_20" data-name="Group 20" clip-path="url(#clip-path-6)">
                  <path id="Path_15" data-name="Path 15" d="M49.546,255.969c.011,0,.022.006.033.006a92.049,92.049,0,0,0,15.2,1.3c5.557-.056,10.492,3.619,12.562,9.124,1.419,3.774,4.94,7.95,12.439,11.847,13.252,6.891,27.905-1.793,37.146-9.408a12.784,12.784,0,0,1,16.9.523c5.936,5.35,15.795,11.089,31.049,11.668,15.232.579,21.535-5.784,24.084-12.019a13.141,13.141,0,0,1,13.429-8.233c3.054.3,6.4.529,9.764.523,5.463-.011,10.982-.645,15.4-2.627a2.311,2.311,0,0,0,1.307-1.364,2.693,2.693,0,0,0,.123-1.325c-10.365-6.858-21.4-13.917-21.958-13.366a.593.593,0,0,0-.061.067q-2.721-1.963-5.419-4c-22.131-13.645-46.487-39.5-62.977-65.69-.3-.473-.6-.952-.89-1.425-.067-.106-.133-.217-.2-.323a1,1,0,0,0-1.547-.228c-.028.028-.05.056-.078.083-.829.963-2.2,2.561-4.033,4.649-.2.234-.412.468-.629.712-.139.156-.284.317-.423.484-.123.139-.245.278-.373.418-.64.718-1.318,1.487-2.042,2.294-.512.573-1.046,1.169-1.6,1.781-.35.384-.706.779-1.062,1.18l-.479.529c-.206.223-.417.451-.623.685q-.434.468-.868.952c-.339.373-.69.751-1.035,1.13-.3.328-.606.662-.918,1-4.395,4.776-9.541,10.226-15.138,15.883-.411.417-.829.84-1.246,1.258-1.7,1.709-3.444,3.435-5.213,5.161-.846.829-1.7,1.653-2.553,2.483-3.539,3.407-7.182,6.8-10.86,10.081-.462.412-.918.818-1.38,1.225-2.949,2.606-5.919,5.133-8.873,7.532-.439.357-.873.713-1.313,1.058q-1.277,1.019-2.542,2c-.367.289-.74.573-1.113.857q-2.061,1.578-4.1,3.045a169.115,169.115,0,0,1-20.984,12.693c-.618.323-1.235.646-1.847.958s-1.218.629-1.819.935c-1.2.618-2.381,1.214-3.538,1.8a1.123,1.123,0,0,0,.289,2.087" transform="translate(-48.664 -170.741)" fill="#00005e"/>
                </g>
              </g>
            </g>
          </g>
        </g>
        <g id="Group_26" data-name="Group 26" transform="translate(10.389 39.525)">
          <g id="Group_25" data-name="Group 25" clip-path="url(#clip-path-7)">
            <rect id="Rectangle_30" data-name="Rectangle 30" width="248.514" height="148.081" transform="translate(-7.276 0)" fill="url(#linear-gradient-2)"/>
          </g>
        </g>
        <g id="Group_31" data-name="Group 31">
          <g id="Group_30" data-name="Group 30" clip-path="url(#clip-path)">
            <path id="Path_17" data-name="Path 17" d="M25.345,205.751c-3.176,3.386,28.944,26.722,28.944,34.515,0,6.886-9.1,15.616-5.335,16.715s21.914-2.1,26.219-6.694c4.177-4.454,4.46-12.28-4.7-17.258-37.9-20.6-39.387-33.4-45.13-27.278" transform="translate(151.393 -97.752)" fill="#fafcff"/>
            <g id="Group_29" data-name="Group 29" transform="translate(52.821 39.525)" opacity="0.3">
              <g id="Group_28" data-name="Group 28">
                <g id="Group_27" data-name="Group 27" clip-path="url(#clip-path-9)">
                  <path id="Path_18" data-name="Path 18" d="M114.022,145.816a5.137,5.137,0,0,0,3.822,2.232c11,1,21.6-4.281,27.592-8.039a5.171,5.171,0,0,1,7.278,2c3.023,5.283,9.878,12.86,24.893,15.643,15.511,2.878,24.272-5.856,28.527-12.4a5.127,5.127,0,0,1,7.6-1.364c6.908,5.594,17.584,5.149,27.384,2.989a5.158,5.158,0,0,0,3.1-2.026c-35.868-30.629-70.785-69.03-70.785-69.03s-14.279,38.267-59.408,70" transform="translate(-114.022 -75.817)" fill="#00005e"/>
                </g>
              </g>
            </g>
          </g>
        </g>
        <g id="Group_33" data-name="Group 33" transform="translate(37.05 1.185)">
          <g id="Group_32" data-name="Group 32" clip-path="url(#clip-path-10)">
            <rect id="Rectangle_33" data-name="Rectangle 33" width="198.834" height="115.164" transform="translate(-14.098 0)" fill="url(#linear-gradient-3)"/>
          </g>
        </g>
        <g id="Group_35" data-name="Group 35">
          <g id="Group_34" data-name="Group 34" clip-path="url(#clip-path)">
            <path id="Path_21" data-name="Path 21" d="M278.87,236.089c16.4-9.617,31.325-15.031,27.149-5.01s-.522,16.7,8.876,16.7,19.317,3.9,19.317,10.02S341,268.934,347.786,269.49s23.37,2.581,11.424,11.033-33.874,11.235-41.183-3.239,4.179-14.492-19.316-13.926-29.76-7.229-28.716-12.8-1.566-8.351,8.876-14.474" transform="translate(-261.661 -108.049)" fill="#eaf2fe"/>
          </g>
        </g>
      </g>
    </g>
    <g id="Group_65" data-name="Group 65" transform="translate(337.586 1338.715)">
      <g id="Group_36-2" data-name="Group 36" clip-path="url(#clip-path-12)">
        <g id="Group_17-2" data-name="Group 17">
          <g id="Group_16-2" data-name="Group 16" clip-path="url(#clip-path-12)">
            <g id="Group_15-2" data-name="Group 15" transform="translate(0.78 79.539)" opacity="0.3">
              <g id="Group_14-2" data-name="Group 14">
                <g id="Group_13-2" data-name="Group 13" clip-path="url(#clip-path-14)">
                  <path id="Path_11-2" data-name="Path 11" d="M3.211,282.053c4.4,17.776,20.262,8.644,30.663.25a2.486,2.486,0,0,1,3.944,2.647c-2.172,7-2.262,15.433,7.214,19.6,11.294,4.959,21.893-3.673,28.16-10.691a2.655,2.655,0,0,1,4.628,1.629c.353,6.66,3.7,14.824,17.337,16.905C108.3,314.4,115,306.083,118.33,298.52a5.737,5.737,0,0,1,9.129-1.908c7.27,6.63,19.688,15.142,31.812,12.106a18.25,18.25,0,0,0,1.876-.573,14.644,14.644,0,0,0,3.448-1.776h0c7.489-5.253,6.353-16.009,4.751-22.632a2.6,2.6,0,0,1,3.577-3c9.113,4.064,26.944,9.918,28.95-5.4.851-6.493-7.279-11.612-19.3-19.178-.278-.176-.56-.352-.841-.527q-2.593-1.63-5.388-3.422-1.165-.749-2.362-1.531-5.234-3.427-10.44-7.2-2.261-1.631-4.5-3.325c-20.367-15.377-39.482-34.291-52.316-54.57-.249-.4-.494-.791-.739-1.184-.055-.088-.111-.181-.166-.269l-.071-.115a.742.742,0,0,0-1.2-.09l-.013.016c-.023.023-.042.046-.065.07-.689.8-1.83,2.127-3.351,3.861-.166.194-.342.388-.522.592-.116.129-.236.264-.351.4-.1.116-.2.231-.31.347-.531.6-1.1,1.235-1.7,1.905-.425.476-.864.971-1.326,1.48-.291.319-.587.647-.883.981l-.4.44c-.171.185-.346.375-.518.569l-.721.791c-.282.31-.573.624-.86.939-.249.273-.5.55-.763.828-3.651,3.968-7.926,8.5-12.575,13.194-.342.347-.689.694-1.035,1.045q-2.122,2.13-4.33,4.287-1.054,1.033-2.121,2.063c-2.94,2.83-5.966,5.646-9.021,8.375-.384.342-.763.684-1.146,1.017-2.449,2.164-4.917,4.264-7.371,6.257-.365.3-.73.592-1.09.879q-1.061.846-2.112,1.665c-.31.24-.615.481-.924.712q-1.712,1.312-3.4,2.53A140.5,140.5,0,0,1,30.21,249.713c-.513.268-1.026.536-1.534.8s-1.012.523-1.511.777c-1,.514-1.978,1.008-2.939,1.5-.818.411-1.622.823-2.408,1.226C8.11,261.03-.634,266.537,3.211,282.053" transform="translate(-2.301 -183.662)" fill="#00005e"/>
                </g>
              </g>
            </g>
          </g>
        </g>
        <g id="Group_19-2" data-name="Group 19" transform="translate(0.78 73.364)">
          <g id="Group_18-2" data-name="Group 18" clip-path="url(#clip-path-15)">
            <rect id="Rectangle_27-2" data-name="Rectangle 27" width="203.361" height="132.17" transform="translate(-2.935 0)" fill="url(#linear-gradient)"/>
          </g>
        </g>
        <g id="Group_24-2" data-name="Group 24">
          <g id="Group_23-2" data-name="Group 23" clip-path="url(#clip-path-12)">
            <path id="Path_13-2" data-name="Path 13" d="M417.12,329.949c1.481,1.084-8.781,9.249-8.781,14.336s1.387,11.561,8.781,12.486,8.777,1.583,6.468,4.723-16.544,11.414-23.06,7.508-9.289-19.629-4.206-26.566,20.368-12.8,20.8-12.486" transform="translate(-393.695 -187.05)" fill="#eaf2fe"/>
            <path id="Path_14-2" data-name="Path 14" d="M.836,357.618c2.071,2.46,7.741,6.266,14.156,10.613C27.05,376.4,34.851,376.061,41.2,373.3a31.469,31.469,0,0,0,3.448-1.776h0c7.02-4.116,6.387-11.15,6.387-15.469s.924-9.092,3.7-7.7,11.554,2.775,16.439,2.863,8.979-2.863,11.29-9.8-3.7-10.174-5.546-11.561c-.846-.638-7.736-5.342-15.034-10.169-8.61-5.7-17.779-11.561-18.241-11.1a.554.554,0,0,0-.051.055c-1.673,1.822,1.008,7.423,4.21,15.206.037.088.069.171.1.259,2.953,7.7-5.153,11.931-5.648,16.852-.924,9.249-2.311,19.886-27.267,15.22-7.455-1.392-11.734-1.744-13.684-1.29l-.051.014c-1.613.388-1.585,1.346-.421,2.728" transform="translate(118.426 -174.925)" fill="#eaf2fe"/>
            <g id="Group_22-2" data-name="Group 22" transform="translate(22.212 73.944)" opacity="0.3">
              <g id="Group_21-2" data-name="Group 21">
                <g id="Group_20-2" data-name="Group 20" clip-path="url(#clip-path-17)">
                  <path id="Path_15-2" data-name="Path 15" d="M49.4,241.541c.009,0,.019,0,.028,0a76.465,76.465,0,0,0,12.626,1.077,11.208,11.208,0,0,1,10.435,7.58c1.178,3.135,4.1,6.6,10.334,9.841,11.009,5.725,23.182-1.489,30.858-7.816a10.62,10.62,0,0,1,14.04.435c4.931,4.444,13.121,9.212,25.793,9.693,12.654.481,17.89-4.8,20.007-9.985a10.917,10.917,0,0,1,11.156-6.84c2.537.249,5.315.439,8.111.434,4.538-.009,9.123-.536,12.792-2.183a1.92,1.92,0,0,0,1.086-1.133,2.237,2.237,0,0,0,.1-1.1c-8.61-5.7-17.779-11.561-18.241-11.1a.492.492,0,0,0-.051.056q-2.261-1.631-4.5-3.325c-18.384-11.335-38.617-32.816-52.316-54.57-.249-.393-.495-.791-.739-1.184-.055-.088-.111-.18-.166-.268a.828.828,0,0,0-1.285-.19c-.023.023-.042.046-.065.069-.689.8-1.83,2.127-3.351,3.862-.166.194-.342.388-.522.592-.116.13-.236.264-.351.4-.1.116-.2.231-.31.347-.531.6-1.1,1.235-1.7,1.906-.425.476-.869.971-1.326,1.48-.291.319-.587.647-.883.98l-.4.439c-.171.185-.346.375-.518.569q-.361.388-.721.791c-.282.31-.573.624-.86.939-.249.273-.5.55-.763.828-3.651,3.968-7.926,8.5-12.575,13.194-.342.346-.689.7-1.035,1.045-1.414,1.42-2.861,2.854-4.33,4.287-.7.689-1.41,1.373-2.121,2.063-2.94,2.83-5.966,5.646-9.021,8.375-.384.342-.763.68-1.146,1.017-2.449,2.165-4.917,4.264-7.371,6.257-.365.3-.725.592-1.09.879q-1.061.847-2.112,1.665c-.3.24-.615.476-.924.712q-1.712,1.311-3.4,2.53a140.489,140.489,0,0,1-17.432,10.544c-.513.268-1.026.537-1.534.8s-1.012.522-1.511.777c-1,.513-1.978,1.008-2.939,1.5a.933.933,0,0,0,.24,1.734" transform="translate(-48.664 -170.741)" fill="#00005e"/>
                </g>
              </g>
            </g>
          </g>
        </g>
        <g id="Group_26-2" data-name="Group 26" transform="translate(8.63 32.834)">
          <g id="Group_25-2" data-name="Group 25" clip-path="url(#clip-path-18)">
            <rect id="Rectangle_30-2" data-name="Rectangle 30" width="206.445" height="123.014" transform="translate(-6.044 0)" fill="url(#linear-gradient-2)"/>
          </g>
        </g>
        <g id="Group_31-2" data-name="Group 31">
          <g id="Group_30-2" data-name="Group 30" clip-path="url(#clip-path-12)">
            <path id="Path_17-2" data-name="Path 17" d="M25.308,205.491c-2.638,2.813,24.045,22.2,24.045,28.672,0,5.72-7.564,12.972-4.432,13.886s18.2-1.748,21.781-5.561c3.47-3.7,3.705-10.2-3.9-14.336-31.482-17.111-32.719-27.747-37.49-22.66" transform="translate(121.512 -115.774)" fill="#fafcff"/>
            <g id="Group_29-2" data-name="Group 29" transform="translate(43.88 32.834)" opacity="0.3">
              <g id="Group_28-2" data-name="Group 28">
                <g id="Group_27-2" data-name="Group 27" clip-path="url(#clip-path-20)">
                  <path id="Path_18-2" data-name="Path 18" d="M114.022,133.966a4.268,4.268,0,0,0,3.175,1.854c9.134.828,17.942-3.556,22.921-6.678a4.3,4.3,0,0,1,6.046,1.66c2.511,4.389,8.205,10.683,20.679,12.995,12.886,2.391,20.163-4.865,23.7-10.3a4.259,4.259,0,0,1,6.31-1.133c5.738,4.647,14.608,4.277,22.748,2.483a4.285,4.285,0,0,0,2.576-1.683c-29.8-25.444-58.8-57.345-58.8-57.345s-11.862,31.789-49.351,58.149" transform="translate(-114.022 -75.817)" fill="#00005e"/>
                </g>
              </g>
            </g>
          </g>
        </g>
        <g id="Group_33-2" data-name="Group 33" transform="translate(30.778 0.985)">
          <g id="Group_32-2" data-name="Group 32" clip-path="url(#clip-path-21)">
            <rect id="Rectangle_33-2" data-name="Rectangle 33" width="165.175" height="95.669" transform="translate(-11.711 0)" fill="url(#linear-gradient-3)"/>
          </g>
        </g>
        <g id="Group_35-2" data-name="Group 35">
          <g id="Group_34-2" data-name="Group 34" clip-path="url(#clip-path-12)">
            <path id="Path_21-2" data-name="Path 21" d="M277.35,234.334c13.623-7.989,26.023-12.486,22.553-4.162s-.434,13.874,7.373,13.874,16.047,3.237,16.047,8.324,5.638,9.249,11.276,9.712,19.414,2.144,9.49,9.165-28.139,9.333-34.211-2.691,3.472-12.039-16.046-11.569-24.722-6.005-23.855-10.629-1.3-6.937,7.373-12.024" transform="translate(-263.053 -127.969)" fill="#eaf2fe"/>
          </g>
        </g>
      </g>
    </g>
    <g id="Group_116" data-name="Group 116" transform="translate(84.29 1421.671)">
      <g id="Group_99" data-name="Group 99">
        <g id="Group_98" data-name="Group 98" clip-path="url(#clip-path-23)">
          <path id="Path_86" data-name="Path 86" d="M221.2,46.037H33.021L43.3,0,172.89.433,222.7,41.87a2.356,2.356,0,0,1-1.507,4.167" transform="translate(7.696)" fill="#f2f3f4"/>
        </g>
      </g>
      <g id="Group_101" data-name="Group 101" transform="translate(9.715 4.407)">
        <g id="Group_100" data-name="Group 100" clip-path="url(#clip-path-24)">
          <rect id="Rectangle_101" data-name="Rectangle 101" width="95.43" height="129.786" transform="translate(0)" fill="url(#linear-gradient-7)"/>
        </g>
      </g>
      <g id="Group_103" data-name="Group 103" transform="translate(105.001 46.041)">
        <g id="Group_102" data-name="Group 102" clip-path="url(#clip-path-25)">
          <rect id="Rectangle_102" data-name="Rectangle 102" width="119.635" height="88.152" transform="translate(0 0)" fill="url(#linear-gradient-8)"/>
        </g>
      </g>
      <g id="Group_105" data-name="Group 105" transform="translate(138.277 18.126)">
        <g id="Group_104" data-name="Group 104" clip-path="url(#clip-path-26)">
          <rect id="Rectangle_104" data-name="Rectangle 104" width="30.578" height="17.833" fill="url(#linear-gradient-9)"/>
        </g>
      </g>
      <g id="Group_107" data-name="Group 107">
        <g id="Group_106" data-name="Group 106" clip-path="url(#clip-path-23)">
          <path id="Path_88" data-name="Path 88" d="M127.126.992l-16.77,16.971a1.115,1.115,0,0,0,.793,1.9h33.54a1.116,1.116,0,0,0,.794-1.9L128.713.992a1.116,1.116,0,0,0-1.587,0" transform="translate(25.646 0.154)" fill="#dae8f2"/>
          <path id="Path_89" data-name="Path 89" d="M9.714,46.042,1.33,45.925A1.347,1.347,0,0,1,.47,43.557L51,0,57.43,4.381Z" transform="translate(0)" fill="#dae8f2"/>
        </g>
      </g>
      <g id="Group_109" data-name="Group 109" transform="translate(129.78 68.079)">
        <g id="Group_108" data-name="Group 108" clip-path="url(#clip-path-28)">
          <rect id="Rectangle_107" data-name="Rectangle 107" width="28.065" height="66.114" transform="translate(0)" fill="url(#linear-gradient-10)"/>
        </g>
      </g>
      <g id="Group_111" data-name="Group 111" transform="translate(180.586 73.589)">
        <g id="Group_110" data-name="Group 110" clip-path="url(#clip-path-29)">
          <rect id="Rectangle_109" data-name="Rectangle 109" width="28.065" height="33.056" transform="translate(0 0)" fill="url(#linear-gradient-11)"/>
        </g>
      </g>
      <g id="Group_113" data-name="Group 113" transform="translate(148.339 21.844)">
        <g id="Group_112" data-name="Group 112" clip-path="url(#clip-path-30)">
          <rect id="Rectangle_111" data-name="Rectangle 111" width="13.289" height="14.115" transform="translate(0 0)" fill="url(#linear-gradient-12)"/>
        </g>
      </g>
      <g id="Group_115" data-name="Group 115" transform="translate(37.628 73.589)">
        <g id="Group_114" data-name="Group 114" clip-path="url(#clip-path-31)">
          <rect id="Rectangle_113" data-name="Rectangle 113" width="39.603" height="33.056" transform="translate(0)" fill="url(#linear-gradient-13)"/>
        </g>
      </g>
    </g>
  </g>
</svg>
