<svg xmlns="http://www.w3.org/2000/svg" xmlns:xlink="http://www.w3.org/1999/xlink" width="660.325" height="316.82" viewBox="0 0 660.325 316.82">
  <defs>
    <clipPath id="clip-path">
      <rect id="Rectangle_35" data-name="Rectangle 35" width="212.571" height="220.125" fill="none"/>
    </clipPath>
    <clipPath id="clip-path-3">
      <rect id="Rectangle_25" data-name="Rectangle 25" width="210.697" height="136.18" fill="none"/>
    </clipPath>
    <clipPath id="clip-path-4">
      <path id="Path_12" data-name="Path 12" d="M111.553,170.452c.059.093.117.191.176.283.258.415.517.83.78,1.25,13.545,21.4,33.719,41.364,55.214,57.593q2.363,1.786,4.751,3.509,5.48,3.975,11.018,7.595,1.266.827,2.492,1.615,2.949,1.9,5.687,3.612c.3.185.6.371.888.556,12.692,7.985,21.271,13.388,20.374,20.241-2.843,21.724-35.83,3.114-36.158,2.933.156.4,8.595,21.558-3.185,29.822h0a15.48,15.48,0,0,1-3.639,1.874,19.3,19.3,0,0,1-1.98.605c-19.315,4.837-39.02-18.7-40.123-20.045-.034-.039-.049-.059-.049-.059s0,.025,0,.073c-.03.283-.137,1.342-.444,2.88-1.4,7.058-6.877,24.106-27.046,21.026C75.3,302,83.063,278.8,83.258,278.224c-.371.6-17.218,27.5-35.86,19.313-18.471-8.117-2.5-31.6-1.858-32.54-.946,1-35.3,37.016-42.279,8.8C-.8,257.423,8.432,251.61,22.9,244.2c.829-.425,1.678-.859,2.541-1.294,1.015-.517,2.049-1.04,3.1-1.581q.79-.4,1.6-.82c.536-.273,1.078-.556,1.619-.84a148.223,148.223,0,0,0,18.4-11.128q1.785-1.288,3.59-2.669c.326-.244.649-.5.975-.752q1.111-.864,2.229-1.757c.38-.3.766-.615,1.151-.927,2.59-2.1,5.195-4.319,7.78-6.6.4-.351.8-.713,1.21-1.074,3.224-2.88,6.419-5.852,9.521-8.839q1.126-1.083,2.239-2.177,2.326-2.269,4.57-4.524c.366-.371.731-.737,1.092-1.1,4.907-4.959,9.418-9.737,13.272-13.925.273-.293.541-.585.8-.873.3-.332.61-.664.908-.991l.761-.835c.18-.2.366-.4.546-.6l.42-.464c.312-.352.624-.7.931-1.034.488-.537.951-1.059,1.4-1.562.634-.708,1.229-1.381,1.79-2.011.112-.122.219-.244.327-.366.122-.146.249-.288.37-.425.191-.215.376-.42.551-.625,1.6-1.83,2.81-3.231,3.537-4.075.024-.025.043-.049.068-.073.468-.557.717-.85.717-.85.209.352.424.7.639,1.049" transform="translate(-2.301 -169.403)" fill="none"/>
    </clipPath>
    <linearGradient id="linear-gradient" x1="1.001" y1="1.023" x2="0.999" y2="1.023" gradientUnits="objectBoundingBox">
      <stop offset="0" stop-color="#fff"/>
      <stop offset="1" stop-color="#7da1e2"/>
    </linearGradient>
    <clipPath id="clip-path-6">
      <rect id="Rectangle_28" data-name="Rectangle 28" width="166.887" height="96.724" fill="none"/>
    </clipPath>
    <clipPath id="clip-path-7">
      <path id="Path_16" data-name="Path 16" d="M178.617,136.338q3.289,2.8,6.582,5.5a236.278,236.278,0,0,0,23.82,17.439c29.753,18.547-20.6,26.356-34.33,18.547,0,0,3.2,21.475-22.429,20.5s-33.872-18.547-33.872-18.547S96.417,205.646,77.65,195.884c-18.172-9.454-9.736-20.738-9.182-21.441-.4.415-5.483,5.188-26.063,1.918-21.513-3.417-17.472-17.551-4.12-23.916a182.185,182.185,0,0,0,19-10.465q3.734-2.357,7.191-4.792c39.567-27.821,52.086-61.371,52.086-61.371s30.613,33.667,62.06,60.521" transform="translate(-27.27 -75.817)" fill="none"/>
    </clipPath>
    <linearGradient id="linear-gradient-2" x1="0.963" y1="1.428" x2="0.961" y2="1.428" xlink:href="#linear-gradient"/>
    <clipPath id="clip-path-9">
      <rect id="Rectangle_31" data-name="Rectangle 31" width="114.145" height="72.242" fill="none"/>
    </clipPath>
    <clipPath id="clip-path-10">
      <path id="Path_19" data-name="Path 19" d="M160.812,6.894a293.606,293.606,0,0,0,55.769,61.394c23.3,19.434-30.181,31.051-42.54,8.6,0,0-5.493,26.356-26.549,22.452s-21.056-21.963-21.056-21.963S101.262,99.338,83.41,86.648,95.259,58.953,114.994,43.7c10.708-8.278,21.573-24.4,28.748-36.363a9.953,9.953,0,0,1,17.071-.441" transform="translate(-77.918 -2.274)" fill="none"/>
    </clipPath>
    <linearGradient id="linear-gradient-3" x1="1.104" y1="2.17" x2="1.101" y2="2.17" xlink:href="#linear-gradient"/>
    <clipPath id="clip-path-12">
      <rect id="Rectangle_35-2" data-name="Rectangle 35" width="163.648" height="169.464" fill="none"/>
    </clipPath>
    <clipPath id="clip-path-14">
      <rect id="Rectangle_25-2" data-name="Rectangle 25" width="162.205" height="104.838" fill="none"/>
    </clipPath>
    <clipPath id="clip-path-15">
      <path id="Path_12-2" data-name="Path 12" d="M86.409,170.211c.045.071.09.147.135.218.2.32.4.639.6.962,10.427,16.477,25.958,31.844,42.507,44.338q1.819,1.375,3.657,2.7,4.219,3.06,8.483,5.847.974.637,1.919,1.244,2.27,1.46,4.378,2.781c.229.143.458.285.683.428,9.771,6.147,16.375,10.307,15.685,15.582-2.189,16.724-27.584,2.4-27.836,2.258.12.3,6.617,16.6-2.452,22.958h0a11.916,11.916,0,0,1-2.8,1.443,14.851,14.851,0,0,1-1.525.466c-14.869,3.724-30.04-14.4-30.888-15.432-.026-.03-.038-.045-.038-.045s0,.019,0,.056c-.023.218-.105,1.033-.342,2.217-1.074,5.433-5.295,18.558-20.822,16.187-19.248-2.939-13.27-20.8-13.12-21.241-.285.462-13.255,21.17-27.607,14.868C22.8,261.8,35.093,243.718,35.589,243c-.728.767-27.175,28.5-32.548,6.775-3.124-12.606,3.98-17.081,15.117-22.785.638-.327,1.292-.661,1.956-1,.782-.4,1.577-.8,2.389-1.217q.608-.31,1.228-.631c.413-.21.83-.428,1.247-.646a114.108,114.108,0,0,0,14.164-8.567q1.374-.992,2.764-2.055c.251-.188.5-.383.751-.579q.856-.665,1.716-1.353c.293-.233.589-.473.886-.714,1.994-1.62,4-3.325,5.989-5.084.311-.271.62-.549.931-.827,2.482-2.217,4.941-4.505,7.33-6.8q.867-.834,1.724-1.676,1.791-1.747,3.518-3.483c.281-.285.563-.567.841-.849,3.777-3.817,7.251-7.5,10.217-10.72.21-.226.417-.451.619-.672.233-.255.47-.511.7-.763l.586-.643c.139-.158.281-.312.42-.462l.323-.357c.24-.271.48-.537.717-.8.376-.413.732-.816,1.078-1.2.488-.545.946-1.063,1.378-1.548.086-.094.169-.188.252-.282.094-.113.191-.222.285-.327.147-.165.289-.323.424-.481,1.235-1.409,2.163-2.487,2.723-3.137.019-.019.033-.038.052-.056.36-.429.552-.654.552-.654.161.271.327.537.492.808" transform="translate(-2.301 -169.403)" fill="none"/>
    </clipPath>
    <clipPath id="clip-path-17">
      <rect id="Rectangle_28-2" data-name="Rectangle 28" width="128.478" height="74.463" fill="none"/>
    </clipPath>
    <clipPath id="clip-path-18">
      <path id="Path_16-2" data-name="Path 16" d="M143.785,122.409q2.532,2.159,5.067,4.235A181.9,181.9,0,0,0,167.19,140.07c22.906,14.278-15.857,20.29-26.429,14.278,0,0,2.467,16.533-17.267,15.781s-26.076-14.279-26.076-14.279-16.915,19.915-31.363,12.4c-13.99-7.279-7.5-15.966-7.069-16.507-.31.319-4.221,3.994-20.065,1.477-16.562-2.631-13.451-13.512-3.171-18.411a140.256,140.256,0,0,0,14.624-8.056q2.875-1.815,5.536-3.689c30.461-21.418,40.1-47.247,40.1-47.247s23.567,25.919,47.777,46.592" transform="translate(-27.27 -75.817)" fill="none"/>
    </clipPath>
    <clipPath id="clip-path-20">
      <rect id="Rectangle_31-2" data-name="Rectangle 31" width="87.875" height="55.616" fill="none"/>
    </clipPath>
    <clipPath id="clip-path-21">
      <path id="Path_19-2" data-name="Path 19" d="M141.734,5.83a226.033,226.033,0,0,0,42.934,47.264c17.94,14.961-23.235,23.9-32.749,6.62,0,0-4.229,20.29-20.439,17.284s-16.21-16.909-16.21-16.909S95.889,77,82.146,67.229s9.122-21.321,24.315-33.065c8.244-6.373,16.608-18.786,22.132-27.994a7.662,7.662,0,0,1,13.142-.339" transform="translate(-77.918 -2.274)" fill="none"/>
    </clipPath>
    <clipPath id="clip-path-23">
      <rect id="Rectangle_35-3" data-name="Rectangle 35" width="261.63" height="270.927" fill="none"/>
    </clipPath>
    <clipPath id="clip-path-25">
      <rect id="Rectangle_25-3" data-name="Rectangle 25" width="259.322" height="167.608" fill="none"/>
    </clipPath>
    <clipPath id="clip-path-26">
      <path id="Path_12-3" data-name="Path 12" d="M136.767,170.695c.072.114.145.235.217.348.318.511.636,1.022.96,1.538,16.671,26.342,41.5,50.911,67.957,70.885q2.909,2.2,5.847,4.319,6.745,4.892,13.561,9.347,1.558,1.018,3.068,1.988,3.629,2.334,7,4.446c.366.228.732.456,1.092.684,15.621,9.828,26.18,16.478,25.076,24.912-3.5,26.738-44.1,3.833-44.5,3.61.192.487,10.578,26.533-3.92,36.7h-.006a19.051,19.051,0,0,1-4.478,2.306,23.743,23.743,0,0,1-2.437.745c-23.772,5.953-48.025-23.02-49.382-24.671-.042-.048-.06-.073-.06-.073s0,.03-.006.09c-.037.349-.168,1.652-.546,3.545-1.717,8.686-8.465,29.669-33.288,25.879-30.773-4.7-21.215-33.25-20.975-33.959-.456.739-21.191,33.845-44.136,23.771-22.734-9.99-3.079-38.9-2.287-40.05-1.164,1.226-43.446,45.559-52.036,10.831-4.995-20.154,6.363-27.308,24.169-36.427,1.02-.523,2.065-1.057,3.127-1.592,1.249-.637,2.522-1.28,3.819-1.946q.972-.5,1.963-1.009c.66-.336,1.327-.685,1.993-1.033a182.43,182.43,0,0,0,22.644-13.7q2.2-1.586,4.419-3.285c.4-.3.8-.613,1.2-.925q1.368-1.063,2.744-2.163c.468-.372.942-.757,1.416-1.141,3.187-2.589,6.393-5.316,9.575-8.128.5-.433.991-.878,1.489-1.322,3.968-3.544,7.9-7.2,11.718-10.879q1.386-1.333,2.756-2.679,2.863-2.793,5.625-5.569c.45-.456.9-.907,1.344-1.357,6.039-6.1,11.592-11.985,16.335-17.139.336-.361.666-.721.99-1.075.373-.408.751-.817,1.117-1.22q.478-.522.937-1.027c.222-.252.45-.5.672-.739l.516-.571c.384-.433.768-.858,1.146-1.273.6-.661,1.171-1.3,1.723-1.923.781-.871,1.513-1.7,2.2-2.475.138-.15.27-.3.4-.451.15-.18.306-.354.456-.523.235-.264.462-.517.678-.769,1.975-2.252,3.458-3.977,4.353-5.016.03-.03.053-.06.084-.09.576-.685.883-1.046.883-1.046.258.433.522.859.786,1.292" transform="translate(-2.301 -169.403)" fill="none"/>
    </clipPath>
    <clipPath id="clip-path-28">
      <rect id="Rectangle_28-3" data-name="Rectangle 28" width="205.402" height="119.046" fill="none"/>
    </clipPath>
    <clipPath id="clip-path-29">
      <path id="Path_16-3" data-name="Path 16" d="M213.546,150.306q4.048,3.451,8.1,6.77a290.806,290.806,0,0,0,29.317,21.464c36.62,22.827-25.351,32.438-42.253,22.827,0,0,3.943,26.431-27.605,25.23s-41.689-22.828-41.689-22.828-27.042,31.839-50.141,19.824c-22.366-11.636-11.983-25.525-11.3-26.39-.5.51-6.749,6.385-32.078,2.361-26.478-4.206-21.5-21.6-5.07-29.435a224.226,224.226,0,0,0,23.38-12.88q4.6-2.9,8.85-5.9c48.7-34.241,64.107-75.535,64.107-75.535s37.678,41.437,76.382,74.489" transform="translate(-27.27 -75.817)" fill="none"/>
    </clipPath>
    <clipPath id="clip-path-31">
      <rect id="Rectangle_31-3" data-name="Rectangle 31" width="140.488" height="88.915" fill="none"/>
    </clipPath>
    <clipPath id="clip-path-32">
      <path id="Path_19-3" data-name="Path 19" d="M179.943,7.96a361.366,361.366,0,0,0,68.64,75.562c28.681,23.919-37.147,38.217-52.358,10.584,0,0-6.761,32.439-32.676,27.633s-25.915-27.032-25.915-27.032-30.986,27.032-52.957,11.414S99.261,72.034,123.55,53.257C136.729,43.069,150.1,23.224,158.933,8.5a12.25,12.25,0,0,1,21.01-.542" transform="translate(-77.918 -2.274)" fill="none"/>
    </clipPath>
  </defs>
  <g id="Group_156" data-name="Group 156" transform="translate(-1240 -1782.85)">
    <path id="Path_93" data-name="Path 93" d="M3325.528,1813.48c56.066-38.747,144.17-31.169,206.644,0s159.388,2.825,206.644-28.354,131.356-31.179,195.431,5.669" transform="translate(-2045.528 264.007)" fill="none" stroke="#ececff" stroke-linecap="round" stroke-width="17"/>
    <g id="Group_155" data-name="Group 155" transform="translate(0 -1245.223)">
      <g id="Group_121" data-name="Group 121" transform="translate(1406.865 3028.073)">
        <g id="Group_36" data-name="Group 36" clip-path="url(#clip-path)">
          <g id="Group_17" data-name="Group 17">
            <g id="Group_16" data-name="Group 16" clip-path="url(#clip-path)">
              <g id="Group_15" data-name="Group 15" transform="translate(0.823 83.946)" opacity="0.3">
                <g id="Group_14" data-name="Group 14">
                  <g id="Group_13" data-name="Group 13" clip-path="url(#clip-path-3)">
                    <path id="Path_11" data-name="Path 11" d="M3.262,287.5c4.641,18.761,21.384,9.123,32.362.264a2.623,2.623,0,0,1,4.162,2.794c-2.292,7.388-2.388,16.287,7.613,20.682,11.92,5.233,23.106-3.876,29.72-11.284A2.8,2.8,0,0,1,82,301.679c.372,7.029,3.908,15.645,18.3,17.842,13.871,2.118,20.941-6.656,24.457-14.638a6.055,6.055,0,0,1,9.635-2.014c7.673,7,20.779,15.98,33.574,12.776a19.252,19.252,0,0,0,1.98-.605,15.455,15.455,0,0,0,3.639-1.874h0c7.9-5.544,6.705-16.9,5.014-23.885a2.743,2.743,0,0,1,3.775-3.166c9.618,4.29,28.437,10.468,30.553-5.7.9-6.852-7.682-12.255-20.373-20.24-.293-.186-.591-.371-.888-.557q-2.736-1.72-5.687-3.612-1.229-.79-2.493-1.615-5.524-3.617-11.018-7.595-2.386-1.721-4.751-3.509c-21.5-16.229-41.669-36.191-55.214-57.593-.263-.42-.522-.835-.78-1.249-.059-.093-.117-.191-.176-.283l-.075-.122a.783.783,0,0,0-1.267-.1l-.014.016c-.024.025-.044.049-.068.074-.727.844-1.932,2.245-3.536,4.075-.176.205-.361.41-.551.625-.122.137-.249.278-.371.425-.107.122-.214.244-.327.366-.561.629-1.156,1.3-1.79,2.011-.449.5-.912,1.025-1.4,1.562-.307.337-.619.683-.931,1.035l-.42.464c-.181.2-.366.4-.546.6l-.761.835c-.3.327-.6.659-.907.991-.263.288-.532.581-.8.873-3.853,4.188-8.365,8.966-13.272,13.925-.361.366-.727.732-1.092,1.1q-2.239,2.248-4.57,4.524-1.112,1.091-2.239,2.177c-3.1,2.987-6.3,5.959-9.521,8.839-.4.361-.8.722-1.21,1.074-2.585,2.284-5.19,4.5-7.78,6.6-.385.312-.771.625-1.151.927q-1.12.893-2.229,1.757c-.327.254-.649.508-.975.751q-1.807,1.384-3.59,2.67a148.281,148.281,0,0,1-18.4,11.128c-.542.283-1.083.566-1.619.839s-1.068.552-1.6.82c-1.054.542-2.087,1.064-3.1,1.581-.863.434-1.712.869-2.541,1.293C8.432,265.316-.8,271.129,3.262,287.5" transform="translate(-2.301 -183.662)" fill="#00005e"/>
                  </g>
                </g>
              </g>
            </g>
          </g>
          <g id="Group_19" data-name="Group 19" transform="translate(0.823 77.428)">
            <g id="Group_18" data-name="Group 18" clip-path="url(#clip-path-4)">
              <rect id="Rectangle_27" data-name="Rectangle 27" width="214.627" height="139.492" transform="translate(-3.098 0)" fill="url(#linear-gradient)"/>
            </g>
          </g>
          <g id="Group_24" data-name="Group 24">
            <g id="Group_23" data-name="Group 23" clip-path="url(#clip-path)">
              <path id="Path_13" data-name="Path 13" d="M418.418,329.95c1.563,1.144-9.268,9.762-9.268,15.13s1.464,12.2,9.268,13.178,9.263,1.671,6.826,4.984-17.46,12.046-24.337,7.924-9.8-20.717-4.439-28.038,21.5-13.51,21.949-13.178" transform="translate(-393.695 -179.134)" fill="#eaf2fe"/>
              <path id="Path_14" data-name="Path 14" d="M.882,360.337c2.185,2.6,8.17,6.613,14.94,11.2,12.726,8.624,20.959,8.263,27.66,5.344a33.209,33.209,0,0,0,3.639-1.874h.005c7.409-4.344,6.741-11.767,6.741-16.326s.975-9.6,3.9-8.131,12.194,2.928,17.35,3.021,9.477-3.021,11.916-10.343-3.9-10.738-5.853-12.2c-.893-.674-8.165-5.637-15.867-10.733-9.087-6.013-18.764-12.2-19.252-11.719a.584.584,0,0,0-.054.058c-1.766,1.923,1.064,7.834,4.444,16.048.039.093.073.181.107.273,3.117,8.122-5.439,12.592-5.961,17.785-.975,9.761-2.439,20.987-28.777,16.063-7.867-1.469-12.384-1.84-14.442-1.362-.02,0-.039.01-.054.015-1.7.41-1.673,1.42-.444,2.879" transform="translate(124.986 -167.522)" fill="#eaf2fe"/>
              <g id="Group_22" data-name="Group 22" transform="translate(23.442 78.04)" opacity="0.3">
                <g id="Group_21" data-name="Group 21">
                  <g id="Group_20" data-name="Group 20" clip-path="url(#clip-path-6)">
                    <path id="Path_15" data-name="Path 15" d="M49.437,245.464c.01,0,.02.005.029.005a80.7,80.7,0,0,0,13.326,1.137,11.829,11.829,0,0,1,11.014,8c1.244,3.309,4.331,6.97,10.906,10.386,11.619,6.042,24.466-1.572,32.568-8.249a11.208,11.208,0,0,1,14.818.459c5.2,4.69,13.848,9.722,27.222,10.23,13.355.507,18.881-5.071,21.115-10.538a11.521,11.521,0,0,1,11.774-7.218c2.678.263,5.61.464,8.56.458,4.79-.01,9.628-.566,13.5-2.3a2.026,2.026,0,0,0,1.146-1.2,2.361,2.361,0,0,0,.107-1.162c-9.087-6.013-18.764-12.2-19.252-11.719a.518.518,0,0,0-.053.059q-2.386-1.721-4.751-3.509c-19.4-11.963-40.757-34.634-55.214-57.593-.263-.415-.522-.835-.78-1.25-.058-.093-.117-.19-.176-.283a.874.874,0,0,0-1.356-.2c-.024.024-.044.049-.068.073-.727.845-1.932,2.245-3.536,4.076-.176.2-.361.41-.551.624-.122.137-.249.278-.371.425-.107.122-.215.244-.327.366-.561.63-1.156,1.3-1.79,2.011-.449.5-.917,1.025-1.4,1.562-.307.337-.619.683-.932,1.035l-.42.463c-.181.2-.366.4-.546.6q-.381.41-.761.835c-.3.327-.6.659-.907.991-.263.288-.532.58-.8.873-3.853,4.188-8.365,8.966-13.272,13.925-.361.366-.727.737-1.092,1.1-1.493,1.5-3.019,3.012-4.57,4.524-.741.727-1.488,1.449-2.239,2.177-3.1,2.987-6.3,5.959-9.521,8.839-.4.361-.8.718-1.21,1.074-2.585,2.284-5.19,4.5-7.78,6.6-.385.313-.766.625-1.151.927q-1.12.893-2.229,1.757c-.322.254-.649.5-.975.751q-1.807,1.384-3.59,2.67a148.272,148.272,0,0,1-18.4,11.128c-.542.283-1.083.566-1.619.84s-1.068.551-1.6.82c-1.054.542-2.087,1.064-3.1,1.581a.984.984,0,0,0,.254,1.83" transform="translate(-48.664 -170.741)" fill="#00005e"/>
                  </g>
                </g>
              </g>
            </g>
          </g>
          <g id="Group_26" data-name="Group 26" transform="translate(9.108 34.653)">
            <g id="Group_25" data-name="Group 25" clip-path="url(#clip-path-7)">
              <rect id="Rectangle_30" data-name="Rectangle 30" width="217.881" height="129.829" transform="translate(-6.379 0)" fill="url(#linear-gradient-2)"/>
            </g>
          </g>
          <g id="Group_31" data-name="Group 31">
            <g id="Group_30" data-name="Group 30" clip-path="url(#clip-path)">
              <path id="Path_17" data-name="Path 17" d="M25.318,205.562c-2.784,2.969,25.377,23.428,25.377,30.261,0,6.037-7.983,13.691-4.678,14.655S65.23,248.632,69,244.608c3.662-3.9,3.911-10.766-4.12-15.131-33.226-18.059-34.532-29.284-39.567-23.916" transform="translate(129.636 -110.875)" fill="#fafcff"/>
              <g id="Group_29" data-name="Group 29" transform="translate(46.31 34.653)" opacity="0.3">
                <g id="Group_28" data-name="Group 28">
                  <g id="Group_27" data-name="Group 27" clip-path="url(#clip-path-9)">
                    <path id="Path_18" data-name="Path 18" d="M114.022,137.188a4.5,4.5,0,0,0,3.351,1.957c9.64.873,18.936-3.753,24.191-7.048a4.534,4.534,0,0,1,6.381,1.752c2.65,4.632,8.66,11.274,21.824,13.715,13.6,2.523,21.28-5.134,25.011-10.874a4.5,4.5,0,0,1,6.66-1.2c6.056,4.9,15.417,4.514,24.008,2.621a4.522,4.522,0,0,0,2.719-1.777c-31.447-26.854-62.06-60.521-62.06-60.521s-12.519,33.55-52.085,61.371" transform="translate(-114.022 -75.817)" fill="#00005e"/>
                  </g>
                </g>
              </g>
            </g>
          </g>
          <g id="Group_33" data-name="Group 33" transform="translate(32.483 1.039)">
            <g id="Group_32" data-name="Group 32" clip-path="url(#clip-path-10)">
              <rect id="Rectangle_33" data-name="Rectangle 33" width="174.326" height="100.969" transform="translate(-12.36 0)" fill="url(#linear-gradient-3)"/>
            </g>
          </g>
          <g id="Group_35" data-name="Group 35">
            <g id="Group_34" data-name="Group 34" clip-path="url(#clip-path)">
              <path id="Path_21" data-name="Path 21" d="M277.763,234.811c14.378-8.432,27.464-13.178,23.8-4.393s-.458,14.643,7.781,14.643,16.936,3.417,16.936,8.785,5.951,9.762,11.9,10.25,20.489,2.263,10.016,9.673-29.7,9.85-36.106-2.84,3.664-12.706-16.935-12.21-26.092-6.338-25.177-11.218-1.373-7.321,7.782-12.69" transform="translate(-262.675 -122.553)" fill="#eaf2fe"/>
            </g>
          </g>
        </g>
      </g>
      <g id="Group_123" data-name="Group 123" transform="translate(1240 3151.536)">
        <g id="Group_36-2" data-name="Group 36" clip-path="url(#clip-path-12)">
          <g id="Group_17-2" data-name="Group 17">
            <g id="Group_16-2" data-name="Group 16" clip-path="url(#clip-path-12)">
              <g id="Group_15-2" data-name="Group 15" transform="translate(0.633 64.626)" opacity="0.3">
                <g id="Group_14-2" data-name="Group 14">
                  <g id="Group_13-2" data-name="Group 13" clip-path="url(#clip-path-14)">
                    <path id="Path_11-2" data-name="Path 11" d="M3.041,263.6c3.573,14.443,16.463,7.023,24.914.2a2.02,2.02,0,0,1,3.2,2.151c-1.765,5.687-1.838,12.539,5.861,15.922,9.176,4.029,17.788-2.984,22.88-8.687a2.157,2.157,0,0,1,3.76,1.324c.286,5.411,3.009,12.045,14.087,13.736,10.679,1.631,16.121-5.124,18.828-11.269a4.661,4.661,0,0,1,7.417-1.55c5.907,5.387,16,12.3,25.847,9.836a14.816,14.816,0,0,0,1.525-.466,11.9,11.9,0,0,0,2.8-1.443h0c6.085-4.268,5.162-13.008,3.86-18.388a2.112,2.112,0,0,1,2.906-2.437c7.4,3.3,21.892,8.059,23.522-4.391.691-5.275-5.914-9.435-15.684-15.582-.226-.143-.455-.286-.684-.429q-2.107-1.324-4.378-2.781-.946-.609-1.919-1.244-4.253-2.785-8.482-5.847-1.837-1.325-3.658-2.7C113.1,217.068,97.573,201.7,87.145,185.224c-.2-.323-.4-.643-.6-.962-.045-.071-.09-.147-.135-.218l-.057-.094a.6.6,0,0,0-.976-.073l-.011.013c-.019.019-.034.038-.052.057-.559.65-1.487,1.728-2.722,3.137-.135.158-.278.316-.424.481-.094.105-.191.214-.285.327-.083.094-.165.188-.252.282-.432.485-.89,1-1.378,1.548-.346.387-.7.789-1.078,1.2-.236.259-.477.526-.717.8l-.323.357c-.139.15-.281.3-.42.462l-.586.643c-.229.252-.466.507-.7.763-.2.222-.409.447-.62.672-2.966,3.224-6.44,6.9-10.217,10.72-.278.282-.559.564-.841.849q-1.724,1.731-3.518,3.483-.856.84-1.723,1.676c-2.389,2.3-4.848,4.588-7.33,6.8-.312.278-.62.556-.931.827-1.99,1.758-4,3.464-5.989,5.084-.3.24-.593.481-.886.714q-.862.688-1.716,1.353c-.252.2-.5.391-.751.578q-1.391,1.066-2.764,2.056a114.154,114.154,0,0,1-14.164,8.567c-.417.218-.834.436-1.247.646s-.822.425-1.228.631c-.811.417-1.607.819-2.388,1.217-.665.334-1.318.669-1.956,1C7.021,246.523-.084,251,3.041,263.6" transform="translate(-2.301 -183.662)" fill="#00005e"/>
                  </g>
                </g>
              </g>
            </g>
          </g>
          <g id="Group_19-2" data-name="Group 19" transform="translate(0.634 59.608)">
            <g id="Group_18-2" data-name="Group 18" clip-path="url(#clip-path-15)">
              <rect id="Rectangle_27-2" data-name="Rectangle 27" width="165.231" height="107.388" transform="translate(-2.385 0)" fill="url(#linear-gradient)"/>
            </g>
          </g>
          <g id="Group_24-2" data-name="Group 24">
            <g id="Group_23-2" data-name="Group 23" clip-path="url(#clip-path-12)">
              <path id="Path_13-2" data-name="Path 13" d="M412.728,329.947c1.2.881-7.135,7.515-7.135,11.648s1.127,9.394,7.135,10.145,7.131,1.286,5.255,3.837-13.442,9.274-18.736,6.1-7.547-15.949-3.417-21.585,16.549-10.4,16.9-10.145" transform="translate(-393.695 -213.841)" fill="#eaf2fe"/>
              <path id="Path_14-2" data-name="Path 14" d="M.679,348.418c1.682,2,6.29,5.091,11.5,8.623,9.8,6.639,16.135,6.361,21.294,4.114a25.569,25.569,0,0,0,2.8-1.443h0c5.7-3.344,5.189-9.059,5.189-12.569s.751-7.387,3-6.26,9.388,2.254,13.357,2.326,7.3-2.326,9.173-7.962-3-8.266-4.506-9.394c-.687-.519-6.286-4.34-12.215-8.263-7-4.629-14.445-9.394-14.821-9.022a.446.446,0,0,0-.042.045c-1.359,1.48.819,6.031,3.421,12.355.03.071.056.139.083.21,2.4,6.252-4.187,9.694-4.589,13.692-.751,7.515-1.878,16.157-22.154,12.366-6.057-1.131-9.534-1.417-11.118-1.048l-.042.011c-1.31.316-1.288,1.093-.342,2.217" transform="translate(96.221 -199.98)" fill="#eaf2fe"/>
              <g id="Group_22-2" data-name="Group 22" transform="translate(18.047 60.079)" opacity="0.3">
                <g id="Group_21-2" data-name="Group 21">
                  <g id="Group_20-2" data-name="Group 20" clip-path="url(#clip-path-17)">
                    <path id="Path_15-2" data-name="Path 15" d="M49.259,228.266c.007,0,.015,0,.023,0a62.126,62.126,0,0,0,10.259.875,9.106,9.106,0,0,1,8.479,6.159c.957,2.548,3.334,5.366,8.4,8,8.945,4.651,18.835-1.21,25.072-6.35a8.629,8.629,0,0,1,11.407.353c4.007,3.611,10.661,7.485,20.957,7.876,10.281.391,14.535-3.9,16.255-8.112a8.87,8.87,0,0,1,9.064-5.557c2.062.2,4.319.357,6.59.353a26.15,26.15,0,0,0,10.394-1.773,1.56,1.56,0,0,0,.882-.921,1.817,1.817,0,0,0,.083-.895c-7-4.629-14.445-9.394-14.821-9.022a.4.4,0,0,0-.041.045q-1.837-1.325-3.658-2.7c-14.937-9.21-31.377-26.663-42.507-44.338-.2-.319-.4-.642-.6-.962-.045-.071-.09-.146-.135-.218a.673.673,0,0,0-1.044-.154c-.019.019-.034.038-.052.056-.559.65-1.487,1.728-2.722,3.138-.135.158-.278.316-.424.481-.094.106-.191.214-.285.327-.083.094-.165.188-.252.282-.432.485-.89,1-1.378,1.548-.346.387-.706.789-1.078,1.2-.236.259-.477.526-.717.8l-.323.357c-.139.15-.281.3-.42.462q-.293.316-.586.642c-.229.252-.466.507-.7.763-.2.222-.409.447-.62.672-2.966,3.224-6.44,6.9-10.217,10.72-.278.281-.559.567-.841.849-1.149,1.153-2.324,2.318-3.518,3.483-.571.56-1.145,1.116-1.724,1.676-2.388,2.3-4.848,4.588-7.33,6.8-.312.278-.62.552-.931.827-1.99,1.759-4,3.465-5.989,5.084-.3.241-.589.481-.886.714q-.862.688-1.716,1.353c-.248.2-.5.387-.751.578Q69.463,214.8,68.09,215.8a114.147,114.147,0,0,1-14.164,8.567c-.417.218-.834.436-1.247.646s-.822.424-1.228.631c-.811.417-1.607.819-2.388,1.217a.758.758,0,0,0,.2,1.409" transform="translate(-48.664 -170.741)" fill="#00005e"/>
                  </g>
                </g>
              </g>
            </g>
          </g>
          <g id="Group_26-2" data-name="Group 26" transform="translate(7.012 26.678)">
            <g id="Group_25-2" data-name="Group 25" clip-path="url(#clip-path-18)">
              <rect id="Rectangle_30-2" data-name="Rectangle 30" width="167.736" height="99.949" transform="translate(-4.911 0)" fill="url(#linear-gradient-2)"/>
            </g>
          </g>
          <g id="Group_31-2" data-name="Group 31">
            <g id="Group_30-2" data-name="Group 30" clip-path="url(#clip-path-12)">
              <path id="Path_17-2" data-name="Path 17" d="M25.273,205.251c-2.144,2.285,19.536,18.036,19.536,23.3,0,4.648-6.145,10.54-3.6,11.282s14.791-1.42,17.7-4.518c2.819-3.006,3.011-8.288-3.171-11.648-25.579-13.9-26.584-22.544-30.461-18.411" transform="translate(94.018 -132.357)" fill="#fafcff"/>
              <g id="Group_29-2" data-name="Group 29" transform="translate(35.652 26.678)" opacity="0.3">
                <g id="Group_28-2" data-name="Group 28">
                  <g id="Group_27-2" data-name="Group 27" clip-path="url(#clip-path-20)">
                    <path id="Path_18-2" data-name="Path 18" d="M114.022,123.063a3.468,3.468,0,0,0,2.58,1.507c7.421.672,14.578-2.89,18.624-5.426a3.49,3.49,0,0,1,4.913,1.349c2.04,3.566,6.667,8.68,16.8,10.558,10.47,1.943,16.382-3.953,19.254-8.371a3.461,3.461,0,0,1,5.127-.92c4.662,3.776,11.869,3.475,18.483,2.018a3.482,3.482,0,0,0,2.093-1.368c-24.209-20.674-47.777-46.592-47.777-46.592s-9.638,25.829-40.1,47.246" transform="translate(-114.022 -75.817)" fill="#00005e"/>
                  </g>
                </g>
              </g>
            </g>
          </g>
          <g id="Group_33-2" data-name="Group 33" transform="translate(25.007 0.8)">
            <g id="Group_32-2" data-name="Group 32" clip-path="url(#clip-path-21)">
              <rect id="Rectangle_33-2" data-name="Rectangle 33" width="134.205" height="77.731" transform="translate(-9.515 0)" fill="url(#linear-gradient-3)"/>
            </g>
          </g>
          <g id="Group_35-2" data-name="Group 35">
            <g id="Group_34-2" data-name="Group 34" clip-path="url(#clip-path-12)">
              <path id="Path_21-2" data-name="Path 21" d="M275.95,232.72c11.069-6.491,21.143-10.145,18.324-3.382s-.352,11.273,5.991,11.273,13.038,2.63,13.038,6.763,4.581,7.515,9.162,7.891,15.774,1.742,7.711,7.447-22.863,7.583-27.8-2.186,2.821-9.781-13.038-9.4-20.087-4.879-19.382-8.636-1.057-5.636,5.991-9.769" transform="translate(-264.335 -146.298)" fill="#eaf2fe"/>
            </g>
          </g>
        </g>
      </g>
      <g id="Group_122" data-name="Group 122" transform="translate(1550.81 3065.537)">
        <g id="Group_36-3" data-name="Group 36" clip-path="url(#clip-path-23)">
          <g id="Group_17-3" data-name="Group 17">
            <g id="Group_16-3" data-name="Group 16" clip-path="url(#clip-path-23)">
              <g id="Group_15-3" data-name="Group 15" transform="translate(1.013 103.319)" opacity="0.3">
                <g id="Group_14-3" data-name="Group 14">
                  <g id="Group_13-3" data-name="Group 13" clip-path="url(#clip-path-25)">
                    <path id="Path_11-3" data-name="Path 11" d="M3.483,311.468c5.712,23.091,26.319,11.228,39.83.325a3.229,3.229,0,0,1,5.123,3.439c-2.821,9.092-2.939,20.046,9.37,25.455,14.671,6.441,28.439-4.771,36.579-13.888a3.448,3.448,0,0,1,6.011,2.116c.458,8.651,4.81,19.256,22.521,21.96,17.072,2.607,25.774-8.192,30.1-18.016a7.452,7.452,0,0,1,11.859-2.479c9.444,8.612,25.574,19.668,41.323,15.725a23.7,23.7,0,0,0,2.438-.745,19.022,19.022,0,0,0,4.478-2.307h.006c9.728-6.824,8.253-20.8,6.171-29.4a3.376,3.376,0,0,1,4.646-3.9c11.838,5.28,35,12.883,37.6-7.02,1.1-8.434-9.455-15.084-25.075-24.911-.361-.228-.727-.457-1.093-.685q-3.368-2.117-7-4.445-1.513-.973-3.068-1.988-6.8-4.452-13.561-9.347-2.937-2.118-5.848-4.319c-26.456-19.974-51.285-44.543-67.957-70.885-.324-.516-.642-1.027-.96-1.537-.072-.114-.144-.235-.216-.349l-.092-.15a.964.964,0,0,0-1.56-.117l-.017.02c-.03.03-.054.06-.084.091-.894,1.039-2.377,2.763-4.352,5.016-.216.253-.444.5-.678.769-.15.168-.306.343-.456.523-.132.15-.264.3-.4.451-.69.775-1.423,1.6-2.2,2.475-.552.619-1.123,1.262-1.723,1.922-.378.415-.762.841-1.146,1.274l-.516.571c-.222.24-.45.487-.672.739l-.937,1.027c-.366.4-.744.811-1.117,1.22-.324.354-.654.715-.991,1.075-4.742,5.155-10.3,11.035-16.335,17.139-.444.451-.894.9-1.344,1.357q-2.756,2.767-5.625,5.569-1.369,1.343-2.755,2.679c-3.819,3.676-7.75,7.335-11.718,10.879-.5.444-.991.889-1.489,1.321-3.182,2.811-6.387,5.538-9.575,8.128-.474.384-.948.769-1.416,1.141q-1.378,1.1-2.744,2.162c-.4.312-.8.625-1.2.925q-2.224,1.7-4.419,3.286a182.5,182.5,0,0,1-22.644,13.7c-.667.348-1.333.7-1.993,1.033s-1.315.679-1.963,1.009c-1.3.667-2.569,1.31-3.818,1.946-1.063.534-2.107,1.069-3.128,1.592C9.847,284.16-1.511,291.315,3.483,311.468" transform="translate(-2.301 -183.662)" fill="#00005e"/>
                  </g>
                </g>
              </g>
            </g>
          </g>
          <g id="Group_19-3" data-name="Group 19" transform="translate(1.013 95.298)">
            <g id="Group_18-3" data-name="Group 18" clip-path="url(#clip-path-26)">
              <rect id="Rectangle_27-3" data-name="Rectangle 27" width="264.16" height="171.685" transform="translate(-3.813 0)" fill="url(#linear-gradient)"/>
            </g>
          </g>
          <g id="Group_24-3" data-name="Group 24">
            <g id="Group_23-3" data-name="Group 23" clip-path="url(#clip-path-23)">
              <path id="Path_13-3" data-name="Path 13" d="M424.123,329.953c1.924,1.408-11.406,12.014-11.406,18.622s1.8,15.018,11.406,16.219,11.4,2.057,8.4,6.135-21.49,14.826-29.954,9.752-12.066-25.5-5.463-34.509,26.457-16.628,27.015-16.219" transform="translate(-393.695 -144.331)" fill="#eaf2fe"/>
              <path id="Path_14-3" data-name="Path 14" d="M1.086,372.289c2.69,3.2,10.056,8.14,18.388,13.786,15.663,10.615,25.8,10.17,34.044,6.578A40.875,40.875,0,0,0,58,390.346H58c9.119-5.346,8.3-14.483,8.3-20.094s1.2-11.81,4.8-10.008,15.008,3.6,21.354,3.719,11.664-3.719,14.666-12.729-4.8-13.216-7.2-15.018c-1.1-.829-10.049-6.938-19.528-13.21-11.184-7.4-23.094-15.018-23.695-14.423a.719.719,0,0,0-.066.072c-2.173,2.367,1.309,9.642,5.469,19.752.048.114.09.222.132.336,3.836,10-6.694,15.5-7.336,21.89-1.2,12.014-3,25.831-35.419,19.77-9.683-1.808-15.242-2.265-17.775-1.676-.024.006-.048.012-.066.018-2.095.5-2.059,1.748-.546,3.544" transform="translate(153.831 -134.975)" fill="#eaf2fe"/>
              <g id="Group_22-3" data-name="Group 22" transform="translate(28.852 96.05)" opacity="0.3">
                <g id="Group_21-3" data-name="Group 21">
                  <g id="Group_20-3" data-name="Group 20" clip-path="url(#clip-path-28)">
                    <path id="Path_15-3" data-name="Path 15" d="M49.615,262.709c.012,0,.024.006.036.006a99.327,99.327,0,0,0,16.4,1.4c6-.06,11.322,3.9,13.555,9.846,1.531,4.073,5.331,8.578,13.423,12.783,14.3,7.436,30.112-1.935,40.084-10.152a13.8,13.8,0,0,1,18.237.565c6.406,5.773,17.044,11.966,33.5,12.591,16.437.624,23.238-6.241,25.988-12.97a14.18,14.18,0,0,1,14.491-8.884c3.3.324,6.9.57,10.536.564,5.895-.012,11.85-.7,16.617-2.835a2.494,2.494,0,0,0,1.411-1.472,2.905,2.905,0,0,0,.132-1.43c-11.184-7.4-23.094-15.018-23.695-14.423a.638.638,0,0,0-.066.073q-2.937-2.118-5.848-4.319c-23.881-14.724-50.163-42.627-67.957-70.885-.324-.511-.642-1.027-.96-1.538-.072-.114-.144-.234-.216-.348a1.075,1.075,0,0,0-1.669-.246c-.03.03-.054.06-.084.09-.894,1.04-2.377,2.763-4.352,5.016-.216.252-.444.5-.678.768-.15.169-.306.343-.456.523-.132.15-.264.3-.4.451-.69.775-1.423,1.6-2.2,2.475-.552.619-1.129,1.261-1.723,1.922-.378.415-.762.841-1.146,1.274l-.516.57c-.222.24-.45.487-.672.739q-.468.5-.937,1.027c-.366.4-.744.811-1.117,1.22-.324.354-.654.714-.991,1.075-4.742,5.154-10.3,11.035-16.335,17.139-.444.45-.894.907-1.344,1.357-1.837,1.844-3.716,3.707-5.625,5.569-.912.895-1.831,1.784-2.755,2.679-3.819,3.676-7.75,7.335-11.718,10.879-.5.444-.991.883-1.489,1.321-3.182,2.812-6.387,5.539-9.575,8.128-.474.385-.942.769-1.417,1.141q-1.378,1.1-2.744,2.163c-.4.312-.8.618-1.2.925q-2.224,1.7-4.419,3.286a182.49,182.49,0,0,1-22.644,13.7c-.667.348-1.333.7-1.993,1.033s-1.315.678-1.963,1.009c-1.3.667-2.569,1.31-3.818,1.946a1.211,1.211,0,0,0,.312,2.252" transform="translate(-48.664 -170.741)" fill="#00005e"/>
                  </g>
                </g>
              </g>
            </g>
          </g>
          <g id="Group_26-3" data-name="Group 26" transform="translate(11.211 42.651)">
            <g id="Group_25-3" data-name="Group 25" clip-path="url(#clip-path-29)">
              <rect id="Rectangle_30-3" data-name="Rectangle 30" width="268.165" height="159.791" transform="translate(-7.851 0)" fill="url(#linear-gradient-2)"/>
            </g>
          </g>
          <g id="Group_31-3" data-name="Group 31">
            <g id="Group_30-3" data-name="Group 30" clip-path="url(#clip-path-23)">
              <path id="Path_17-3" data-name="Path 17" d="M25.363,205.872C21.936,209.526,56.6,234.707,56.6,243.117c0,7.431-9.825,16.851-5.757,18.037s23.647-2.27,28.292-7.224c4.507-4.806,4.813-13.251-5.07-18.623-40.894-22.226-42.5-36.043-48.7-29.435" transform="translate(165.352 -89.334)" fill="#fafcff"/>
              <g id="Group_29-3" data-name="Group 29" transform="translate(56.998 42.651)" opacity="0.3">
                <g id="Group_28-3" data-name="Group 28">
                  <g id="Group_27-3" data-name="Group 27" clip-path="url(#clip-path-31)">
                    <path id="Path_18-3" data-name="Path 18" d="M114.022,151.351a5.544,5.544,0,0,0,4.124,2.409c11.865,1.075,23.306-4.62,29.774-8.674a5.58,5.58,0,0,1,7.854,2.157c3.262,5.7,10.659,13.876,26.861,16.88,16.738,3.106,26.191-6.319,30.783-13.384a5.533,5.533,0,0,1,8.2-1.472c7.454,6.037,18.975,5.556,29.549,3.226a5.566,5.566,0,0,0,3.347-2.187c-38.7-33.051-76.382-74.489-76.382-74.489s-15.408,41.293-64.106,75.534" transform="translate(-114.022 -75.817)" fill="#00005e"/>
                  </g>
                </g>
              </g>
            </g>
          </g>
          <g id="Group_33-3" data-name="Group 33" transform="translate(39.98 1.279)">
            <g id="Group_32-3" data-name="Group 32" clip-path="url(#clip-path-32)">
              <rect id="Rectangle_33-3" data-name="Rectangle 33" width="214.558" height="124.271" transform="translate(-15.212 -0.001)" fill="url(#linear-gradient-3)"/>
            </g>
          </g>
          <g id="Group_35-3" data-name="Group 35">
            <g id="Group_34-3" data-name="Group 34" clip-path="url(#clip-path-23)">
              <path id="Path_21-3" data-name="Path 21" d="M279.581,236.908c17.7-10.377,33.8-16.219,29.3-5.407s-.563,18.022,9.577,18.022,20.845,4.205,20.845,10.813,7.324,12.014,14.648,12.615,25.218,2.785,12.327,11.905-36.552,12.123-44.439-3.5,4.509-15.638-20.844-15.027-32.114-7.8-30.987-13.807-1.69-9.011,9.577-15.619" transform="translate(-261.01 -98.743)" fill="#eaf2fe"/>
            </g>
          </g>
        </g>
      </g>
    </g>
  </g>
</svg>
