<svg xmlns="http://www.w3.org/2000/svg" xmlns:xlink="http://www.w3.org/1999/xlink" width="663.18" height="313.803" viewBox="0 0 663.18 313.803">
  <defs>
    <clipPath id="clip-path">
      <rect id="Rectangle_35" data-name="Rectangle 35" width="247.71" height="256.513" fill="none"/>
    </clipPath>
    <clipPath id="clip-path-3">
      <rect id="Rectangle_25" data-name="Rectangle 25" width="245.526" height="158.691" fill="none"/>
    </clipPath>
    <clipPath id="clip-path-4">
      <path id="Path_12" data-name="Path 12" d="M129.613,170.626c.068.108.137.222.205.33.3.484.6.967.909,1.456,15.784,24.941,39.293,48.2,64.341,67.113q2.754,2.081,5.536,4.089,6.386,4.632,12.84,8.85,1.475.964,2.9,1.882,3.436,2.21,6.627,4.209c.347.216.693.432,1.034.648,14.79,9.3,24.787,15.6,23.742,23.587-3.313,25.316-41.753,3.629-42.135,3.418.182.461,10.015,25.122-3.712,34.751H201.9a18.039,18.039,0,0,1-4.24,2.184,22.489,22.489,0,0,1-2.308.705c-22.508,5.636-45.47-21.795-46.755-23.359-.039-.046-.057-.069-.057-.069s0,.029-.005.085c-.035.33-.159,1.564-.517,3.356-1.626,8.224-8.014,28.091-31.517,24.5-29.135-4.448-20.087-31.481-19.859-32.152-.432.7-20.064,32.044-41.788,22.506-21.524-9.458-2.916-36.827-2.165-37.919-1.1,1.161-41.134,43.135-49.267,10.255C-1.308,271.973,9.445,265.2,26.3,256.565c.966-.5,1.955-1,2.961-1.507,1.183-.6,2.388-1.212,3.615-1.843q.92-.469,1.859-.956c.625-.318,1.256-.648,1.887-.978a172.726,172.726,0,0,0,21.439-12.968q2.08-1.5,4.184-3.11c.38-.284.756-.58,1.137-.876q1.3-1.007,2.6-2.048c.443-.352.892-.716,1.341-1.08,3.018-2.452,6.053-5.033,9.066-7.7.471-.41.938-.831,1.41-1.252,3.757-3.356,7.48-6.819,11.095-10.3q1.313-1.262,2.609-2.537,2.711-2.645,5.326-5.272c.426-.432.852-.859,1.273-1.285,5.718-5.778,10.975-11.347,15.466-16.227.318-.341.631-.682.937-1.018.353-.387.711-.773,1.058-1.155l.887-.973c.21-.239.426-.472.636-.7l.489-.541c.363-.41.727-.813,1.085-1.205.569-.626,1.108-1.235,1.631-1.82.739-.824,1.432-1.61,2.086-2.343.13-.142.256-.284.381-.427.142-.17.29-.336.431-.495.222-.25.438-.489.642-.728,1.87-2.133,3.274-3.765,4.121-4.749.028-.029.051-.057.079-.085.545-.649.836-.99.836-.99.244.41.494.813.744,1.223" transform="translate(-2.301 -169.403)" fill="none"/>
    </clipPath>
    <linearGradient id="linear-gradient" x1="1.001" y1="1.023" x2="0.999" y2="1.023" gradientUnits="objectBoundingBox">
      <stop offset="0" stop-color="#fff"/>
      <stop offset="1" stop-color="#7da1e2"/>
    </linearGradient>
    <clipPath id="clip-path-6">
      <rect id="Rectangle_28" data-name="Rectangle 28" width="194.474" height="112.713" fill="none"/>
    </clipPath>
    <clipPath id="clip-path-7">
      <path id="Path_16" data-name="Path 16" d="M203.636,146.343q3.832,3.268,7.67,6.41a275.328,275.328,0,0,0,27.758,20.322c34.672,21.613-24,30.713-40,21.613,0,0,3.734,25.025-26.137,23.888s-39.471-21.613-39.471-21.613-25.6,30.145-47.473,18.77c-21.176-11.017-11.345-24.167-10.7-24.986-.469.483-6.39,6.046-30.372,2.235-25.069-3.982-20.36-20.453-4.8-27.869a212.3,212.3,0,0,0,22.136-12.195q4.352-2.747,8.379-5.585c46.107-32.42,60.7-71.516,60.7-71.516s35.673,39.233,72.318,70.526" transform="translate(-27.27 -75.817)" fill="none"/>
    </clipPath>
    <linearGradient id="linear-gradient-2" x1="0.963" y1="1.428" x2="0.961" y2="1.428" xlink:href="#linear-gradient"/>
    <clipPath id="clip-path-9">
      <rect id="Rectangle_31" data-name="Rectangle 31" width="133.014" height="84.185" fill="none"/>
    </clipPath>
    <clipPath id="clip-path-10">
      <path id="Path_19" data-name="Path 19" d="M174.515,7.657A342.14,342.14,0,0,0,239.5,79.2c27.155,22.647-35.171,36.184-49.572,10.021,0,0-6.4,30.713-30.937,26.163s-24.536-25.594-24.536-25.594S105.12,115.383,84.318,100.6s13.808-32.273,36.8-50.05c12.478-9.646,25.139-28.436,33.5-42.374a11.6,11.6,0,0,1,19.892-.513" transform="translate(-77.918 -2.274)" fill="none"/>
    </clipPath>
    <linearGradient id="linear-gradient-3" x1="1.104" y1="2.17" x2="1.101" y2="2.17" xlink:href="#linear-gradient"/>
    <clipPath id="clip-path-12">
      <rect id="Rectangle_35-2" data-name="Rectangle 35" width="179.18" height="185.547" fill="none"/>
    </clipPath>
    <clipPath id="clip-path-14">
      <rect id="Rectangle_25-2" data-name="Rectangle 25" width="177.599" height="114.788" fill="none"/>
    </clipPath>
    <clipPath id="clip-path-15">
      <path id="Path_12-2" data-name="Path 12" d="M94.391,170.288c.049.078.1.161.148.238.218.35.436.7.658,1.053,11.417,18.041,28.422,34.867,46.541,48.546q1.992,1.505,4,2.958,4.619,3.351,9.288,6.4,1.067.7,2.1,1.362,2.486,1.6,4.794,3.045c.251.156.5.312.748.468,10.7,6.731,17.93,11.285,17.173,17.061-2.4,18.312-30.2,2.625-30.478,2.473.132.333,7.245,18.172-2.685,25.137h0a13.048,13.048,0,0,1-3.067,1.58,16.254,16.254,0,0,1-1.669.51c-16.281,4.077-32.891-15.765-33.82-16.9-.029-.033-.041-.05-.041-.05s0,.021,0,.062c-.025.239-.115,1.131-.374,2.428-1.176,5.949-5.8,20.319-22.8,17.723-21.075-3.217-14.53-22.772-14.365-23.257-.312.506-14.513,23.179-30.227,16.28-15.569-6.842-2.109-26.639-1.566-27.429-.8.839-29.754,31.2-35.637,7.418-3.421-13.8,4.358-18.7,16.552-24.948.7-.358,1.414-.724,2.142-1.09.856-.436,1.727-.876,2.615-1.333q.666-.339,1.345-.691c.452-.23.908-.469,1.365-.708a124.937,124.937,0,0,0,15.508-9.38q1.5-1.086,3.026-2.25c.275-.206.547-.42.822-.634q.937-.728,1.879-1.481c.321-.255.645-.518.97-.781,2.183-1.773,4.379-3.641,6.558-5.566.341-.3.678-.6,1.02-.905,2.717-2.427,5.41-4.933,8.025-7.45q.949-.913,1.887-1.835,1.961-1.913,3.852-3.814c.308-.312.616-.621.921-.93,4.136-4.18,7.939-8.208,11.187-11.738.23-.247.456-.493.678-.736.255-.28.514-.559.765-.835l.641-.7c.152-.173.308-.341.46-.506l.354-.391c.263-.3.526-.588.785-.872.411-.453.8-.893,1.18-1.317.535-.6,1.036-1.164,1.509-1.695.094-.1.185-.206.275-.309.1-.123.21-.243.312-.358.161-.181.317-.354.465-.527,1.353-1.543,2.368-2.723,2.981-3.435.02-.021.037-.041.057-.062.395-.469.6-.716.6-.716.176.3.358.588.538.885" transform="translate(-2.301 -169.403)" fill="none"/>
    </clipPath>
    <clipPath id="clip-path-17">
      <rect id="Rectangle_28-2" data-name="Rectangle 28" width="140.671" height="81.53" fill="none"/>
    </clipPath>
    <clipPath id="clip-path-18">
      <path id="Path_16-2" data-name="Path 16" d="M154.843,126.831q2.772,2.364,5.548,4.637a199.155,199.155,0,0,0,20.078,14.7c25.079,15.633-17.362,22.216-28.937,15.633,0,0,2.7,18.1-18.906,17.279s-28.551-15.634-28.551-15.634-18.52,21.8-34.339,13.577C54.418,169.054,61.53,159.543,62,158.95c-.339.349-4.622,4.373-21.969,1.617-18.134-2.88-14.727-14.794-3.472-20.159a153.561,153.561,0,0,0,16.012-8.821q3.148-1.987,6.061-4.04c33.351-23.45,43.9-51.731,43.9-51.731s25.8,28.379,52.311,51.014" transform="translate(-27.27 -75.817)" fill="none"/>
    </clipPath>
    <clipPath id="clip-path-20">
      <rect id="Rectangle_31-2" data-name="Rectangle 31" width="96.215" height="60.894" fill="none"/>
    </clipPath>
    <clipPath id="clip-path-21">
      <path id="Path_19-2" data-name="Path 19" d="M147.791,6.168A247.484,247.484,0,0,0,194.8,57.917c19.642,16.381-25.44,26.173-35.858,7.248,0,0-4.63,22.216-22.378,18.925s-17.748-18.513-17.748-18.513S97.595,84.091,82.547,73.394s9.988-23.344,26.622-36.2C118.2,30.213,127.353,16.622,133.4,6.539a8.389,8.389,0,0,1,14.389-.371" transform="translate(-77.918 -2.274)" fill="none"/>
    </clipPath>
  </defs>
  <g id="Group_154" data-name="Group 154" transform="translate(-1258.145 -804.217)">
    <path id="Path_154" data-name="Path 154" d="M3325.528,1813.48c56.066-38.747,144.17-31.169,206.644,0s159.388,2.825,206.644-28.354,131.356-31.179,195.431,5.669" transform="translate(-2024.528 -829.933)" fill="none" stroke="#ececff" stroke-linecap="round" stroke-width="17"/>
    <g id="Group_66" data-name="Group 66" transform="translate(1258.145 804.217)">
      <g id="Group_36" data-name="Group 36" clip-path="url(#clip-path)">
        <g id="Group_17" data-name="Group 17">
          <g id="Group_16" data-name="Group 16" clip-path="url(#clip-path)">
            <g id="Group_15" data-name="Group 15" transform="translate(0.959 97.822)" opacity="0.3">
              <g id="Group_14" data-name="Group 14">
                <g id="Group_13" data-name="Group 13" clip-path="url(#clip-path-3)">
                  <path id="Path_11" data-name="Path 11" d="M3.42,304.669c5.408,21.862,24.919,10.631,37.711.307a3.057,3.057,0,0,1,4.85,3.256c-2.671,8.609-2.782,18.98,8.872,24.1,13.89,6.1,26.926-4.517,34.633-13.149a3.265,3.265,0,0,1,5.692,2c.434,8.191,4.554,18.232,21.322,20.791,16.164,2.468,24.4-7.757,28.5-17.058a7.056,7.056,0,0,1,11.228-2.347c8.942,8.154,24.214,18.622,39.124,14.888a22.451,22.451,0,0,0,2.308-.705,18.011,18.011,0,0,0,4.24-2.184h.005c9.21-6.461,7.814-19.689,5.843-27.834a3.2,3.2,0,0,1,4.4-3.689c11.208,5,33.138,12.2,35.6-6.646,1.046-7.985-8.952-14.281-23.741-23.586-.341-.216-.688-.432-1.035-.649q-3.189-2-6.627-4.209-1.432-.921-2.9-1.882-6.437-4.215-12.839-8.85-2.78-2.005-5.537-4.09c-25.049-18.911-48.557-42.173-64.341-67.113-.307-.489-.608-.973-.909-1.456-.068-.108-.136-.222-.2-.33l-.087-.142a.913.913,0,0,0-1.477-.111l-.016.019c-.028.029-.051.057-.079.086-.847.984-2.251,2.616-4.121,4.749-.2.239-.421.478-.642.728-.142.159-.29.324-.432.495-.125.142-.25.284-.381.427-.654.733-1.347,1.519-2.086,2.343-.523.586-1.063,1.195-1.631,1.82-.358.393-.722.8-1.085,1.206l-.489.541c-.21.227-.426.461-.636.7l-.887.973c-.347.381-.7.768-1.057,1.155-.307.336-.619.677-.938,1.018-4.49,4.88-9.748,10.448-15.466,16.227-.42.427-.847.853-1.273,1.285q-2.609,2.62-5.326,5.272-1.3,1.271-2.609,2.537c-3.615,3.481-7.338,6.944-11.1,10.3-.472.421-.938.841-1.41,1.251-3.013,2.662-6.047,5.244-9.066,7.7-.449.364-.9.728-1.341,1.081q-1.3,1.041-2.6,2.047c-.381.3-.756.592-1.137.876q-2.106,1.613-4.184,3.112A172.792,172.792,0,0,1,36.626,264.9c-.631.33-1.262.659-1.887.978s-1.245.643-1.859.956c-1.228.632-2.433,1.24-3.615,1.843-1.006.506-2,1.013-2.961,1.507C9.446,278.813-1.309,285.587,3.42,304.669" transform="translate(-2.301 -183.662)" fill="#00005e"/>
                </g>
              </g>
            </g>
          </g>
        </g>
        <g id="Group_19" data-name="Group 19" transform="translate(0.959 90.228)">
          <g id="Group_18" data-name="Group 18" clip-path="url(#clip-path-4)">
            <rect id="Rectangle_27" data-name="Rectangle 27" width="250.106" height="162.551" transform="translate(-3.61 0)" fill="url(#linear-gradient)"/>
          </g>
        </g>
        <g id="Group_24" data-name="Group 24">
          <g id="Group_23" data-name="Group 23" clip-path="url(#clip-path)">
            <path id="Path_13" data-name="Path 13" d="M422.5,329.952c1.822,1.333-10.8,11.375-10.8,17.631s1.705,14.219,10.8,15.356,10.795,1.947,7.955,5.808-20.347,14.038-28.36,9.233-11.424-24.142-5.172-32.673,25.049-15.743,25.578-15.356" transform="translate(-393.695 -154.206)" fill="#eaf2fe"/>
            <path id="Path_14" data-name="Path 14" d="M1.028,368.9c2.546,3.026,9.521,7.706,17.41,13.053,14.829,10.05,24.423,9.629,32.233,6.228a38.7,38.7,0,0,0,4.24-2.184h.006c8.634-5.062,7.855-13.712,7.855-19.025s1.137-11.182,4.547-9.475,14.21,3.413,20.218,3.521,11.043-3.521,13.885-12.052S96.875,336.45,94.6,334.744c-1.04-.785-9.515-6.569-18.489-12.507-10.589-7.007-21.866-14.219-22.434-13.656a.678.678,0,0,0-.063.068c-2.058,2.241,1.239,9.129,5.178,18.7.045.108.085.21.125.319,3.632,9.464-6.338,14.674-6.946,20.725-1.137,11.375-2.842,24.457-33.534,18.718-9.168-1.712-14.431-2.144-16.83-1.587-.023.005-.046.011-.063.017C-.438,366.02-.4,367.2,1.028,368.9" transform="translate(145.647 -144.21)" fill="#eaf2fe"/>
            <g id="Group_22" data-name="Group 22" transform="translate(27.317 90.94)" opacity="0.3">
              <g id="Group_21" data-name="Group 21">
                <g id="Group_20" data-name="Group 20" clip-path="url(#clip-path-6)">
                  <path id="Path_15" data-name="Path 15" d="M49.565,257.816c.011,0,.023.006.034.006a94.039,94.039,0,0,0,15.529,1.325c5.678-.057,10.72,3.7,12.834,9.322,1.449,3.856,5.047,8.122,12.709,12.1,13.539,7.041,28.51-1.832,37.951-9.612a13.061,13.061,0,0,1,17.267.535c6.065,5.466,16.137,11.329,31.722,11.921,15.562.591,22-5.909,24.605-12.28a13.426,13.426,0,0,1,13.72-8.412c3.121.307,6.537.54,9.976.534,5.581-.011,11.22-.659,15.733-2.684a2.361,2.361,0,0,0,1.336-1.393,2.751,2.751,0,0,0,.125-1.354c-10.589-7.007-21.866-14.219-22.434-13.656a.609.609,0,0,0-.062.069q-2.78-2.005-5.537-4.089c-22.61-13.94-47.494-40.359-64.341-67.114-.307-.484-.608-.973-.909-1.456-.068-.108-.136-.222-.2-.33a1.018,1.018,0,0,0-1.58-.233c-.028.028-.051.057-.079.085-.847.984-2.251,2.616-4.121,4.749-.2.239-.421.478-.642.728-.142.16-.29.324-.432.495-.125.142-.25.284-.381.427-.654.734-1.347,1.519-2.086,2.344-.523.586-1.069,1.194-1.631,1.82-.358.393-.722.8-1.085,1.206l-.489.54c-.21.227-.426.461-.636.7q-.443.478-.887.973c-.347.381-.7.768-1.057,1.155-.307.336-.619.676-.938,1.018-4.49,4.88-9.747,10.448-15.466,16.227-.42.426-.847.859-1.273,1.285-1.74,1.746-3.519,3.509-5.326,5.272-.864.847-1.734,1.689-2.609,2.537-3.615,3.481-7.338,6.944-11.095,10.3-.472.421-.938.836-1.41,1.251-3.013,2.662-6.047,5.244-9.066,7.7-.449.364-.892.728-1.341,1.081q-1.3,1.041-2.6,2.048c-.375.3-.756.585-1.137.876q-2.106,1.612-4.184,3.111A172.78,172.78,0,0,1,56.63,251.906c-.631.33-1.262.66-1.887.978s-1.245.642-1.859.956c-1.228.631-2.433,1.24-3.615,1.843a1.147,1.147,0,0,0,.3,2.133" transform="translate(-48.664 -170.741)" fill="#00005e"/>
                </g>
              </g>
            </g>
          </g>
        </g>
        <g id="Group_26" data-name="Group 26" transform="translate(10.614 40.382)">
          <g id="Group_25" data-name="Group 25" clip-path="url(#clip-path-7)">
            <rect id="Rectangle_30" data-name="Rectangle 30" width="253.898" height="151.29" transform="translate(-7.433 0)" fill="url(#linear-gradient-2)"/>
          </g>
        </g>
        <g id="Group_31" data-name="Group 31">
          <g id="Group_30" data-name="Group 30" clip-path="url(#clip-path)">
            <path id="Path_17" data-name="Path 17" d="M25.35,205.784c-3.245,3.459,29.572,27.3,29.572,35.263,0,7.035-9.3,15.954-5.451,17.077s22.389-2.15,26.787-6.839c4.267-4.55,4.557-12.546-4.8-17.632-38.718-21.044-40.24-34.125-46.107-27.869" transform="translate(155.218 -95.445)" fill="#fafcff"/>
            <g id="Group_29" data-name="Group 29" transform="translate(53.966 40.382)" opacity="0.3">
              <g id="Group_28" data-name="Group 28">
                <g id="Group_27" data-name="Group 27" clip-path="url(#clip-path-9)">
                  <path id="Path_18" data-name="Path 18" d="M114.022,147.333a5.249,5.249,0,0,0,3.9,2.281c11.233,1.018,22.066-4.374,28.19-8.213a5.283,5.283,0,0,1,7.436,2.042c3.088,5.4,10.092,13.138,25.432,15.982,15.848,2.941,24.8-5.983,29.145-12.672a5.238,5.238,0,0,1,7.761-1.393c7.057,5.716,17.965,5.261,27.977,3.054a5.27,5.27,0,0,0,3.169-2.07c-36.645-31.293-72.319-70.526-72.319-70.526s-14.589,39.1-60.7,71.516" transform="translate(-114.022 -75.817)" fill="#00005e"/>
                </g>
              </g>
            </g>
          </g>
        </g>
        <g id="Group_33" data-name="Group 33" transform="translate(37.853 1.211)">
          <g id="Group_32" data-name="Group 32" clip-path="url(#clip-path-10)">
            <rect id="Rectangle_33" data-name="Rectangle 33" width="203.143" height="117.66" transform="translate(-14.403 -0.001)" fill="url(#linear-gradient-3)"/>
          </g>
        </g>
        <g id="Group_35" data-name="Group 35">
          <g id="Group_34" data-name="Group 34" clip-path="url(#clip-path)">
            <path id="Path_21" data-name="Path 21" d="M279.065,236.313c16.754-9.825,32-15.357,27.737-5.119s-.533,17.063,9.068,17.063,19.736,3.981,19.736,10.238,6.934,11.375,13.868,11.944,23.876,2.637,11.671,11.272-34.608,11.478-42.075-3.309,4.27-14.806-19.735-14.228S268.93,256.788,270,251.1s-1.6-8.531,9.068-14.788" transform="translate(-261.483 -105.499)" fill="#eaf2fe"/>
          </g>
        </g>
      </g>
    </g>
    <g id="Group_67" data-name="Group 67" transform="translate(1594.29 932.474)">
      <g id="Group_36-2" data-name="Group 36" clip-path="url(#clip-path-12)">
        <g id="Group_17-2" data-name="Group 17">
          <g id="Group_16-2" data-name="Group 16" clip-path="url(#clip-path-12)">
            <g id="Group_15-2" data-name="Group 15" transform="translate(0.693 70.759)" opacity="0.3">
              <g id="Group_14-2" data-name="Group 14">
                <g id="Group_13-2" data-name="Group 13" clip-path="url(#clip-path-14)">
                  <path id="Path_11-2" data-name="Path 11" d="M3.111,271.192c3.912,15.814,18.025,7.69,27.278.222a2.211,2.211,0,0,1,3.508,2.355C31.965,280,31.885,287.5,40.315,291.2c10.047,4.411,19.476-3.267,25.052-9.511a2.362,2.362,0,0,1,4.117,1.449c.314,5.925,3.294,13.188,15.423,15.039,11.692,1.785,17.651-5.611,20.615-12.339a5.1,5.1,0,0,1,8.121-1.7c6.468,5.9,17.515,13.47,28.3,10.769a16.246,16.246,0,0,0,1.669-.51,13.027,13.027,0,0,0,3.067-1.58h0c6.662-4.673,5.652-14.242,4.226-20.133a2.312,2.312,0,0,1,3.182-2.669c8.107,3.616,23.97,8.823,25.754-4.807.757-5.776-6.475-10.33-17.173-17.061-.247-.156-.5-.313-.749-.469q-2.306-1.45-4.794-3.044-1.036-.666-2.1-1.362-4.656-3.049-9.287-6.4-2.011-1.451-4-2.958c-18.119-13.679-35.123-30.506-46.541-48.546-.222-.354-.44-.7-.658-1.053-.049-.078-.1-.161-.148-.239l-.063-.1a.66.66,0,0,0-1.068-.08l-.012.014c-.02.021-.037.041-.057.062-.613.712-1.628,1.892-2.981,3.435-.148.173-.3.346-.465.527-.1.115-.21.235-.312.358-.091.1-.181.206-.275.309-.473.531-.974,1.1-1.509,1.695-.378.424-.769.864-1.18,1.316-.259.284-.522.576-.785.872l-.354.391c-.152.165-.308.333-.46.506l-.641.7c-.251.276-.51.556-.765.835-.222.243-.448.49-.678.736-3.248,3.53-7.051,7.558-11.187,11.738-.3.309-.613.617-.921.93q-1.887,1.895-3.852,3.814-.937.919-1.887,1.835c-2.615,2.518-5.308,5.023-8.025,7.451-.341.3-.678.609-1.02.9-2.179,1.925-4.374,3.793-6.558,5.566-.325.263-.65.527-.97.782q-.944.753-1.879,1.481c-.275.214-.547.428-.822.633q-1.523,1.167-3.026,2.251a124.989,124.989,0,0,1-15.508,9.38c-.457.238-.913.477-1.365.707s-.9.465-1.345.691c-.888.457-1.76.9-2.615,1.333-.728.366-1.443.732-2.142,1.09C7.469,252.489-.31,257.389,3.111,271.192" transform="translate(-2.301 -183.662)" fill="#00005e"/>
                </g>
              </g>
            </g>
          </g>
        </g>
        <g id="Group_19-2" data-name="Group 19" transform="translate(0.694 65.265)">
          <g id="Group_18-2" data-name="Group 18" clip-path="url(#clip-path-15)">
            <rect id="Rectangle_27-2" data-name="Rectangle 27" width="180.912" height="117.58" transform="translate(-2.611 0)" fill="url(#linear-gradient)"/>
          </g>
        </g>
        <g id="Group_24-2" data-name="Group 24">
          <g id="Group_23-2" data-name="Group 23" clip-path="url(#clip-path-12)">
            <path id="Path_13-2" data-name="Path 13" d="M414.534,329.948c1.318.964-7.812,8.228-7.812,12.754s1.234,10.285,7.812,11.108,7.808,1.409,5.754,4.2-14.718,10.154-20.514,6.679-8.264-17.463-3.741-23.634,18.119-11.388,18.5-11.108" transform="translate(-393.695 -202.823)" fill="#eaf2fe"/>
            <path id="Path_14-2" data-name="Path 14" d="M.744,352.2c1.842,2.189,6.887,5.574,12.593,9.442,10.727,7.27,17.666,6.965,23.315,4.505a28,28,0,0,0,3.067-1.58h0c6.245-3.661,5.682-9.919,5.682-13.761s.822-8.088,3.289-6.854,10.279,2.468,14.624,2.547,7.988-2.547,10.044-8.718-3.289-9.051-4.934-10.285c-.752-.568-6.882-4.752-13.374-9.047-7.66-5.069-15.816-10.285-16.227-9.878a.488.488,0,0,0-.045.049c-1.488,1.621.9,6.6,3.746,13.527.033.078.062.152.091.23,2.627,6.846-4.584,10.614-5.024,14.992-.822,8.228-2.056,17.691-24.257,13.539-6.632-1.238-10.439-1.551-12.174-1.148l-.045.012c-1.435.346-1.41,1.2-.374,2.427" transform="translate(105.353 -189.676)" fill="#eaf2fe"/>
            <g id="Group_22-2" data-name="Group 22" transform="translate(19.76 65.781)" opacity="0.3">
              <g id="Group_21-2" data-name="Group 21">
                <g id="Group_20-2" data-name="Group 20" clip-path="url(#clip-path-17)">
                  <path id="Path_15-2" data-name="Path 15" d="M49.315,233.726c.008,0,.017,0,.025,0a68.02,68.02,0,0,0,11.232.959,9.971,9.971,0,0,1,9.283,6.743c1.048,2.789,3.651,5.875,9.193,8.755,9.793,5.093,20.623-1.325,27.452-6.953a9.448,9.448,0,0,1,12.49.387c4.387,3.954,11.672,8.2,22.946,8.623,11.257.428,15.915-4.274,17.8-8.882a9.712,9.712,0,0,1,9.924-6.085c2.257.222,4.728.391,7.216.386a28.633,28.633,0,0,0,11.38-1.942,1.708,1.708,0,0,0,.966-1.008,1.99,1.99,0,0,0,.091-.979c-7.66-5.068-15.816-10.285-16.227-9.878a.44.44,0,0,0-.045.05q-2.011-1.451-4-2.958c-16.355-10.084-34.354-29.194-46.541-48.546-.222-.35-.44-.7-.658-1.053-.049-.078-.1-.16-.148-.238a.737.737,0,0,0-1.143-.169c-.02.02-.037.041-.057.062-.613.712-1.628,1.892-2.981,3.435-.148.173-.3.346-.465.526-.1.116-.21.235-.312.358-.091.1-.181.206-.275.309-.473.531-.974,1.1-1.509,1.7-.378.424-.773.864-1.18,1.316-.259.284-.522.576-.785.872l-.354.391c-.152.164-.308.333-.46.506q-.321.346-.641.7c-.251.275-.51.555-.765.835-.222.243-.448.489-.678.736-3.248,3.53-7.051,7.557-11.187,11.738-.3.308-.613.621-.921.93-1.258,1.263-2.545,2.539-3.852,3.814-.625.613-1.254,1.222-1.887,1.835-2.615,2.518-5.308,5.023-8.025,7.45-.341.3-.678.6-1.02.9-2.179,1.926-4.374,3.793-6.558,5.566-.325.264-.645.527-.97.782q-.944.753-1.879,1.481c-.271.214-.547.423-.822.633q-1.523,1.166-3.026,2.25a124.977,124.977,0,0,1-15.508,9.38c-.457.238-.913.477-1.365.708s-.9.465-1.345.691c-.888.457-1.76.9-2.615,1.333a.83.83,0,0,0,.214,1.543" transform="translate(-48.664 -170.741)" fill="#00005e"/>
                </g>
              </g>
            </g>
          </g>
        </g>
        <g id="Group_26-2" data-name="Group 26" transform="translate(7.678 29.21)">
          <g id="Group_25-2" data-name="Group 25" clip-path="url(#clip-path-18)">
            <rect id="Rectangle_30-2" data-name="Rectangle 30" width="183.656" height="109.435" transform="translate(-5.377 0)" fill="url(#linear-gradient-2)"/>
          </g>
        </g>
        <g id="Group_31-2" data-name="Group 31">
          <g id="Group_30-2" data-name="Group 30" clip-path="url(#clip-path-12)">
            <path id="Path_17-2" data-name="Path 17" d="M25.288,205.35c-2.347,2.5,21.39,19.748,21.39,25.507,0,5.089-6.729,11.54-3.943,12.353s16.195-1.555,19.376-4.947c3.087-3.291,3.3-9.075-3.472-12.754-28.007-15.222-29.107-24.684-33.351-20.159" transform="translate(105.325 -125.537)" fill="#fafcff"/>
            <g id="Group_29-2" data-name="Group 29" transform="translate(39.036 29.21)" opacity="0.3">
              <g id="Group_28-2" data-name="Group 28">
                <g id="Group_27-2" data-name="Group 27" clip-path="url(#clip-path-20)">
                  <path id="Path_18-2" data-name="Path 18" d="M114.022,127.547a3.8,3.8,0,0,0,2.824,1.65c8.126.736,15.962-3.164,20.391-5.941a3.822,3.822,0,0,1,5.379,1.477c2.234,3.9,7.3,9.5,18.4,11.56,11.463,2.127,17.937-4.328,21.082-9.166a3.789,3.789,0,0,1,5.614-1.008c5.1,4.134,13,3.805,20.237,2.209a3.812,3.812,0,0,0,2.292-1.5C183.73,104.2,157.926,75.817,157.926,75.817s-10.553,28.28-43.9,51.73" transform="translate(-114.022 -75.817)" fill="#00005e"/>
                </g>
              </g>
            </g>
          </g>
        </g>
        <g id="Group_33-2" data-name="Group 33" transform="translate(27.381 0.876)">
          <g id="Group_32-2" data-name="Group 32" clip-path="url(#clip-path-21)">
            <rect id="Rectangle_33-2" data-name="Rectangle 33" width="146.942" height="85.108" transform="translate(-10.418 0)" fill="url(#linear-gradient-3)"/>
          </g>
        </g>
        <g id="Group_35-2" data-name="Group 35">
          <g id="Group_34-2" data-name="Group 34" clip-path="url(#clip-path-12)">
            <path id="Path_21-2" data-name="Path 21" d="M276.526,233.384c12.119-7.107,23.15-11.108,20.063-3.7s-.386,12.342,6.559,12.342,14.276,2.88,14.276,7.405,5.016,8.228,10.032,8.64,17.271,1.907,8.442,8.153-25.033,8.3-30.435-2.394,3.088-10.71-14.275-10.292-21.993-5.342-21.222-9.456-1.157-6.171,6.559-10.7" transform="translate(-263.808 -138.76)" fill="#eaf2fe"/>
          </g>
        </g>
      </g>
    </g>
  </g>
</svg>
